<svg xmlns="http://www.w3.org/2000/svg" xmlns:xlink="http://www.w3.org/1999/xlink" width="1920" height="1080" viewBox="0 0 508 285.75"><defs><linearGradient id="e"><stop offset="0" stop-color="#ececec"/><stop offset="1" stop-color="#b3b3b3"/></linearGradient><linearGradient id="d"><stop offset="0" stop-color="#ccc"/><stop offset="1" stop-color="#ccc"/></linearGradient><linearGradient id="f"><stop offset="0" stop-color="#b3b3b3"/><stop offset="1" stop-color="#e6e6e6"/></linearGradient><linearGradient y2="279.939" x2="678.891" y1="443.527" x1="496.269" gradientTransform="rotate(60 98.295 196.457) scale(.26458)" gradientUnits="userSpaceOnUse" id="ca" xlink:href="#a"/><linearGradient id="a"><stop offset="0" stop-color="#2a8298"/><stop offset="1" stop-color="#4fb5cf" stop-opacity=".882"/></linearGradient><linearGradient y2="306.258" x2="690.02" y1="309.597" x1="576.397" gradientTransform="rotate(60 98.295 196.457) scale(.26458)" gradientUnits="userSpaceOnUse" id="cb" xlink:href="#b"/><linearGradient id="b"><stop offset="0" stop-color="#87cdde"/><stop offset="1" stop-color="#008fb2"/></linearGradient><linearGradient y2="191.086" x2="150.474" y1="142.106" x1="152.52" gradientTransform="rotate(60 173.64 239.96)" gradientUnits="userSpaceOnUse" id="cc" xlink:href="#c"/><linearGradient id="c"><stop offset="0" stop-color="#003c4a"/><stop offset="1" stop-color="#0089aa"/></linearGradient><linearGradient xlink:href="#d" id="g" gradientUnits="userSpaceOnUse" gradientTransform="rotate(60 -11.325 66.024) scale(.09265)" x1="496.269" y1="443.527" x2="678.891" y2="279.939"/><linearGradient xlink:href="#e" id="h" gradientUnits="userSpaceOnUse" gradientTransform="rotate(60 -11.325 66.024) scale(.09265)" x1="576.397" y1="309.597" x2="690.02" y2="306.258"/><linearGradient xlink:href="#f" id="i" gradientUnits="userSpaceOnUse" gradientTransform="rotate(60 15.059 81.256) scale(.35017)" x1="152.52" y1="142.106" x2="150.474" y2="191.086"/><linearGradient xlink:href="#d" id="j" gradientUnits="userSpaceOnUse" gradientTransform="rotate(60 -11.325 66.024) scale(.09265)" x1="496.269" y1="443.527" x2="678.891" y2="279.939"/><linearGradient xlink:href="#e" id="k" gradientUnits="userSpaceOnUse" gradientTransform="rotate(60 -11.325 66.024) scale(.09265)" x1="576.397" y1="309.597" x2="690.02" y2="306.258"/><linearGradient xlink:href="#f" id="l" gradientUnits="userSpaceOnUse" gradientTransform="rotate(60 15.059 81.256) scale(.35017)" x1="152.52" y1="142.106" x2="150.474" y2="191.086"/><linearGradient xlink:href="#d" id="m" gradientUnits="userSpaceOnUse" gradientTransform="rotate(60 -11.325 66.024) scale(.09265)" x1="496.269" y1="443.527" x2="678.891" y2="279.939"/><linearGradient xlink:href="#e" id="n" gradientUnits="userSpaceOnUse" gradientTransform="rotate(60 -11.325 66.024) scale(.09265)" x1="576.397" y1="309.597" x2="690.02" y2="306.258"/><linearGradient xlink:href="#f" id="o" gradientUnits="userSpaceOnUse" gradientTransform="rotate(60 15.059 81.256) scale(.35017)" x1="152.52" y1="142.106" x2="150.474" y2="191.086"/><linearGradient xlink:href="#d" id="p" gradientUnits="userSpaceOnUse" gradientTransform="rotate(60 -11.325 66.024) scale(.09265)" x1="496.269" y1="443.527" x2="678.891" y2="279.939"/><linearGradient xlink:href="#e" id="q" gradientUnits="userSpaceOnUse" gradientTransform="rotate(60 -11.325 66.024) scale(.09265)" x1="576.397" y1="309.597" x2="690.02" y2="306.258"/><linearGradient xlink:href="#f" id="r" gradientUnits="userSpaceOnUse" gradientTransform="rotate(60 15.059 81.256) scale(.35017)" x1="152.52" y1="142.106" x2="150.474" y2="191.086"/><linearGradient xlink:href="#d" id="s" gradientUnits="userSpaceOnUse" gradientTransform="rotate(60 -11.325 66.024) scale(.09265)" x1="496.269" y1="443.527" x2="678.891" y2="279.939"/><linearGradient xlink:href="#e" id="t" gradientUnits="userSpaceOnUse" gradientTransform="rotate(60 -11.325 66.024) scale(.09265)" x1="576.397" y1="309.597" x2="690.02" y2="306.258"/><linearGradient xlink:href="#f" id="u" gradientUnits="userSpaceOnUse" gradientTransform="rotate(60 15.059 81.256) scale(.35017)" x1="152.52" y1="142.106" x2="150.474" y2="191.086"/><linearGradient xlink:href="#d" id="v" gradientUnits="userSpaceOnUse" gradientTransform="rotate(60 -11.325 66.024) scale(.09265)" x1="496.269" y1="443.527" x2="678.891" y2="279.939"/><linearGradient xlink:href="#e" id="w" gradientUnits="userSpaceOnUse" gradientTransform="rotate(60 -11.325 66.024) scale(.09265)" x1="576.397" y1="309.597" x2="690.02" y2="306.258"/><linearGradient xlink:href="#f" id="x" gradientUnits="userSpaceOnUse" gradientTransform="rotate(60 15.059 81.256) scale(.35017)" x1="152.52" y1="142.106" x2="150.474" y2="191.086"/><linearGradient xlink:href="#d" id="y" gradientUnits="userSpaceOnUse" gradientTransform="rotate(60 -11.325 66.024) scale(.09265)" x1="496.269" y1="443.527" x2="678.891" y2="279.939"/><linearGradient xlink:href="#e" id="z" gradientUnits="userSpaceOnUse" gradientTransform="rotate(60 -11.325 66.024) scale(.09265)" x1="576.397" y1="309.597" x2="690.02" y2="306.258"/><linearGradient xlink:href="#f" id="A" gradientUnits="userSpaceOnUse" gradientTransform="rotate(60 15.059 81.256) scale(.35017)" x1="152.52" y1="142.106" x2="150.474" y2="191.086"/><linearGradient xlink:href="#d" id="B" gradientUnits="userSpaceOnUse" gradientTransform="rotate(60 -11.325 66.024) scale(.09265)" x1="496.269" y1="443.527" x2="678.891" y2="279.939"/><linearGradient xlink:href="#e" id="C" gradientUnits="userSpaceOnUse" gradientTransform="rotate(60 -11.325 66.024) scale(.09265)" x1="576.397" y1="309.597" x2="690.02" y2="306.258"/><linearGradient xlink:href="#f" id="D" gradientUnits="userSpaceOnUse" gradientTransform="rotate(60 15.059 81.256) scale(.35017)" x1="152.52" y1="142.106" x2="150.474" y2="191.086"/><linearGradient xlink:href="#d" id="E" gradientUnits="userSpaceOnUse" gradientTransform="rotate(60 -11.325 66.024) scale(.09265)" x1="496.269" y1="443.527" x2="678.891" y2="279.939"/><linearGradient xlink:href="#e" id="F" gradientUnits="userSpaceOnUse" gradientTransform="rotate(60 -11.325 66.024) scale(.09265)" x1="576.397" y1="309.597" x2="690.02" y2="306.258"/><linearGradient xlink:href="#f" id="G" gradientUnits="userSpaceOnUse" gradientTransform="rotate(60 15.059 81.256) scale(.35017)" x1="152.52" y1="142.106" x2="150.474" y2="191.086"/><linearGradient xlink:href="#d" id="H" gradientUnits="userSpaceOnUse" gradientTransform="rotate(60 -11.325 66.024) scale(.09265)" x1="496.269" y1="443.527" x2="678.891" y2="279.939"/><linearGradient xlink:href="#e" id="I" gradientUnits="userSpaceOnUse" gradientTransform="rotate(60 -11.325 66.024) scale(.09265)" x1="576.397" y1="309.597" x2="690.02" y2="306.258"/><linearGradient xlink:href="#f" id="J" gradientUnits="userSpaceOnUse" gradientTransform="rotate(60 15.059 81.256) scale(.35017)" x1="152.52" y1="142.106" x2="150.474" y2="191.086"/><linearGradient xlink:href="#d" id="K" gradientUnits="userSpaceOnUse" gradientTransform="rotate(60 -11.325 66.024) scale(.09265)" x1="496.269" y1="443.527" x2="678.891" y2="279.939"/><linearGradient xlink:href="#e" id="L" gradientUnits="userSpaceOnUse" gradientTransform="rotate(60 -11.325 66.024) scale(.09265)" x1="576.397" y1="309.597" x2="690.02" y2="306.258"/><linearGradient xlink:href="#f" id="M" gradientUnits="userSpaceOnUse" gradientTransform="rotate(60 15.059 81.256) scale(.35017)" x1="152.52" y1="142.106" x2="150.474" y2="191.086"/><linearGradient xlink:href="#d" id="N" gradientUnits="userSpaceOnUse" gradientTransform="rotate(60 -11.325 66.024) scale(.09265)" x1="496.269" y1="443.527" x2="678.891" y2="279.939"/><linearGradient xlink:href="#e" id="O" gradientUnits="userSpaceOnUse" gradientTransform="rotate(60 -11.325 66.024) scale(.09265)" x1="576.397" y1="309.597" x2="690.02" y2="306.258"/><linearGradient xlink:href="#f" id="P" gradientUnits="userSpaceOnUse" gradientTransform="rotate(60 15.059 81.256) scale(.35017)" x1="152.52" y1="142.106" x2="150.474" y2="191.086"/><linearGradient xlink:href="#d" id="Q" gradientUnits="userSpaceOnUse" gradientTransform="rotate(60 -11.325 66.024) scale(.09265)" x1="496.269" y1="443.527" x2="678.891" y2="279.939"/><linearGradient xlink:href="#e" id="R" gradientUnits="userSpaceOnUse" gradientTransform="rotate(60 -11.325 66.024) scale(.09265)" x1="576.397" y1="309.597" x2="690.02" y2="306.258"/><linearGradient xlink:href="#f" id="S" gradientUnits="userSpaceOnUse" gradientTransform="rotate(60 15.059 81.256) scale(.35017)" x1="152.52" y1="142.106" x2="150.474" y2="191.086"/><linearGradient xlink:href="#d" id="T" gradientUnits="userSpaceOnUse" gradientTransform="rotate(60 -11.325 66.024) scale(.09265)" x1="496.269" y1="443.527" x2="678.891" y2="279.939"/><linearGradient xlink:href="#e" id="U" gradientUnits="userSpaceOnUse" gradientTransform="rotate(60 -11.325 66.024) scale(.09265)" x1="576.397" y1="309.597" x2="690.02" y2="306.258"/><linearGradient xlink:href="#f" id="V" gradientUnits="userSpaceOnUse" gradientTransform="rotate(60 15.059 81.256) scale(.35017)" x1="152.52" y1="142.106" x2="150.474" y2="191.086"/><linearGradient xlink:href="#d" id="W" gradientUnits="userSpaceOnUse" gradientTransform="rotate(60 -11.325 66.024) scale(.09265)" x1="496.269" y1="443.527" x2="678.891" y2="279.939"/><linearGradient xlink:href="#e" id="X" gradientUnits="userSpaceOnUse" gradientTransform="rotate(60 -11.325 66.024) scale(.09265)" x1="576.397" y1="309.597" x2="690.02" y2="306.258"/><linearGradient xlink:href="#f" id="Y" gradientUnits="userSpaceOnUse" gradientTransform="rotate(60 15.059 81.256) scale(.35017)" x1="152.52" y1="142.106" x2="150.474" y2="191.086"/><linearGradient xlink:href="#d" id="Z" gradientUnits="userSpaceOnUse" gradientTransform="rotate(60 -11.325 66.024) scale(.09265)" x1="496.269" y1="443.527" x2="678.891" y2="279.939"/><linearGradient xlink:href="#e" id="aa" gradientUnits="userSpaceOnUse" gradientTransform="rotate(60 -11.325 66.024) scale(.09265)" x1="576.397" y1="309.597" x2="690.02" y2="306.258"/><linearGradient xlink:href="#f" id="ab" gradientUnits="userSpaceOnUse" gradientTransform="rotate(60 15.059 81.256) scale(.35017)" x1="152.52" y1="142.106" x2="150.474" y2="191.086"/><linearGradient xlink:href="#d" id="ac" gradientUnits="userSpaceOnUse" gradientTransform="rotate(60 -11.325 66.024) scale(.09265)" x1="496.269" y1="443.527" x2="678.891" y2="279.939"/><linearGradient xlink:href="#e" id="ad" gradientUnits="userSpaceOnUse" gradientTransform="rotate(60 -11.325 66.024) scale(.09265)" x1="576.397" y1="309.597" x2="690.02" y2="306.258"/><linearGradient xlink:href="#f" id="ae" gradientUnits="userSpaceOnUse" gradientTransform="rotate(60 15.059 81.256) scale(.35017)" x1="152.52" y1="142.106" x2="150.474" y2="191.086"/><linearGradient xlink:href="#d" id="af" gradientUnits="userSpaceOnUse" gradientTransform="rotate(60 -11.325 66.024) scale(.09265)" x1="496.269" y1="443.527" x2="678.891" y2="279.939"/><linearGradient xlink:href="#e" id="ag" gradientUnits="userSpaceOnUse" gradientTransform="rotate(60 -11.325 66.024) scale(.09265)" x1="576.397" y1="309.597" x2="690.02" y2="306.258"/><linearGradient xlink:href="#f" id="ah" gradientUnits="userSpaceOnUse" gradientTransform="rotate(60 15.059 81.256) scale(.35017)" x1="152.52" y1="142.106" x2="150.474" y2="191.086"/><linearGradient xlink:href="#d" id="ai" gradientUnits="userSpaceOnUse" gradientTransform="rotate(60 -11.325 66.024) scale(.09265)" x1="496.269" y1="443.527" x2="678.891" y2="279.939"/><linearGradient xlink:href="#e" id="aj" gradientUnits="userSpaceOnUse" gradientTransform="rotate(60 -11.325 66.024) scale(.09265)" x1="576.397" y1="309.597" x2="690.02" y2="306.258"/><linearGradient xlink:href="#f" id="ak" gradientUnits="userSpaceOnUse" gradientTransform="rotate(60 15.059 81.256) scale(.35017)" x1="152.52" y1="142.106" x2="150.474" y2="191.086"/><linearGradient xlink:href="#d" id="al" gradientUnits="userSpaceOnUse" gradientTransform="rotate(60 -11.325 66.024) scale(.09265)" x1="496.269" y1="443.527" x2="678.891" y2="279.939"/><linearGradient xlink:href="#e" id="am" gradientUnits="userSpaceOnUse" gradientTransform="rotate(60 -11.325 66.024) scale(.09265)" x1="576.397" y1="309.597" x2="690.02" y2="306.258"/><linearGradient xlink:href="#f" id="an" gradientUnits="userSpaceOnUse" gradientTransform="rotate(60 15.059 81.256) scale(.35017)" x1="152.52" y1="142.106" x2="150.474" y2="191.086"/><linearGradient xlink:href="#d" id="ao" gradientUnits="userSpaceOnUse" gradientTransform="rotate(60 -11.325 66.024) scale(.09265)" x1="496.269" y1="443.527" x2="678.891" y2="279.939"/><linearGradient xlink:href="#e" id="ap" gradientUnits="userSpaceOnUse" gradientTransform="rotate(60 -11.325 66.024) scale(.09265)" x1="576.397" y1="309.597" x2="690.02" y2="306.258"/><linearGradient xlink:href="#f" id="aq" gradientUnits="userSpaceOnUse" gradientTransform="rotate(60 15.059 81.256) scale(.35017)" x1="152.52" y1="142.106" x2="150.474" y2="191.086"/><linearGradient xlink:href="#d" id="ar" gradientUnits="userSpaceOnUse" gradientTransform="rotate(60 -11.325 66.024) scale(.09265)" x1="496.269" y1="443.527" x2="678.891" y2="279.939"/><linearGradient xlink:href="#e" id="as" gradientUnits="userSpaceOnUse" gradientTransform="rotate(60 -11.325 66.024) scale(.09265)" x1="576.397" y1="309.597" x2="690.02" y2="306.258"/><linearGradient xlink:href="#f" id="at" gradientUnits="userSpaceOnUse" gradientTransform="rotate(60 15.059 81.256) scale(.35017)" x1="152.52" y1="142.106" x2="150.474" y2="191.086"/><linearGradient xlink:href="#d" id="au" gradientUnits="userSpaceOnUse" gradientTransform="rotate(60 -11.325 66.024) scale(.09265)" x1="496.269" y1="443.527" x2="678.891" y2="279.939"/><linearGradient xlink:href="#e" id="av" gradientUnits="userSpaceOnUse" gradientTransform="rotate(60 -11.325 66.024) scale(.09265)" x1="576.397" y1="309.597" x2="690.02" y2="306.258"/><linearGradient xlink:href="#f" id="aw" gradientUnits="userSpaceOnUse" gradientTransform="rotate(60 15.059 81.256) scale(.35017)" x1="152.52" y1="142.106" x2="150.474" y2="191.086"/><linearGradient xlink:href="#d" id="ax" gradientUnits="userSpaceOnUse" gradientTransform="rotate(60 -11.325 66.024) scale(.09265)" x1="496.269" y1="443.527" x2="678.891" y2="279.939"/><linearGradient xlink:href="#e" id="ay" gradientUnits="userSpaceOnUse" gradientTransform="rotate(60 -11.325 66.024) scale(.09265)" x1="576.397" y1="309.597" x2="690.02" y2="306.258"/><linearGradient xlink:href="#f" id="az" gradientUnits="userSpaceOnUse" gradientTransform="rotate(60 15.059 81.256) scale(.35017)" x1="152.52" y1="142.106" x2="150.474" y2="191.086"/><linearGradient xlink:href="#d" id="aA" gradientUnits="userSpaceOnUse" gradientTransform="rotate(60 -11.325 66.024) scale(.09265)" x1="496.269" y1="443.527" x2="678.891" y2="279.939"/><linearGradient xlink:href="#e" id="aB" gradientUnits="userSpaceOnUse" gradientTransform="rotate(60 -11.325 66.024) scale(.09265)" x1="576.397" y1="309.597" x2="690.02" y2="306.258"/><linearGradient xlink:href="#f" id="aC" gradientUnits="userSpaceOnUse" gradientTransform="rotate(60 15.059 81.256) scale(.35017)" x1="152.52" y1="142.106" x2="150.474" y2="191.086"/><linearGradient xlink:href="#d" id="aD" gradientUnits="userSpaceOnUse" gradientTransform="rotate(60 -11.325 66.024) scale(.09265)" x1="496.269" y1="443.527" x2="678.891" y2="279.939"/><linearGradient xlink:href="#e" id="aE" gradientUnits="userSpaceOnUse" gradientTransform="rotate(60 -11.325 66.024) scale(.09265)" x1="576.397" y1="309.597" x2="690.02" y2="306.258"/><linearGradient xlink:href="#f" id="aF" gradientUnits="userSpaceOnUse" gradientTransform="rotate(60 15.059 81.256) scale(.35017)" x1="152.52" y1="142.106" x2="150.474" y2="191.086"/><linearGradient xlink:href="#d" id="aG" gradientUnits="userSpaceOnUse" gradientTransform="rotate(60 -11.325 66.024) scale(.09265)" x1="496.269" y1="443.527" x2="678.891" y2="279.939"/><linearGradient xlink:href="#e" id="aH" gradientUnits="userSpaceOnUse" gradientTransform="rotate(60 -11.325 66.024) scale(.09265)" x1="576.397" y1="309.597" x2="690.02" y2="306.258"/><linearGradient xlink:href="#f" id="aI" gradientUnits="userSpaceOnUse" gradientTransform="rotate(60 15.059 81.256) scale(.35017)" x1="152.52" y1="142.106" x2="150.474" y2="191.086"/><linearGradient xlink:href="#d" id="aJ" gradientUnits="userSpaceOnUse" gradientTransform="rotate(60 -11.325 66.024) scale(.09265)" x1="496.269" y1="443.527" x2="678.891" y2="279.939"/><linearGradient xlink:href="#e" id="aK" gradientUnits="userSpaceOnUse" gradientTransform="rotate(60 -11.325 66.024) scale(.09265)" x1="576.397" y1="309.597" x2="690.02" y2="306.258"/><linearGradient xlink:href="#f" id="aL" gradientUnits="userSpaceOnUse" gradientTransform="rotate(60 15.059 81.256) scale(.35017)" x1="152.52" y1="142.106" x2="150.474" y2="191.086"/><linearGradient xlink:href="#d" id="aM" gradientUnits="userSpaceOnUse" gradientTransform="rotate(60 -11.325 66.024) scale(.09265)" x1="496.269" y1="443.527" x2="678.891" y2="279.939"/><linearGradient xlink:href="#e" id="aN" gradientUnits="userSpaceOnUse" gradientTransform="rotate(60 -11.325 66.024) scale(.09265)" x1="576.397" y1="309.597" x2="690.02" y2="306.258"/><linearGradient xlink:href="#f" id="aO" gradientUnits="userSpaceOnUse" gradientTransform="rotate(60 15.059 81.256) scale(.35017)" x1="152.52" y1="142.106" x2="150.474" y2="191.086"/><linearGradient xlink:href="#d" id="aP" gradientUnits="userSpaceOnUse" gradientTransform="rotate(60 -11.325 66.024) scale(.09265)" x1="496.269" y1="443.527" x2="678.891" y2="279.939"/><linearGradient xlink:href="#e" id="aQ" gradientUnits="userSpaceOnUse" gradientTransform="rotate(60 -11.325 66.024) scale(.09265)" x1="576.397" y1="309.597" x2="690.02" y2="306.258"/><linearGradient xlink:href="#f" id="aR" gradientUnits="userSpaceOnUse" gradientTransform="rotate(60 15.059 81.256) scale(.35017)" x1="152.52" y1="142.106" x2="150.474" y2="191.086"/><linearGradient xlink:href="#d" id="aS" gradientUnits="userSpaceOnUse" gradientTransform="rotate(60 -11.325 66.024) scale(.09265)" x1="496.269" y1="443.527" x2="678.891" y2="279.939"/><linearGradient xlink:href="#e" id="aT" gradientUnits="userSpaceOnUse" gradientTransform="rotate(60 -11.325 66.024) scale(.09265)" x1="576.397" y1="309.597" x2="690.02" y2="306.258"/><linearGradient xlink:href="#f" id="aU" gradientUnits="userSpaceOnUse" gradientTransform="rotate(60 15.059 81.256) scale(.35017)" x1="152.52" y1="142.106" x2="150.474" y2="191.086"/><linearGradient xlink:href="#d" id="aV" gradientUnits="userSpaceOnUse" gradientTransform="rotate(60 -11.325 66.024) scale(.09265)" x1="496.269" y1="443.527" x2="678.891" y2="279.939"/><linearGradient xlink:href="#e" id="aW" gradientUnits="userSpaceOnUse" gradientTransform="rotate(60 -11.325 66.024) scale(.09265)" x1="576.397" y1="309.597" x2="690.02" y2="306.258"/><linearGradient xlink:href="#f" id="aX" gradientUnits="userSpaceOnUse" gradientTransform="rotate(60 15.059 81.256) scale(.35017)" x1="152.52" y1="142.106" x2="150.474" y2="191.086"/><linearGradient xlink:href="#d" id="aY" gradientUnits="userSpaceOnUse" gradientTransform="rotate(60 -11.325 66.024) scale(.09265)" x1="496.269" y1="443.527" x2="678.891" y2="279.939"/><linearGradient xlink:href="#e" id="aZ" gradientUnits="userSpaceOnUse" gradientTransform="rotate(60 -11.325 66.024) scale(.09265)" x1="576.397" y1="309.597" x2="690.02" y2="306.258"/><linearGradient xlink:href="#f" id="ba" gradientUnits="userSpaceOnUse" gradientTransform="rotate(60 15.059 81.256) scale(.35017)" x1="152.52" y1="142.106" x2="150.474" y2="191.086"/><linearGradient xlink:href="#d" id="bb" gradientUnits="userSpaceOnUse" gradientTransform="rotate(60 -11.325 66.024) scale(.09265)" x1="496.269" y1="443.527" x2="678.891" y2="279.939"/><linearGradient xlink:href="#e" id="bc" gradientUnits="userSpaceOnUse" gradientTransform="rotate(60 -11.325 66.024) scale(.09265)" x1="576.397" y1="309.597" x2="690.02" y2="306.258"/><linearGradient xlink:href="#f" id="bd" gradientUnits="userSpaceOnUse" gradientTransform="rotate(60 15.059 81.256) scale(.35017)" x1="152.52" y1="142.106" x2="150.474" y2="191.086"/><linearGradient xlink:href="#d" id="be" gradientUnits="userSpaceOnUse" gradientTransform="rotate(60 -11.325 66.024) scale(.09265)" x1="496.269" y1="443.527" x2="678.891" y2="279.939"/><linearGradient xlink:href="#e" id="bf" gradientUnits="userSpaceOnUse" gradientTransform="rotate(60 -11.325 66.024) scale(.09265)" x1="576.397" y1="309.597" x2="690.02" y2="306.258"/><linearGradient xlink:href="#f" id="bg" gradientUnits="userSpaceOnUse" gradientTransform="rotate(60 15.059 81.256) scale(.35017)" x1="152.52" y1="142.106" x2="150.474" y2="191.086"/><linearGradient xlink:href="#d" id="bh" gradientUnits="userSpaceOnUse" gradientTransform="rotate(60 -11.325 66.024) scale(.09265)" x1="496.269" y1="443.527" x2="678.891" y2="279.939"/><linearGradient xlink:href="#e" id="bi" gradientUnits="userSpaceOnUse" gradientTransform="rotate(60 -11.325 66.024) scale(.09265)" x1="576.397" y1="309.597" x2="690.02" y2="306.258"/><linearGradient xlink:href="#f" id="bj" gradientUnits="userSpaceOnUse" gradientTransform="rotate(60 15.059 81.256) scale(.35017)" x1="152.52" y1="142.106" x2="150.474" y2="191.086"/><linearGradient xlink:href="#d" id="bk" gradientUnits="userSpaceOnUse" gradientTransform="rotate(60 -11.325 66.024) scale(.09265)" x1="496.269" y1="443.527" x2="678.891" y2="279.939"/><linearGradient xlink:href="#e" id="bl" gradientUnits="userSpaceOnUse" gradientTransform="rotate(60 -11.325 66.024) scale(.09265)" x1="576.397" y1="309.597" x2="690.02" y2="306.258"/><linearGradient xlink:href="#f" id="bm" gradientUnits="userSpaceOnUse" gradientTransform="rotate(60 15.059 81.256) scale(.35017)" x1="152.52" y1="142.106" x2="150.474" y2="191.086"/><linearGradient xlink:href="#d" id="bn" gradientUnits="userSpaceOnUse" gradientTransform="rotate(60 -11.325 66.024) scale(.09265)" x1="496.269" y1="443.527" x2="678.891" y2="279.939"/><linearGradient xlink:href="#e" id="bo" gradientUnits="userSpaceOnUse" gradientTransform="rotate(60 -11.325 66.024) scale(.09265)" x1="576.397" y1="309.597" x2="690.02" y2="306.258"/><linearGradient xlink:href="#f" id="bp" gradientUnits="userSpaceOnUse" gradientTransform="rotate(60 15.059 81.256) scale(.35017)" x1="152.52" y1="142.106" x2="150.474" y2="191.086"/><linearGradient xlink:href="#d" id="bq" gradientUnits="userSpaceOnUse" gradientTransform="rotate(60 -11.325 66.024) scale(.09265)" x1="496.269" y1="443.527" x2="678.891" y2="279.939"/><linearGradient xlink:href="#e" id="br" gradientUnits="userSpaceOnUse" gradientTransform="rotate(60 -11.325 66.024) scale(.09265)" x1="576.397" y1="309.597" x2="690.02" y2="306.258"/><linearGradient xlink:href="#f" id="bs" gradientUnits="userSpaceOnUse" gradientTransform="rotate(60 15.059 81.256) scale(.35017)" x1="152.52" y1="142.106" x2="150.474" y2="191.086"/><linearGradient xlink:href="#d" id="bt" gradientUnits="userSpaceOnUse" gradientTransform="rotate(60 -11.325 66.024) scale(.09265)" x1="496.269" y1="443.527" x2="678.891" y2="279.939"/><linearGradient xlink:href="#e" id="bu" gradientUnits="userSpaceOnUse" gradientTransform="rotate(60 -11.325 66.024) scale(.09265)" x1="576.397" y1="309.597" x2="690.02" y2="306.258"/><linearGradient xlink:href="#f" id="bv" gradientUnits="userSpaceOnUse" gradientTransform="rotate(60 15.059 81.256) scale(.35017)" x1="152.52" y1="142.106" x2="150.474" y2="191.086"/><linearGradient xlink:href="#d" id="bw" gradientUnits="userSpaceOnUse" gradientTransform="rotate(60 -11.325 66.024) scale(.09265)" x1="496.269" y1="443.527" x2="678.891" y2="279.939"/><linearGradient xlink:href="#e" id="bx" gradientUnits="userSpaceOnUse" gradientTransform="rotate(60 -11.325 66.024) scale(.09265)" x1="576.397" y1="309.597" x2="690.02" y2="306.258"/><linearGradient xlink:href="#f" id="by" gradientUnits="userSpaceOnUse" gradientTransform="rotate(60 15.059 81.256) scale(.35017)" x1="152.52" y1="142.106" x2="150.474" y2="191.086"/><linearGradient xlink:href="#d" id="bz" gradientUnits="userSpaceOnUse" gradientTransform="rotate(60 -11.325 66.024) scale(.09265)" x1="496.269" y1="443.527" x2="678.891" y2="279.939"/><linearGradient xlink:href="#e" id="bA" gradientUnits="userSpaceOnUse" gradientTransform="rotate(60 -11.325 66.024) scale(.09265)" x1="576.397" y1="309.597" x2="690.02" y2="306.258"/><linearGradient xlink:href="#f" id="bB" gradientUnits="userSpaceOnUse" gradientTransform="rotate(60 15.059 81.256) scale(.35017)" x1="152.52" y1="142.106" x2="150.474" y2="191.086"/><linearGradient xlink:href="#d" id="bC" gradientUnits="userSpaceOnUse" gradientTransform="rotate(60 -11.325 66.024) scale(.09265)" x1="496.269" y1="443.527" x2="678.891" y2="279.939"/><linearGradient xlink:href="#e" id="bD" gradientUnits="userSpaceOnUse" gradientTransform="rotate(60 -11.325 66.024) scale(.09265)" x1="576.397" y1="309.597" x2="690.02" y2="306.258"/><linearGradient xlink:href="#f" id="bE" gradientUnits="userSpaceOnUse" gradientTransform="rotate(60 15.059 81.256) scale(.35017)" x1="152.52" y1="142.106" x2="150.474" y2="191.086"/><linearGradient xlink:href="#d" id="bF" gradientUnits="userSpaceOnUse" gradientTransform="rotate(60 -11.325 66.024) scale(.09265)" x1="496.269" y1="443.527" x2="678.891" y2="279.939"/><linearGradient xlink:href="#e" id="bG" gradientUnits="userSpaceOnUse" gradientTransform="rotate(60 -11.325 66.024) scale(.09265)" x1="576.397" y1="309.597" x2="690.02" y2="306.258"/><linearGradient xlink:href="#f" id="bH" gradientUnits="userSpaceOnUse" gradientTransform="rotate(60 15.059 81.256) scale(.35017)" x1="152.52" y1="142.106" x2="150.474" y2="191.086"/><linearGradient xlink:href="#d" id="bI" gradientUnits="userSpaceOnUse" gradientTransform="rotate(60 -11.325 66.024) scale(.09265)" x1="496.269" y1="443.527" x2="678.891" y2="279.939"/><linearGradient xlink:href="#e" id="bJ" gradientUnits="userSpaceOnUse" gradientTransform="rotate(60 -11.325 66.024) scale(.09265)" x1="576.397" y1="309.597" x2="690.02" y2="306.258"/><linearGradient xlink:href="#f" id="bK" gradientUnits="userSpaceOnUse" gradientTransform="rotate(60 15.059 81.256) scale(.35017)" x1="152.52" y1="142.106" x2="150.474" y2="191.086"/><linearGradient xlink:href="#d" id="bL" gradientUnits="userSpaceOnUse" gradientTransform="rotate(60 -11.325 66.024) scale(.09265)" x1="496.269" y1="443.527" x2="678.891" y2="279.939"/><linearGradient xlink:href="#e" id="bM" gradientUnits="userSpaceOnUse" gradientTransform="rotate(60 -11.325 66.024) scale(.09265)" x1="576.397" y1="309.597" x2="690.02" y2="306.258"/><linearGradient xlink:href="#f" id="bN" gradientUnits="userSpaceOnUse" gradientTransform="rotate(60 15.059 81.256) scale(.35017)" x1="152.52" y1="142.106" x2="150.474" y2="191.086"/><linearGradient xlink:href="#d" id="bO" gradientUnits="userSpaceOnUse" gradientTransform="rotate(60 -11.325 66.024) scale(.09265)" x1="496.269" y1="443.527" x2="678.891" y2="279.939"/><linearGradient xlink:href="#e" id="bP" gradientUnits="userSpaceOnUse" gradientTransform="rotate(60 -11.325 66.024) scale(.09265)" x1="576.397" y1="309.597" x2="690.02" y2="306.258"/><linearGradient xlink:href="#f" id="bQ" gradientUnits="userSpaceOnUse" gradientTransform="rotate(60 15.059 81.256) scale(.35017)" x1="152.52" y1="142.106" x2="150.474" y2="191.086"/><linearGradient xlink:href="#d" id="bR" gradientUnits="userSpaceOnUse" gradientTransform="rotate(60 -11.325 66.024) scale(.09265)" x1="496.269" y1="443.527" x2="678.891" y2="279.939"/><linearGradient xlink:href="#e" id="bS" gradientUnits="userSpaceOnUse" gradientTransform="rotate(60 -11.325 66.024) scale(.09265)" x1="576.397" y1="309.597" x2="690.02" y2="306.258"/><linearGradient xlink:href="#f" id="bT" gradientUnits="userSpaceOnUse" gradientTransform="rotate(60 15.059 81.256) scale(.35017)" x1="152.52" y1="142.106" x2="150.474" y2="191.086"/><linearGradient xlink:href="#d" id="bU" gradientUnits="userSpaceOnUse" gradientTransform="rotate(60 -11.325 66.024) scale(.09265)" x1="496.269" y1="443.527" x2="678.891" y2="279.939"/><linearGradient xlink:href="#e" id="bV" gradientUnits="userSpaceOnUse" gradientTransform="rotate(60 -11.325 66.024) scale(.09265)" x1="576.397" y1="309.597" x2="690.02" y2="306.258"/><linearGradient xlink:href="#f" id="bW" gradientUnits="userSpaceOnUse" gradientTransform="rotate(60 15.059 81.256) scale(.35017)" x1="152.52" y1="142.106" x2="150.474" y2="191.086"/><linearGradient xlink:href="#d" id="bX" gradientUnits="userSpaceOnUse" gradientTransform="rotate(60 -11.325 66.024) scale(.09265)" x1="496.269" y1="443.527" x2="678.891" y2="279.939"/><linearGradient xlink:href="#e" id="bY" gradientUnits="userSpaceOnUse" gradientTransform="rotate(60 -11.325 66.024) scale(.09265)" x1="576.397" y1="309.597" x2="690.02" y2="306.258"/><linearGradient xlink:href="#f" id="bZ" gradientUnits="userSpaceOnUse" gradientTransform="rotate(60 15.059 81.256) scale(.35017)" x1="152.52" y1="142.106" x2="150.474" y2="191.086"/></defs><path fill="#f9f9f9" stroke-width=".965" stroke-linecap="round" d="M0 0h508v285.75H0z"/><path d="M455.448 156.423H439.6l7.925 13.726zm-4.683 2.704l-3.241 5.613-3.241-5.613zM46.478 245.625H30.63l7.925 13.726zm-4.683 2.704l-3.241 5.614-3.241-5.614zm81.79-206.811h-15.849l7.925 13.726zm-4.683 2.704l-3.241 5.614-3.241-5.614zm283.63-7.996h-15.85l7.925 13.726zm-4.684 2.705l-3.24 5.613-3.242-5.613zM365.49 252.429h-15.85l7.925 13.726zm-4.684 2.704l-3.24 5.613-3.241-5.613zM51.014 136.012h-15.85l7.925 13.726zm-4.684 2.704l-3.24 5.614-3.242-5.614z" opacity=".349" fill="#4ba6bd" stroke-width=".202" stroke-linecap="round" stroke-linejoin="round" stroke-dasharray=".80817507,.80817507"/><g stroke-width=".093"><g opacity=".349"><path d="M69.242 94.257l-15.162 26.26-2.577-4.464-7.429-12.867h-5.155l10.006 17.332 2.578 4.464 2.578 4.465L71.82 98.72zm-30.323 0h-5.155 5.155z" fill="url(#g)" transform="rotate(-30.445 -26.951 67.726) scale(.81396)"/><path d="M69.242 94.257H33.764l-2.578 4.464H61.51l-10.007 17.332 2.577 4.465L66.665 98.72z" fill="url(#h)" transform="rotate(-30.445 -26.951 67.726) scale(.81396)"/><path d="M31.186 98.721l15.162 26.261 2.577 4.465h5.156l-2.578-4.465-2.578-4.464-10.006-17.332h20.013l2.578-4.465H36.34z" fill="url(#i)" transform="rotate(-30.445 -26.951 67.726) scale(.81396)"/></g><g opacity=".349"><path d="M69.242 94.257l-15.162 26.26-2.577-4.464-7.429-12.867h-5.155l10.006 17.332 2.578 4.464 2.578 4.465L71.82 98.72zm-30.323 0h-5.155 5.155z" fill="url(#g)" transform="rotate(-30.445 -26.951 67.726) scale(.81396)"/><path d="M69.242 94.257H33.764l-2.578 4.464H61.51l-10.007 17.332 2.577 4.465L66.665 98.72z" fill="url(#h)" transform="rotate(-30.445 -26.951 67.726) scale(.81396)"/><path d="M31.186 98.721l15.162 26.261 2.577 4.465h5.156l-2.578-4.465-2.578-4.464-10.006-17.332h20.013l2.578-4.465H36.34z" fill="url(#i)" transform="rotate(-30.445 -26.951 67.726) scale(.81396)"/></g><g opacity=".349"><path d="M69.242 94.257l-15.162 26.26-2.577-4.464-7.429-12.867h-5.155l10.006 17.332 2.578 4.464 2.578 4.465L71.82 98.72zm-30.323 0h-5.155 5.155z" fill="url(#g)" transform="rotate(-30.445 -26.951 67.726) scale(.81396)"/><path d="M69.242 94.257H33.764l-2.578 4.464H61.51l-10.007 17.332 2.577 4.465L66.665 98.72z" fill="url(#h)" transform="rotate(-30.445 -26.951 67.726) scale(.81396)"/><path d="M31.186 98.721l15.162 26.261 2.577 4.465h5.156l-2.578-4.465-2.578-4.464-10.006-17.332h20.013l2.578-4.465H36.34z" fill="url(#i)" transform="rotate(-30.445 -26.951 67.726) scale(.81396)"/></g><g opacity=".349"><path d="M69.242 94.257l-15.162 26.26-2.577-4.464-7.429-12.867h-5.155l10.006 17.332 2.578 4.464 2.578 4.465L71.82 98.72zm-30.323 0h-5.155 5.155z" fill="url(#g)" transform="rotate(-30.445 -26.951 67.726) scale(.81396)"/><path d="M69.242 94.257H33.764l-2.578 4.464H61.51l-10.007 17.332 2.577 4.465L66.665 98.72z" fill="url(#h)" transform="rotate(-30.445 -26.951 67.726) scale(.81396)"/><path d="M31.186 98.721l15.162 26.261 2.577 4.465h5.156l-2.578-4.465-2.578-4.464-10.006-17.332h20.013l2.578-4.465H36.34z" fill="url(#i)" transform="rotate(-30.445 -26.951 67.726) scale(.81396)"/></g><g opacity=".349"><path d="M69.242 94.257l-15.162 26.26-2.577-4.464-7.429-12.867h-5.155l10.006 17.332 2.578 4.464 2.578 4.465L71.82 98.72zm-30.323 0h-5.155 5.155z" fill="url(#g)" transform="rotate(-30.445 -26.951 67.726) scale(.81396)"/><path d="M69.242 94.257H33.764l-2.578 4.464H61.51l-10.007 17.332 2.577 4.465L66.665 98.72z" fill="url(#h)" transform="rotate(-30.445 -26.951 67.726) scale(.81396)"/><path d="M31.186 98.721l15.162 26.261 2.577 4.465h5.156l-2.578-4.465-2.578-4.464-10.006-17.332h20.013l2.578-4.465H36.34z" fill="url(#i)" transform="rotate(-30.445 -26.951 67.726) scale(.81396)"/></g><g opacity=".349"><path d="M69.242 94.257l-15.162 26.26-2.577-4.464-7.429-12.867h-5.155l10.006 17.332 2.578 4.464 2.578 4.465L71.82 98.72zm-30.323 0h-5.155 5.155z" fill="url(#g)" transform="rotate(-30.445 -26.951 67.726) scale(.81396)"/><path d="M69.242 94.257H33.764l-2.578 4.464H61.51l-10.007 17.332 2.577 4.465L66.665 98.72z" fill="url(#h)" transform="rotate(-30.445 -26.951 67.726) scale(.81396)"/><path d="M31.186 98.721l15.162 26.261 2.577 4.465h5.156l-2.578-4.465-2.578-4.464-10.006-17.332h20.013l2.578-4.465H36.34z" fill="url(#i)" transform="rotate(-30.445 -26.951 67.726) scale(.81396)"/></g><g opacity=".349"><path d="M69.242 94.257l-15.162 26.26-2.577-4.464-7.429-12.867h-5.155l10.006 17.332 2.578 4.464 2.578 4.465L71.82 98.72zm-30.323 0h-5.155 5.155z" fill="url(#g)" transform="rotate(-30.445 -26.951 67.726) scale(.81396)"/><path d="M69.242 94.257H33.764l-2.578 4.464H61.51l-10.007 17.332 2.577 4.465L66.665 98.72z" fill="url(#h)" transform="rotate(-30.445 -26.951 67.726) scale(.81396)"/><path d="M31.186 98.721l15.162 26.261 2.577 4.465h5.156l-2.578-4.465-2.578-4.464-10.006-17.332h20.013l2.578-4.465H36.34z" fill="url(#i)" transform="rotate(-30.445 -26.951 67.726) scale(.81396)"/></g></g><g stroke-width=".093"><g opacity=".349"><path d="M69.242 94.257l-15.162 26.26-2.577-4.464-7.429-12.867h-5.155l10.006 17.332 2.578 4.464 2.578 4.465L71.82 98.72zm-30.323 0h-5.155 5.155z" fill="url(#j)" transform="rotate(-30.445 562.516 -623.731) scale(.81395)"/><path d="M69.242 94.257H33.764l-2.578 4.464H61.51l-10.007 17.332 2.577 4.465L66.665 98.72z" fill="url(#k)" transform="rotate(-30.445 562.516 -623.731) scale(.81395)"/><path d="M31.186 98.721l15.162 26.261 2.577 4.465h5.156l-2.578-4.465-2.578-4.464-10.006-17.332h20.013l2.578-4.465H36.34z" fill="url(#l)" transform="rotate(-30.445 562.516 -623.731) scale(.81395)"/></g><g opacity=".349"><path d="M69.242 94.257l-15.162 26.26-2.577-4.464-7.429-12.867h-5.155l10.006 17.332 2.578 4.464 2.578 4.465L71.82 98.72zm-30.323 0h-5.155 5.155z" fill="url(#m)" transform="rotate(-30.445 562.516 -623.731) scale(.81395)"/><path d="M69.242 94.257H33.764l-2.578 4.464H61.51l-10.007 17.332 2.577 4.465L66.665 98.72z" fill="url(#n)" transform="rotate(-30.445 562.516 -623.731) scale(.81395)"/><path d="M31.186 98.721l15.162 26.261 2.577 4.465h5.156l-2.578-4.465-2.578-4.464-10.006-17.332h20.013l2.578-4.465H36.34z" fill="url(#o)" transform="rotate(-30.445 562.516 -623.731) scale(.81395)"/></g><g opacity=".349"><path d="M69.242 94.257l-15.162 26.26-2.577-4.464-7.429-12.867h-5.155l10.006 17.332 2.578 4.464 2.578 4.465L71.82 98.72zm-30.323 0h-5.155 5.155z" fill="url(#p)" transform="rotate(-30.445 562.516 -623.731) scale(.81395)"/><path d="M69.242 94.257H33.764l-2.578 4.464H61.51l-10.007 17.332 2.577 4.465L66.665 98.72z" fill="url(#q)" transform="rotate(-30.445 562.516 -623.731) scale(.81395)"/><path d="M31.186 98.721l15.162 26.261 2.577 4.465h5.156l-2.578-4.465-2.578-4.464-10.006-17.332h20.013l2.578-4.465H36.34z" fill="url(#r)" transform="rotate(-30.445 562.516 -623.731) scale(.81395)"/></g><g opacity=".349"><path d="M69.242 94.257l-15.162 26.26-2.577-4.464-7.429-12.867h-5.155l10.006 17.332 2.578 4.464 2.578 4.465L71.82 98.72zm-30.323 0h-5.155 5.155z" fill="url(#s)" transform="rotate(-30.445 562.516 -623.731) scale(.81395)"/><path d="M69.242 94.257H33.764l-2.578 4.464H61.51l-10.007 17.332 2.577 4.465L66.665 98.72z" fill="url(#t)" transform="rotate(-30.445 562.516 -623.731) scale(.81395)"/><path d="M31.186 98.721l15.162 26.261 2.577 4.465h5.156l-2.578-4.465-2.578-4.464-10.006-17.332h20.013l2.578-4.465H36.34z" fill="url(#u)" transform="rotate(-30.445 562.516 -623.731) scale(.81395)"/></g><g opacity=".349"><path d="M69.242 94.257l-15.162 26.26-2.577-4.464-7.429-12.867h-5.155l10.006 17.332 2.578 4.464 2.578 4.465L71.82 98.72zm-30.323 0h-5.155 5.155z" fill="url(#v)" transform="rotate(-30.445 562.516 -623.731) scale(.81395)"/><path d="M69.242 94.257H33.764l-2.578 4.464H61.51l-10.007 17.332 2.577 4.465L66.665 98.72z" fill="url(#w)" transform="rotate(-30.445 562.516 -623.731) scale(.81395)"/><path d="M31.186 98.721l15.162 26.261 2.577 4.465h5.156l-2.578-4.465-2.578-4.464-10.006-17.332h20.013l2.578-4.465H36.34z" fill="url(#x)" transform="rotate(-30.445 562.516 -623.731) scale(.81395)"/></g><g opacity=".349"><path d="M69.242 94.257l-15.162 26.26-2.577-4.464-7.429-12.867h-5.155l10.006 17.332 2.578 4.464 2.578 4.465L71.82 98.72zm-30.323 0h-5.155 5.155z" fill="url(#y)" transform="rotate(-30.445 562.516 -623.731) scale(.81395)"/><path d="M69.242 94.257H33.764l-2.578 4.464H61.51l-10.007 17.332 2.577 4.465L66.665 98.72z" fill="url(#z)" transform="rotate(-30.445 562.516 -623.731) scale(.81395)"/><path d="M31.186 98.721l15.162 26.261 2.577 4.465h5.156l-2.578-4.465-2.578-4.464-10.006-17.332h20.013l2.578-4.465H36.34z" fill="url(#A)" transform="rotate(-30.445 562.516 -623.731) scale(.81395)"/></g><g opacity=".349"><path d="M69.242 94.257l-15.162 26.26-2.577-4.464-7.429-12.867h-5.155l10.006 17.332 2.578 4.464 2.578 4.465L71.82 98.72zm-30.323 0h-5.155 5.155z" fill="url(#B)" transform="rotate(-30.445 562.516 -623.731) scale(.81395)"/><path d="M69.242 94.257H33.764l-2.578 4.464H61.51l-10.007 17.332 2.577 4.465L66.665 98.72z" fill="url(#C)" transform="rotate(-30.445 562.516 -623.731) scale(.81395)"/><path d="M31.186 98.721l15.162 26.261 2.577 4.465h5.156l-2.578-4.465-2.578-4.464-10.006-17.332h20.013l2.578-4.465H36.34z" fill="url(#D)" transform="rotate(-30.445 562.516 -623.731) scale(.81395)"/></g></g><g stroke-width=".093"><g opacity=".349"><path d="M69.242 94.257l-15.162 26.26-2.577-4.464-7.429-12.867h-5.155l10.006 17.332 2.578 4.464 2.578 4.465L71.82 98.72zm-30.323 0h-5.155 5.155z" fill="url(#E)" transform="rotate(-30.445 419.034 -38.886) scale(.6093)"/><path d="M69.242 94.257H33.764l-2.578 4.464H61.51l-10.007 17.332 2.577 4.465L66.665 98.72z" fill="url(#F)" transform="rotate(-30.445 419.034 -38.886) scale(.6093)"/><path d="M31.186 98.721l15.162 26.261 2.577 4.465h5.156l-2.578-4.465-2.578-4.464-10.006-17.332h20.013l2.578-4.465H36.34z" fill="url(#G)" transform="rotate(-30.445 419.034 -38.886) scale(.6093)"/></g><g opacity=".349"><path d="M69.242 94.257l-15.162 26.26-2.577-4.464-7.429-12.867h-5.155l10.006 17.332 2.578 4.464 2.578 4.465L71.82 98.72zm-30.323 0h-5.155 5.155z" fill="url(#H)" transform="rotate(-30.445 419.034 -38.886) scale(.6093)"/><path d="M69.242 94.257H33.764l-2.578 4.464H61.51l-10.007 17.332 2.577 4.465L66.665 98.72z" fill="url(#I)" transform="rotate(-30.445 419.034 -38.886) scale(.6093)"/><path d="M31.186 98.721l15.162 26.261 2.577 4.465h5.156l-2.578-4.465-2.578-4.464-10.006-17.332h20.013l2.578-4.465H36.34z" fill="url(#J)" transform="rotate(-30.445 419.034 -38.886) scale(.6093)"/></g><g opacity=".349"><path d="M69.242 94.257l-15.162 26.26-2.577-4.464-7.429-12.867h-5.155l10.006 17.332 2.578 4.464 2.578 4.465L71.82 98.72zm-30.323 0h-5.155 5.155z" fill="url(#K)" transform="rotate(-30.445 419.034 -38.886) scale(.6093)"/><path d="M69.242 94.257H33.764l-2.578 4.464H61.51l-10.007 17.332 2.577 4.465L66.665 98.72z" fill="url(#L)" transform="rotate(-30.445 419.034 -38.886) scale(.6093)"/><path d="M31.186 98.721l15.162 26.261 2.577 4.465h5.156l-2.578-4.465-2.578-4.464-10.006-17.332h20.013l2.578-4.465H36.34z" fill="url(#M)" transform="rotate(-30.445 419.034 -38.886) scale(.6093)"/></g><g opacity=".349"><path d="M69.242 94.257l-15.162 26.26-2.577-4.464-7.429-12.867h-5.155l10.006 17.332 2.578 4.464 2.578 4.465L71.82 98.72zm-30.323 0h-5.155 5.155z" fill="url(#N)" transform="rotate(-30.445 419.034 -38.886) scale(.6093)"/><path d="M69.242 94.257H33.764l-2.578 4.464H61.51l-10.007 17.332 2.577 4.465L66.665 98.72z" fill="url(#O)" transform="rotate(-30.445 419.034 -38.886) scale(.6093)"/><path d="M31.186 98.721l15.162 26.261 2.577 4.465h5.156l-2.578-4.465-2.578-4.464-10.006-17.332h20.013l2.578-4.465H36.34z" fill="url(#P)" transform="rotate(-30.445 419.034 -38.886) scale(.6093)"/></g><g opacity=".349"><path d="M69.242 94.257l-15.162 26.26-2.577-4.464-7.429-12.867h-5.155l10.006 17.332 2.578 4.464 2.578 4.465L71.82 98.72zm-30.323 0h-5.155 5.155z" fill="url(#Q)" transform="rotate(-30.445 419.034 -38.886) scale(.6093)"/><path d="M69.242 94.257H33.764l-2.578 4.464H61.51l-10.007 17.332 2.577 4.465L66.665 98.72z" fill="url(#R)" transform="rotate(-30.445 419.034 -38.886) scale(.6093)"/><path d="M31.186 98.721l15.162 26.261 2.577 4.465h5.156l-2.578-4.465-2.578-4.464-10.006-17.332h20.013l2.578-4.465H36.34z" fill="url(#S)" transform="rotate(-30.445 419.034 -38.886) scale(.6093)"/></g><g opacity=".349"><path d="M69.242 94.257l-15.162 26.26-2.577-4.464-7.429-12.867h-5.155l10.006 17.332 2.578 4.464 2.578 4.465L71.82 98.72zm-30.323 0h-5.155 5.155z" fill="url(#T)" transform="rotate(-30.445 419.034 -38.886) scale(.6093)"/><path d="M69.242 94.257H33.764l-2.578 4.464H61.51l-10.007 17.332 2.577 4.465L66.665 98.72z" fill="url(#U)" transform="rotate(-30.445 419.034 -38.886) scale(.6093)"/><path d="M31.186 98.721l15.162 26.261 2.577 4.465h5.156l-2.578-4.465-2.578-4.464-10.006-17.332h20.013l2.578-4.465H36.34z" fill="url(#V)" transform="rotate(-30.445 419.034 -38.886) scale(.6093)"/></g><g opacity=".349"><path d="M69.242 94.257l-15.162 26.26-2.577-4.464-7.429-12.867h-5.155l10.006 17.332 2.578 4.464 2.578 4.465L71.82 98.72zm-30.323 0h-5.155 5.155z" fill="url(#W)" transform="rotate(-30.445 419.034 -38.886) scale(.6093)"/><path d="M69.242 94.257H33.764l-2.578 4.464H61.51l-10.007 17.332 2.577 4.465L66.665 98.72z" fill="url(#X)" transform="rotate(-30.445 419.034 -38.886) scale(.6093)"/><path d="M31.186 98.721l15.162 26.261 2.577 4.465h5.156l-2.578-4.465-2.578-4.464-10.006-17.332h20.013l2.578-4.465H36.34z" fill="url(#Y)" transform="rotate(-30.445 419.034 -38.886) scale(.6093)"/></g></g><g stroke-width=".093"><g opacity=".349"><path d="M69.242 94.257l-15.162 26.26-2.577-4.464-7.429-12.867h-5.155l10.006 17.332 2.578 4.464 2.578 4.465L71.82 98.72zm-30.323 0h-5.155 5.155z" fill="url(#Z)" transform="rotate(-30.444 120.712 -455.748) scale(.60931)"/><path d="M69.242 94.257H33.764l-2.578 4.464H61.51l-10.007 17.332 2.577 4.465L66.665 98.72z" fill="url(#aa)" transform="rotate(-30.444 120.712 -455.748) scale(.60931)"/><path d="M31.186 98.721l15.162 26.261 2.577 4.465h5.156l-2.578-4.465-2.578-4.464-10.006-17.332h20.013l2.578-4.465H36.34z" fill="url(#ab)" transform="rotate(-30.444 120.712 -455.748) scale(.60931)"/></g><g opacity=".349"><path d="M69.242 94.257l-15.162 26.26-2.577-4.464-7.429-12.867h-5.155l10.006 17.332 2.578 4.464 2.578 4.465L71.82 98.72zm-30.323 0h-5.155 5.155z" fill="url(#ac)" transform="rotate(-30.444 120.712 -455.748) scale(.60931)"/><path d="M69.242 94.257H33.764l-2.578 4.464H61.51l-10.007 17.332 2.577 4.465L66.665 98.72z" fill="url(#ad)" transform="rotate(-30.444 120.712 -455.748) scale(.60931)"/><path d="M31.186 98.721l15.162 26.261 2.577 4.465h5.156l-2.578-4.465-2.578-4.464-10.006-17.332h20.013l2.578-4.465H36.34z" fill="url(#ae)" transform="rotate(-30.444 120.712 -455.748) scale(.60931)"/></g><g opacity=".349"><path d="M69.242 94.257l-15.162 26.26-2.577-4.464-7.429-12.867h-5.155l10.006 17.332 2.578 4.464 2.578 4.465L71.82 98.72zm-30.323 0h-5.155 5.155z" fill="url(#af)" transform="rotate(-30.444 120.712 -455.748) scale(.60931)"/><path d="M69.242 94.257H33.764l-2.578 4.464H61.51l-10.007 17.332 2.577 4.465L66.665 98.72z" fill="url(#ag)" transform="rotate(-30.444 120.712 -455.748) scale(.60931)"/><path d="M31.186 98.721l15.162 26.261 2.577 4.465h5.156l-2.578-4.465-2.578-4.464-10.006-17.332h20.013l2.578-4.465H36.34z" fill="url(#ah)" transform="rotate(-30.444 120.712 -455.748) scale(.60931)"/></g><g opacity=".349"><path d="M69.242 94.257l-15.162 26.26-2.577-4.464-7.429-12.867h-5.155l10.006 17.332 2.578 4.464 2.578 4.465L71.82 98.72zm-30.323 0h-5.155 5.155z" fill="url(#ai)" transform="rotate(-30.444 120.712 -455.748) scale(.60931)"/><path d="M69.242 94.257H33.764l-2.578 4.464H61.51l-10.007 17.332 2.577 4.465L66.665 98.72z" fill="url(#aj)" transform="rotate(-30.444 120.712 -455.748) scale(.60931)"/><path d="M31.186 98.721l15.162 26.261 2.577 4.465h5.156l-2.578-4.465-2.578-4.464-10.006-17.332h20.013l2.578-4.465H36.34z" fill="url(#ak)" transform="rotate(-30.444 120.712 -455.748) scale(.60931)"/></g><g opacity=".349"><path d="M69.242 94.257l-15.162 26.26-2.577-4.464-7.429-12.867h-5.155l10.006 17.332 2.578 4.464 2.578 4.465L71.82 98.72zm-30.323 0h-5.155 5.155z" fill="url(#al)" transform="rotate(-30.444 120.712 -455.748) scale(.60931)"/><path d="M69.242 94.257H33.764l-2.578 4.464H61.51l-10.007 17.332 2.577 4.465L66.665 98.72z" fill="url(#am)" transform="rotate(-30.444 120.712 -455.748) scale(.60931)"/><path d="M31.186 98.721l15.162 26.261 2.577 4.465h5.156l-2.578-4.465-2.578-4.464-10.006-17.332h20.013l2.578-4.465H36.34z" fill="url(#an)" transform="rotate(-30.444 120.712 -455.748) scale(.60931)"/></g><g opacity=".349"><path d="M69.242 94.257l-15.162 26.26-2.577-4.464-7.429-12.867h-5.155l10.006 17.332 2.578 4.464 2.578 4.465L71.82 98.72zm-30.323 0h-5.155 5.155z" fill="url(#ao)" transform="rotate(-30.444 120.712 -455.748) scale(.60931)"/><path d="M69.242 94.257H33.764l-2.578 4.464H61.51l-10.007 17.332 2.577 4.465L66.665 98.72z" fill="url(#ap)" transform="rotate(-30.444 120.712 -455.748) scale(.60931)"/><path d="M31.186 98.721l15.162 26.261 2.577 4.465h5.156l-2.578-4.465-2.578-4.464-10.006-17.332h20.013l2.578-4.465H36.34z" fill="url(#aq)" transform="rotate(-30.444 120.712 -455.748) scale(.60931)"/></g><g opacity=".349"><path d="M69.242 94.257l-15.162 26.26-2.577-4.464-7.429-12.867h-5.155l10.006 17.332 2.578 4.464 2.578 4.465L71.82 98.72zm-30.323 0h-5.155 5.155z" fill="url(#ar)" transform="rotate(-30.444 120.712 -455.748) scale(.60931)"/><path d="M69.242 94.257H33.764l-2.578 4.464H61.51l-10.007 17.332 2.577 4.465L66.665 98.72z" fill="url(#as)" transform="rotate(-30.444 120.712 -455.748) scale(.60931)"/><path d="M31.186 98.721l15.162 26.261 2.577 4.465h5.156l-2.578-4.465-2.578-4.464-10.006-17.332h20.013l2.578-4.465H36.34z" fill="url(#at)" transform="rotate(-30.444 120.712 -455.748) scale(.60931)"/></g></g><g stroke-width=".093"><g opacity=".349"><path d="M69.242 94.257l-15.162 26.26-2.577-4.464-7.429-12.867h-5.155l10.006 17.332 2.578 4.464 2.578 4.465L71.82 98.72zm-30.323 0h-5.155 5.155z" fill="url(#au)" transform="rotate(-30.444 256.148 -739.652) scale(.60931)"/><path d="M69.242 94.257H33.764l-2.578 4.464H61.51l-10.007 17.332 2.577 4.465L66.665 98.72z" fill="url(#av)" transform="rotate(-30.444 256.148 -739.652) scale(.60931)"/><path d="M31.186 98.721l15.162 26.261 2.577 4.465h5.156l-2.578-4.465-2.578-4.464-10.006-17.332h20.013l2.578-4.465H36.34z" fill="url(#aw)" transform="rotate(-30.444 256.148 -739.652) scale(.60931)"/></g><g opacity=".349"><path d="M69.242 94.257l-15.162 26.26-2.577-4.464-7.429-12.867h-5.155l10.006 17.332 2.578 4.464 2.578 4.465L71.82 98.72zm-30.323 0h-5.155 5.155z" fill="url(#ax)" transform="rotate(-30.444 256.148 -739.652) scale(.60931)"/><path d="M69.242 94.257H33.764l-2.578 4.464H61.51l-10.007 17.332 2.577 4.465L66.665 98.72z" fill="url(#ay)" transform="rotate(-30.444 256.148 -739.652) scale(.60931)"/><path d="M31.186 98.721l15.162 26.261 2.577 4.465h5.156l-2.578-4.465-2.578-4.464-10.006-17.332h20.013l2.578-4.465H36.34z" fill="url(#az)" transform="rotate(-30.444 256.148 -739.652) scale(.60931)"/></g><g opacity=".349"><path d="M69.242 94.257l-15.162 26.26-2.577-4.464-7.429-12.867h-5.155l10.006 17.332 2.578 4.464 2.578 4.465L71.82 98.72zm-30.323 0h-5.155 5.155z" fill="url(#aA)" transform="rotate(-30.444 256.148 -739.652) scale(.60931)"/><path d="M69.242 94.257H33.764l-2.578 4.464H61.51l-10.007 17.332 2.577 4.465L66.665 98.72z" fill="url(#aB)" transform="rotate(-30.444 256.148 -739.652) scale(.60931)"/><path d="M31.186 98.721l15.162 26.261 2.577 4.465h5.156l-2.578-4.465-2.578-4.464-10.006-17.332h20.013l2.578-4.465H36.34z" fill="url(#aC)" transform="rotate(-30.444 256.148 -739.652) scale(.60931)"/></g><g opacity=".349"><path d="M69.242 94.257l-15.162 26.26-2.577-4.464-7.429-12.867h-5.155l10.006 17.332 2.578 4.464 2.578 4.465L71.82 98.72zm-30.323 0h-5.155 5.155z" fill="url(#aD)" transform="rotate(-30.444 256.148 -739.652) scale(.60931)"/><path d="M69.242 94.257H33.764l-2.578 4.464H61.51l-10.007 17.332 2.577 4.465L66.665 98.72z" fill="url(#aE)" transform="rotate(-30.444 256.148 -739.652) scale(.60931)"/><path d="M31.186 98.721l15.162 26.261 2.577 4.465h5.156l-2.578-4.465-2.578-4.464-10.006-17.332h20.013l2.578-4.465H36.34z" fill="url(#aF)" transform="rotate(-30.444 256.148 -739.652) scale(.60931)"/></g><g opacity=".349"><path d="M69.242 94.257l-15.162 26.26-2.577-4.464-7.429-12.867h-5.155l10.006 17.332 2.578 4.464 2.578 4.465L71.82 98.72zm-30.323 0h-5.155 5.155z" fill="url(#aG)" transform="rotate(-30.444 256.148 -739.652) scale(.60931)"/><path d="M69.242 94.257H33.764l-2.578 4.464H61.51l-10.007 17.332 2.577 4.465L66.665 98.72z" fill="url(#aH)" transform="rotate(-30.444 256.148 -739.652) scale(.60931)"/><path d="M31.186 98.721l15.162 26.261 2.577 4.465h5.156l-2.578-4.465-2.578-4.464-10.006-17.332h20.013l2.578-4.465H36.34z" fill="url(#aI)" transform="rotate(-30.444 256.148 -739.652) scale(.60931)"/></g><g opacity=".349"><path d="M69.242 94.257l-15.162 26.26-2.577-4.464-7.429-12.867h-5.155l10.006 17.332 2.578 4.464 2.578 4.465L71.82 98.72zm-30.323 0h-5.155 5.155z" fill="url(#aJ)" transform="rotate(-30.444 256.148 -739.652) scale(.60931)"/><path d="M69.242 94.257H33.764l-2.578 4.464H61.51l-10.007 17.332 2.577 4.465L66.665 98.72z" fill="url(#aK)" transform="rotate(-30.444 256.148 -739.652) scale(.60931)"/><path d="M31.186 98.721l15.162 26.261 2.577 4.465h5.156l-2.578-4.465-2.578-4.464-10.006-17.332h20.013l2.578-4.465H36.34z" fill="url(#aL)" transform="rotate(-30.444 256.148 -739.652) scale(.60931)"/></g><g opacity=".349"><path d="M69.242 94.257l-15.162 26.26-2.577-4.464-7.429-12.867h-5.155l10.006 17.332 2.578 4.464 2.578 4.465L71.82 98.72zm-30.323 0h-5.155 5.155z" fill="url(#aM)" transform="rotate(-30.444 256.148 -739.652) scale(.60931)"/><path d="M69.242 94.257H33.764l-2.578 4.464H61.51l-10.007 17.332 2.577 4.465L66.665 98.72z" fill="url(#aN)" transform="rotate(-30.444 256.148 -739.652) scale(.60931)"/><path d="M31.186 98.721l15.162 26.261 2.577 4.465h5.156l-2.578-4.465-2.578-4.464-10.006-17.332h20.013l2.578-4.465H36.34z" fill="url(#aO)" transform="rotate(-30.444 256.148 -739.652) scale(.60931)"/></g></g><g stroke-width=".093"><g opacity=".349"><path d="M69.242 94.257l-15.162 26.26-2.577-4.464-7.429-12.867h-5.155l10.006 17.332 2.578 4.464 2.578 4.465L71.82 98.72zm-30.323 0h-5.155 5.155z" fill="url(#aP)" transform="matrix(.15654 -.092 .092 .15654 129.261 84.602)"/><path d="M69.242 94.257H33.764l-2.578 4.464H61.51l-10.007 17.332 2.577 4.465L66.665 98.72z" fill="url(#aQ)" transform="matrix(.15654 -.092 .092 .15654 129.261 84.602)"/><path d="M31.186 98.721l15.162 26.261 2.577 4.465h5.156l-2.578-4.465-2.578-4.464-10.006-17.332h20.013l2.578-4.465H36.34z" fill="url(#aR)" transform="matrix(.15654 -.092 .092 .15654 129.261 84.602)"/></g><g opacity=".349"><path d="M69.242 94.257l-15.162 26.26-2.577-4.464-7.429-12.867h-5.155l10.006 17.332 2.578 4.464 2.578 4.465L71.82 98.72zm-30.323 0h-5.155 5.155z" fill="url(#aS)" transform="matrix(.15654 -.092 .092 .15654 129.261 84.602)"/><path d="M69.242 94.257H33.764l-2.578 4.464H61.51l-10.007 17.332 2.577 4.465L66.665 98.72z" fill="url(#aT)" transform="matrix(.15654 -.092 .092 .15654 129.261 84.602)"/><path d="M31.186 98.721l15.162 26.261 2.577 4.465h5.156l-2.578-4.465-2.578-4.464-10.006-17.332h20.013l2.578-4.465H36.34z" fill="url(#aU)" transform="matrix(.15654 -.092 .092 .15654 129.261 84.602)"/></g><g opacity=".349"><path d="M69.242 94.257l-15.162 26.26-2.577-4.464-7.429-12.867h-5.155l10.006 17.332 2.578 4.464 2.578 4.465L71.82 98.72zm-30.323 0h-5.155 5.155z" fill="url(#aV)" transform="matrix(.15654 -.092 .092 .15654 129.261 84.602)"/><path d="M69.242 94.257H33.764l-2.578 4.464H61.51l-10.007 17.332 2.577 4.465L66.665 98.72z" fill="url(#aW)" transform="matrix(.15654 -.092 .092 .15654 129.261 84.602)"/><path d="M31.186 98.721l15.162 26.261 2.577 4.465h5.156l-2.578-4.465-2.578-4.464-10.006-17.332h20.013l2.578-4.465H36.34z" fill="url(#aX)" transform="matrix(.15654 -.092 .092 .15654 129.261 84.602)"/></g><g opacity=".349"><path d="M69.242 94.257l-15.162 26.26-2.577-4.464-7.429-12.867h-5.155l10.006 17.332 2.578 4.464 2.578 4.465L71.82 98.72zm-30.323 0h-5.155 5.155z" fill="url(#aY)" transform="matrix(.15654 -.092 .092 .15654 129.261 84.602)"/><path d="M69.242 94.257H33.764l-2.578 4.464H61.51l-10.007 17.332 2.577 4.465L66.665 98.72z" fill="url(#aZ)" transform="matrix(.15654 -.092 .092 .15654 129.261 84.602)"/><path d="M31.186 98.721l15.162 26.261 2.577 4.465h5.156l-2.578-4.465-2.578-4.464-10.006-17.332h20.013l2.578-4.465H36.34z" fill="url(#ba)" transform="matrix(.15654 -.092 .092 .15654 129.261 84.602)"/></g><g opacity=".349"><path d="M69.242 94.257l-15.162 26.26-2.577-4.464-7.429-12.867h-5.155l10.006 17.332 2.578 4.464 2.578 4.465L71.82 98.72zm-30.323 0h-5.155 5.155z" fill="url(#bb)" transform="matrix(.15654 -.092 .092 .15654 129.261 84.602)"/><path d="M69.242 94.257H33.764l-2.578 4.464H61.51l-10.007 17.332 2.577 4.465L66.665 98.72z" fill="url(#bc)" transform="matrix(.15654 -.092 .092 .15654 129.261 84.602)"/><path d="M31.186 98.721l15.162 26.261 2.577 4.465h5.156l-2.578-4.465-2.578-4.464-10.006-17.332h20.013l2.578-4.465H36.34z" fill="url(#bd)" transform="matrix(.15654 -.092 .092 .15654 129.261 84.602)"/></g><g opacity=".349"><path d="M69.242 94.257l-15.162 26.26-2.577-4.464-7.429-12.867h-5.155l10.006 17.332 2.578 4.464 2.578 4.465L71.82 98.72zm-30.323 0h-5.155 5.155z" fill="url(#be)" transform="matrix(.15654 -.092 .092 .15654 129.261 84.602)"/><path d="M69.242 94.257H33.764l-2.578 4.464H61.51l-10.007 17.332 2.577 4.465L66.665 98.72z" fill="url(#bf)" transform="matrix(.15654 -.092 .092 .15654 129.261 84.602)"/><path d="M31.186 98.721l15.162 26.261 2.577 4.465h5.156l-2.578-4.465-2.578-4.464-10.006-17.332h20.013l2.578-4.465H36.34z" fill="url(#bg)" transform="matrix(.15654 -.092 .092 .15654 129.261 84.602)"/></g><g opacity=".349"><path d="M69.242 94.257l-15.162 26.26-2.577-4.464-7.429-12.867h-5.155l10.006 17.332 2.578 4.464 2.578 4.465L71.82 98.72zm-30.323 0h-5.155 5.155z" fill="url(#bh)" transform="matrix(.15654 -.092 .092 .15654 129.261 84.602)"/><path d="M69.242 94.257H33.764l-2.578 4.464H61.51l-10.007 17.332 2.577 4.465L66.665 98.72z" fill="url(#bi)" transform="matrix(.15654 -.092 .092 .15654 129.261 84.602)"/><path d="M31.186 98.721l15.162 26.261 2.577 4.465h5.156l-2.578-4.465-2.578-4.464-10.006-17.332h20.013l2.578-4.465H36.34z" fill="url(#bj)" transform="matrix(.15654 -.092 .092 .15654 129.261 84.602)"/></g></g><g stroke-width=".093"><g opacity=".349"><path d="M69.242 94.257l-15.162 26.26-2.577-4.464-7.429-12.867h-5.155l10.006 17.332 2.578 4.464 2.578 4.465L71.82 98.72zm-30.323 0h-5.155 5.155z" fill="url(#bk)" transform="matrix(.15654 -.092 .092 .15654 162.523 139.786)"/><path d="M69.242 94.257H33.764l-2.578 4.464H61.51l-10.007 17.332 2.577 4.465L66.665 98.72z" fill="url(#bl)" transform="matrix(.15654 -.092 .092 .15654 162.523 139.786)"/><path d="M31.186 98.721l15.162 26.261 2.577 4.465h5.156l-2.578-4.465-2.578-4.464-10.006-17.332h20.013l2.578-4.465H36.34z" fill="url(#bm)" transform="matrix(.15654 -.092 .092 .15654 162.523 139.786)"/></g><g opacity=".349"><path d="M69.242 94.257l-15.162 26.26-2.577-4.464-7.429-12.867h-5.155l10.006 17.332 2.578 4.464 2.578 4.465L71.82 98.72zm-30.323 0h-5.155 5.155z" fill="url(#bn)" transform="matrix(.15654 -.092 .092 .15654 162.523 139.786)"/><path d="M69.242 94.257H33.764l-2.578 4.464H61.51l-10.007 17.332 2.577 4.465L66.665 98.72z" fill="url(#bo)" transform="matrix(.15654 -.092 .092 .15654 162.523 139.786)"/><path d="M31.186 98.721l15.162 26.261 2.577 4.465h5.156l-2.578-4.465-2.578-4.464-10.006-17.332h20.013l2.578-4.465H36.34z" fill="url(#bp)" transform="matrix(.15654 -.092 .092 .15654 162.523 139.786)"/></g><g opacity=".349"><path d="M69.242 94.257l-15.162 26.26-2.577-4.464-7.429-12.867h-5.155l10.006 17.332 2.578 4.464 2.578 4.465L71.82 98.72zm-30.323 0h-5.155 5.155z" fill="url(#bq)" transform="matrix(.15654 -.092 .092 .15654 162.523 139.786)"/><path d="M69.242 94.257H33.764l-2.578 4.464H61.51l-10.007 17.332 2.577 4.465L66.665 98.72z" fill="url(#br)" transform="matrix(.15654 -.092 .092 .15654 162.523 139.786)"/><path d="M31.186 98.721l15.162 26.261 2.577 4.465h5.156l-2.578-4.465-2.578-4.464-10.006-17.332h20.013l2.578-4.465H36.34z" fill="url(#bs)" transform="matrix(.15654 -.092 .092 .15654 162.523 139.786)"/></g><g opacity=".349"><path d="M69.242 94.257l-15.162 26.26-2.577-4.464-7.429-12.867h-5.155l10.006 17.332 2.578 4.464 2.578 4.465L71.82 98.72zm-30.323 0h-5.155 5.155z" fill="url(#bt)" transform="matrix(.15654 -.092 .092 .15654 162.523 139.786)"/><path d="M69.242 94.257H33.764l-2.578 4.464H61.51l-10.007 17.332 2.577 4.465L66.665 98.72z" fill="url(#bu)" transform="matrix(.15654 -.092 .092 .15654 162.523 139.786)"/><path d="M31.186 98.721l15.162 26.261 2.577 4.465h5.156l-2.578-4.465-2.578-4.464-10.006-17.332h20.013l2.578-4.465H36.34z" fill="url(#bv)" transform="matrix(.15654 -.092 .092 .15654 162.523 139.786)"/></g><g opacity=".349"><path d="M69.242 94.257l-15.162 26.26-2.577-4.464-7.429-12.867h-5.155l10.006 17.332 2.578 4.464 2.578 4.465L71.82 98.72zm-30.323 0h-5.155 5.155z" fill="url(#bw)" transform="matrix(.15654 -.092 .092 .15654 162.523 139.786)"/><path d="M69.242 94.257H33.764l-2.578 4.464H61.51l-10.007 17.332 2.577 4.465L66.665 98.72z" fill="url(#bx)" transform="matrix(.15654 -.092 .092 .15654 162.523 139.786)"/><path d="M31.186 98.721l15.162 26.261 2.577 4.465h5.156l-2.578-4.465-2.578-4.464-10.006-17.332h20.013l2.578-4.465H36.34z" fill="url(#by)" transform="matrix(.15654 -.092 .092 .15654 162.523 139.786)"/></g><g opacity=".349"><path d="M69.242 94.257l-15.162 26.26-2.577-4.464-7.429-12.867h-5.155l10.006 17.332 2.578 4.464 2.578 4.465L71.82 98.72zm-30.323 0h-5.155 5.155z" fill="url(#bz)" transform="matrix(.15654 -.092 .092 .15654 162.523 139.786)"/><path d="M69.242 94.257H33.764l-2.578 4.464H61.51l-10.007 17.332 2.577 4.465L66.665 98.72z" fill="url(#bA)" transform="matrix(.15654 -.092 .092 .15654 162.523 139.786)"/><path d="M31.186 98.721l15.162 26.261 2.577 4.465h5.156l-2.578-4.465-2.578-4.464-10.006-17.332h20.013l2.578-4.465H36.34z" fill="url(#bB)" transform="matrix(.15654 -.092 .092 .15654 162.523 139.786)"/></g><g opacity=".349"><path d="M69.242 94.257l-15.162 26.26-2.577-4.464-7.429-12.867h-5.155l10.006 17.332 2.578 4.464 2.578 4.465L71.82 98.72zm-30.323 0h-5.155 5.155z" fill="url(#bC)" transform="matrix(.15654 -.092 .092 .15654 162.523 139.786)"/><path d="M69.242 94.257H33.764l-2.578 4.464H61.51l-10.007 17.332 2.577 4.465L66.665 98.72z" fill="url(#bD)" transform="matrix(.15654 -.092 .092 .15654 162.523 139.786)"/><path d="M31.186 98.721l15.162 26.261 2.577 4.465h5.156l-2.578-4.465-2.578-4.464-10.006-17.332h20.013l2.578-4.465H36.34z" fill="url(#bE)" transform="matrix(.15654 -.092 .092 .15654 162.523 139.786)"/></g></g><g stroke-width=".093"><g opacity=".349"><path d="M69.242 94.257l-15.162 26.26-2.577-4.464-7.429-12.867h-5.155l10.006 17.332 2.578 4.464 2.578 4.465L71.82 98.72zm-30.323 0h-5.155 5.155z" fill="url(#bF)" transform="matrix(.15654 -.092 .092 .15654 55.934 184.387)"/><path d="M69.242 94.257H33.764l-2.578 4.464H61.51l-10.007 17.332 2.577 4.465L66.665 98.72z" fill="url(#bG)" transform="matrix(.15654 -.092 .092 .15654 55.934 184.387)"/><path d="M31.186 98.721l15.162 26.261 2.577 4.465h5.156l-2.578-4.465-2.578-4.464-10.006-17.332h20.013l2.578-4.465H36.34z" fill="url(#bH)" transform="matrix(.15654 -.092 .092 .15654 55.934 184.387)"/></g><g opacity=".349"><path d="M69.242 94.257l-15.162 26.26-2.577-4.464-7.429-12.867h-5.155l10.006 17.332 2.578 4.464 2.578 4.465L71.82 98.72zm-30.323 0h-5.155 5.155z" fill="url(#bI)" transform="matrix(.15654 -.092 .092 .15654 55.934 184.387)"/><path d="M69.242 94.257H33.764l-2.578 4.464H61.51l-10.007 17.332 2.577 4.465L66.665 98.72z" fill="url(#bJ)" transform="matrix(.15654 -.092 .092 .15654 55.934 184.387)"/><path d="M31.186 98.721l15.162 26.261 2.577 4.465h5.156l-2.578-4.465-2.578-4.464-10.006-17.332h20.013l2.578-4.465H36.34z" fill="url(#bK)" transform="matrix(.15654 -.092 .092 .15654 55.934 184.387)"/></g><g opacity=".349"><path d="M69.242 94.257l-15.162 26.26-2.577-4.464-7.429-12.867h-5.155l10.006 17.332 2.578 4.464 2.578 4.465L71.82 98.72zm-30.323 0h-5.155 5.155z" fill="url(#bL)" transform="matrix(.15654 -.092 .092 .15654 55.934 184.387)"/><path d="M69.242 94.257H33.764l-2.578 4.464H61.51l-10.007 17.332 2.577 4.465L66.665 98.72z" fill="url(#bM)" transform="matrix(.15654 -.092 .092 .15654 55.934 184.387)"/><path d="M31.186 98.721l15.162 26.261 2.577 4.465h5.156l-2.578-4.465-2.578-4.464-10.006-17.332h20.013l2.578-4.465H36.34z" fill="url(#bN)" transform="matrix(.15654 -.092 .092 .15654 55.934 184.387)"/></g><g opacity=".349"><path d="M69.242 94.257l-15.162 26.26-2.577-4.464-7.429-12.867h-5.155l10.006 17.332 2.578 4.464 2.578 4.465L71.82 98.72zm-30.323 0h-5.155 5.155z" fill="url(#bO)" transform="matrix(.15654 -.092 .092 .15654 55.934 184.387)"/><path d="M69.242 94.257H33.764l-2.578 4.464H61.51l-10.007 17.332 2.577 4.465L66.665 98.72z" fill="url(#bP)" transform="matrix(.15654 -.092 .092 .15654 55.934 184.387)"/><path d="M31.186 98.721l15.162 26.261 2.577 4.465h5.156l-2.578-4.465-2.578-4.464-10.006-17.332h20.013l2.578-4.465H36.34z" fill="url(#bQ)" transform="matrix(.15654 -.092 .092 .15654 55.934 184.387)"/></g><g opacity=".349"><path d="M69.242 94.257l-15.162 26.26-2.577-4.464-7.429-12.867h-5.155l10.006 17.332 2.578 4.464 2.578 4.465L71.82 98.72zm-30.323 0h-5.155 5.155z" fill="url(#bR)" transform="matrix(.15654 -.092 .092 .15654 55.934 184.387)"/><path d="M69.242 94.257H33.764l-2.578 4.464H61.51l-10.007 17.332 2.577 4.465L66.665 98.72z" fill="url(#bS)" transform="matrix(.15654 -.092 .092 .15654 55.934 184.387)"/><path d="M31.186 98.721l15.162 26.261 2.577 4.465h5.156l-2.578-4.465-2.578-4.464-10.006-17.332h20.013l2.578-4.465H36.34z" fill="url(#bT)" transform="matrix(.15654 -.092 .092 .15654 55.934 184.387)"/></g><g opacity=".349"><path d="M69.242 94.257l-15.162 26.26-2.577-4.464-7.429-12.867h-5.155l10.006 17.332 2.578 4.464 2.578 4.465L71.82 98.72zm-30.323 0h-5.155 5.155z" fill="url(#bU)" transform="matrix(.15654 -.092 .092 .15654 55.934 184.387)"/><path d="M69.242 94.257H33.764l-2.578 4.464H61.51l-10.007 17.332 2.577 4.465L66.665 98.72z" fill="url(#bV)" transform="matrix(.15654 -.092 .092 .15654 55.934 184.387)"/><path d="M31.186 98.721l15.162 26.261 2.577 4.465h5.156l-2.578-4.465-2.578-4.464-10.006-17.332h20.013l2.578-4.465H36.34z" fill="url(#bW)" transform="matrix(.15654 -.092 .092 .15654 55.934 184.387)"/></g><g opacity=".349"><path d="M69.242 94.257l-15.162 26.26-2.577-4.464-7.429-12.867h-5.155l10.006 17.332 2.578 4.464 2.578 4.465L71.82 98.72zm-30.323 0h-5.155 5.155z" fill="url(#bX)" transform="matrix(.15654 -.092 .092 .15654 55.934 184.387)"/><path d="M69.242 94.257H33.764l-2.578 4.464H61.51l-10.007 17.332 2.577 4.465L66.665 98.72z" fill="url(#bY)" transform="matrix(.15654 -.092 .092 .15654 55.934 184.387)"/><path d="M31.186 98.721l15.162 26.261 2.577 4.465h5.156l-2.578-4.465-2.578-4.464-10.006-17.332h20.013l2.578-4.465H36.34z" fill="url(#bZ)" transform="matrix(.15654 -.092 .092 .15654 55.934 184.387)"/></g></g><text y="222.625" x="175.833" style="line-height:1.25;-inkscape-font-specification:'Sansita One'" font-weight="400" font-size="2.121" font-family="Sansita One" letter-spacing="0" word-spacing="0" fill="#666" stroke-width=".177"><tspan style="-inkscape-font-specification:'Big John'" y="222.625" x="175.833" font-size="28.274" font-family="Big John" letter-spacing="8.836">Vintec</tspan></text><path d="M195.47 190.819h-15.85l7.925 13.726zm-4.684 2.704l-3.24 5.614-3.242-5.614z" fill="#4ba6bd" fill-opacity=".996" stroke-width=".202" stroke-linecap="round" stroke-linejoin="round" stroke-dasharray=".80817506,.80817506"/><g stroke-width=".265"><path d="M269.907 159.992l-43.299 74.994-7.36-12.749-21.215-36.746H183.31l28.576 49.495 7.36 12.75 7.362 12.75 50.658-87.745zm-86.596 0h-14.722 14.722z" fill="url(#ca)" transform="translate(31.536 -79.617) scale(1.01467)"/><path d="M269.907 159.992H168.589l-7.36 12.75h86.595l-28.577 49.495 7.361 12.75 35.938-62.245z" fill="url(#cb)" transform="translate(31.536 -79.617) scale(1.01467)"/><path d="M161.228 172.742l43.298 74.994 7.361 12.75h14.722l-7.361-12.75-7.361-12.75-28.576-49.495h57.152l7.361-12.749H175.95z" fill="url(#cc)" transform="translate(31.536 -79.617) scale(1.01467)"/></g></svg>