<svg xmlns="http://www.w3.org/2000/svg" xmlns:xlink="http://www.w3.org/1999/xlink" width="1000" height="1000" viewBox="0 0 264.583 264.583"><defs><linearGradient id="d"><stop offset="0" stop-color="#2a8298"/><stop offset="1" stop-color="#4fb5cf" stop-opacity=".882"/></linearGradient><linearGradient id="e"><stop offset="0" stop-color="#87cdde"/><stop offset="1" stop-color="#008fb2"/></linearGradient><linearGradient id="f"><stop offset="0" stop-color="#003c4a"/><stop offset="1" stop-color="#0089aa"/></linearGradient><linearGradient id="a"><stop offset="0" stop-color="#ccc"/><stop offset="1" stop-color="#ccc"/></linearGradient><linearGradient id="b"><stop offset="0" stop-color="#ececec"/><stop offset="1" stop-color="#b3b3b3"/></linearGradient><linearGradient id="c"><stop offset="0" stop-color="#b3b3b3"/><stop offset="1" stop-color="#e6e6e6"/></linearGradient><linearGradient xlink:href="#a" id="bU" gradientUnits="userSpaceOnUse" gradientTransform="rotate(60 -11.325 66.024) scale(.09265)" x1="496.269" y1="443.527" x2="678.891" y2="279.939"/><linearGradient xlink:href="#b" id="bV" gradientUnits="userSpaceOnUse" gradientTransform="rotate(60 -11.325 66.024) scale(.09265)" x1="576.397" y1="309.597" x2="690.02" y2="306.258"/><linearGradient xlink:href="#c" id="bW" gradientUnits="userSpaceOnUse" gradientTransform="rotate(60 15.059 81.256) scale(.35017)" x1="152.52" y1="142.106" x2="150.474" y2="191.086"/><linearGradient xlink:href="#a" id="g" gradientUnits="userSpaceOnUse" gradientTransform="rotate(60 -11.325 66.024) scale(.09265)" x1="496.269" y1="443.527" x2="678.891" y2="279.939"/><linearGradient xlink:href="#b" id="h" gradientUnits="userSpaceOnUse" gradientTransform="rotate(60 -11.325 66.024) scale(.09265)" x1="576.397" y1="309.597" x2="690.02" y2="306.258"/><linearGradient xlink:href="#c" id="i" gradientUnits="userSpaceOnUse" gradientTransform="rotate(60 15.059 81.256) scale(.35017)" x1="152.52" y1="142.106" x2="150.474" y2="191.086"/><linearGradient xlink:href="#a" id="j" gradientUnits="userSpaceOnUse" gradientTransform="rotate(60 -11.325 66.024) scale(.09265)" x1="496.269" y1="443.527" x2="678.891" y2="279.939"/><linearGradient xlink:href="#b" id="k" gradientUnits="userSpaceOnUse" gradientTransform="rotate(60 -11.325 66.024) scale(.09265)" x1="576.397" y1="309.597" x2="690.02" y2="306.258"/><linearGradient xlink:href="#c" id="l" gradientUnits="userSpaceOnUse" gradientTransform="rotate(60 15.059 81.256) scale(.35017)" x1="152.52" y1="142.106" x2="150.474" y2="191.086"/><linearGradient xlink:href="#a" id="m" gradientUnits="userSpaceOnUse" gradientTransform="rotate(60 -11.325 66.024) scale(.09265)" x1="496.269" y1="443.527" x2="678.891" y2="279.939"/><linearGradient xlink:href="#b" id="n" gradientUnits="userSpaceOnUse" gradientTransform="rotate(60 -11.325 66.024) scale(.09265)" x1="576.397" y1="309.597" x2="690.02" y2="306.258"/><linearGradient xlink:href="#c" id="o" gradientUnits="userSpaceOnUse" gradientTransform="rotate(60 15.059 81.256) scale(.35017)" x1="152.52" y1="142.106" x2="150.474" y2="191.086"/><linearGradient xlink:href="#a" id="p" gradientUnits="userSpaceOnUse" gradientTransform="rotate(60 -11.325 66.024) scale(.09265)" x1="496.269" y1="443.527" x2="678.891" y2="279.939"/><linearGradient xlink:href="#b" id="q" gradientUnits="userSpaceOnUse" gradientTransform="rotate(60 -11.325 66.024) scale(.09265)" x1="576.397" y1="309.597" x2="690.02" y2="306.258"/><linearGradient xlink:href="#c" id="r" gradientUnits="userSpaceOnUse" gradientTransform="rotate(60 15.059 81.256) scale(.35017)" x1="152.52" y1="142.106" x2="150.474" y2="191.086"/><linearGradient xlink:href="#a" id="s" gradientUnits="userSpaceOnUse" gradientTransform="rotate(60 -11.325 66.024) scale(.09265)" x1="496.269" y1="443.527" x2="678.891" y2="279.939"/><linearGradient xlink:href="#b" id="t" gradientUnits="userSpaceOnUse" gradientTransform="rotate(60 -11.325 66.024) scale(.09265)" x1="576.397" y1="309.597" x2="690.02" y2="306.258"/><linearGradient xlink:href="#c" id="u" gradientUnits="userSpaceOnUse" gradientTransform="rotate(60 15.059 81.256) scale(.35017)" x1="152.52" y1="142.106" x2="150.474" y2="191.086"/><linearGradient xlink:href="#a" id="v" gradientUnits="userSpaceOnUse" gradientTransform="rotate(60 -11.325 66.024) scale(.09265)" x1="496.269" y1="443.527" x2="678.891" y2="279.939"/><linearGradient xlink:href="#b" id="w" gradientUnits="userSpaceOnUse" gradientTransform="rotate(60 -11.325 66.024) scale(.09265)" x1="576.397" y1="309.597" x2="690.02" y2="306.258"/><linearGradient xlink:href="#c" id="x" gradientUnits="userSpaceOnUse" gradientTransform="rotate(60 15.059 81.256) scale(.35017)" x1="152.52" y1="142.106" x2="150.474" y2="191.086"/><linearGradient xlink:href="#a" id="y" gradientUnits="userSpaceOnUse" gradientTransform="rotate(60 -11.325 66.024) scale(.09265)" x1="496.269" y1="443.527" x2="678.891" y2="279.939"/><linearGradient xlink:href="#b" id="z" gradientUnits="userSpaceOnUse" gradientTransform="rotate(60 -11.325 66.024) scale(.09265)" x1="576.397" y1="309.597" x2="690.02" y2="306.258"/><linearGradient xlink:href="#c" id="A" gradientUnits="userSpaceOnUse" gradientTransform="rotate(60 15.059 81.256) scale(.35017)" x1="152.52" y1="142.106" x2="150.474" y2="191.086"/><linearGradient xlink:href="#a" id="B" gradientUnits="userSpaceOnUse" gradientTransform="rotate(60 -11.325 66.024) scale(.09265)" x1="496.269" y1="443.527" x2="678.891" y2="279.939"/><linearGradient xlink:href="#b" id="C" gradientUnits="userSpaceOnUse" gradientTransform="rotate(60 -11.325 66.024) scale(.09265)" x1="576.397" y1="309.597" x2="690.02" y2="306.258"/><linearGradient xlink:href="#c" id="D" gradientUnits="userSpaceOnUse" gradientTransform="rotate(60 15.059 81.256) scale(.35017)" x1="152.52" y1="142.106" x2="150.474" y2="191.086"/><linearGradient xlink:href="#a" id="E" gradientUnits="userSpaceOnUse" gradientTransform="rotate(60 -11.325 66.024) scale(.09265)" x1="496.269" y1="443.527" x2="678.891" y2="279.939"/><linearGradient xlink:href="#b" id="F" gradientUnits="userSpaceOnUse" gradientTransform="rotate(60 -11.325 66.024) scale(.09265)" x1="576.397" y1="309.597" x2="690.02" y2="306.258"/><linearGradient xlink:href="#c" id="G" gradientUnits="userSpaceOnUse" gradientTransform="rotate(60 15.059 81.256) scale(.35017)" x1="152.52" y1="142.106" x2="150.474" y2="191.086"/><linearGradient xlink:href="#a" id="H" gradientUnits="userSpaceOnUse" gradientTransform="rotate(60 -11.325 66.024) scale(.09265)" x1="496.269" y1="443.527" x2="678.891" y2="279.939"/><linearGradient xlink:href="#b" id="I" gradientUnits="userSpaceOnUse" gradientTransform="rotate(60 -11.325 66.024) scale(.09265)" x1="576.397" y1="309.597" x2="690.02" y2="306.258"/><linearGradient xlink:href="#c" id="J" gradientUnits="userSpaceOnUse" gradientTransform="rotate(60 15.059 81.256) scale(.35017)" x1="152.52" y1="142.106" x2="150.474" y2="191.086"/><linearGradient xlink:href="#a" id="K" gradientUnits="userSpaceOnUse" gradientTransform="rotate(60 -11.325 66.024) scale(.09265)" x1="496.269" y1="443.527" x2="678.891" y2="279.939"/><linearGradient xlink:href="#b" id="L" gradientUnits="userSpaceOnUse" gradientTransform="rotate(60 -11.325 66.024) scale(.09265)" x1="576.397" y1="309.597" x2="690.02" y2="306.258"/><linearGradient xlink:href="#c" id="M" gradientUnits="userSpaceOnUse" gradientTransform="rotate(60 15.059 81.256) scale(.35017)" x1="152.52" y1="142.106" x2="150.474" y2="191.086"/><linearGradient xlink:href="#a" id="N" gradientUnits="userSpaceOnUse" gradientTransform="rotate(60 -11.325 66.024) scale(.09265)" x1="496.269" y1="443.527" x2="678.891" y2="279.939"/><linearGradient xlink:href="#b" id="O" gradientUnits="userSpaceOnUse" gradientTransform="rotate(60 -11.325 66.024) scale(.09265)" x1="576.397" y1="309.597" x2="690.02" y2="306.258"/><linearGradient xlink:href="#c" id="P" gradientUnits="userSpaceOnUse" gradientTransform="rotate(60 15.059 81.256) scale(.35017)" x1="152.52" y1="142.106" x2="150.474" y2="191.086"/><linearGradient xlink:href="#a" id="Q" gradientUnits="userSpaceOnUse" gradientTransform="rotate(60 -11.325 66.024) scale(.09265)" x1="496.269" y1="443.527" x2="678.891" y2="279.939"/><linearGradient xlink:href="#b" id="R" gradientUnits="userSpaceOnUse" gradientTransform="rotate(60 -11.325 66.024) scale(.09265)" x1="576.397" y1="309.597" x2="690.02" y2="306.258"/><linearGradient xlink:href="#c" id="S" gradientUnits="userSpaceOnUse" gradientTransform="rotate(60 15.059 81.256) scale(.35017)" x1="152.52" y1="142.106" x2="150.474" y2="191.086"/><linearGradient xlink:href="#a" id="T" gradientUnits="userSpaceOnUse" gradientTransform="rotate(60 -11.325 66.024) scale(.09265)" x1="496.269" y1="443.527" x2="678.891" y2="279.939"/><linearGradient xlink:href="#b" id="U" gradientUnits="userSpaceOnUse" gradientTransform="rotate(60 -11.325 66.024) scale(.09265)" x1="576.397" y1="309.597" x2="690.02" y2="306.258"/><linearGradient xlink:href="#c" id="V" gradientUnits="userSpaceOnUse" gradientTransform="rotate(60 15.059 81.256) scale(.35017)" x1="152.52" y1="142.106" x2="150.474" y2="191.086"/><linearGradient xlink:href="#a" id="W" gradientUnits="userSpaceOnUse" gradientTransform="rotate(60 -11.325 66.024) scale(.09265)" x1="496.269" y1="443.527" x2="678.891" y2="279.939"/><linearGradient xlink:href="#b" id="X" gradientUnits="userSpaceOnUse" gradientTransform="rotate(60 -11.325 66.024) scale(.09265)" x1="576.397" y1="309.597" x2="690.02" y2="306.258"/><linearGradient xlink:href="#c" id="Y" gradientUnits="userSpaceOnUse" gradientTransform="rotate(60 15.059 81.256) scale(.35017)" x1="152.52" y1="142.106" x2="150.474" y2="191.086"/><linearGradient xlink:href="#a" id="Z" gradientUnits="userSpaceOnUse" gradientTransform="rotate(60 -11.325 66.024) scale(.09265)" x1="496.269" y1="443.527" x2="678.891" y2="279.939"/><linearGradient xlink:href="#b" id="aa" gradientUnits="userSpaceOnUse" gradientTransform="rotate(60 -11.325 66.024) scale(.09265)" x1="576.397" y1="309.597" x2="690.02" y2="306.258"/><linearGradient xlink:href="#c" id="ab" gradientUnits="userSpaceOnUse" gradientTransform="rotate(60 15.059 81.256) scale(.35017)" x1="152.52" y1="142.106" x2="150.474" y2="191.086"/><linearGradient xlink:href="#a" id="ac" gradientUnits="userSpaceOnUse" gradientTransform="rotate(60 -11.325 66.024) scale(.09265)" x1="496.269" y1="443.527" x2="678.891" y2="279.939"/><linearGradient xlink:href="#b" id="ad" gradientUnits="userSpaceOnUse" gradientTransform="rotate(60 -11.325 66.024) scale(.09265)" x1="576.397" y1="309.597" x2="690.02" y2="306.258"/><linearGradient xlink:href="#c" id="ae" gradientUnits="userSpaceOnUse" gradientTransform="rotate(60 15.059 81.256) scale(.35017)" x1="152.52" y1="142.106" x2="150.474" y2="191.086"/><linearGradient xlink:href="#a" id="af" gradientUnits="userSpaceOnUse" gradientTransform="rotate(60 -11.325 66.024) scale(.09265)" x1="496.269" y1="443.527" x2="678.891" y2="279.939"/><linearGradient xlink:href="#b" id="ag" gradientUnits="userSpaceOnUse" gradientTransform="rotate(60 -11.325 66.024) scale(.09265)" x1="576.397" y1="309.597" x2="690.02" y2="306.258"/><linearGradient xlink:href="#c" id="ah" gradientUnits="userSpaceOnUse" gradientTransform="rotate(60 15.059 81.256) scale(.35017)" x1="152.52" y1="142.106" x2="150.474" y2="191.086"/><linearGradient xlink:href="#a" id="ai" gradientUnits="userSpaceOnUse" gradientTransform="rotate(60 -11.325 66.024) scale(.09265)" x1="496.269" y1="443.527" x2="678.891" y2="279.939"/><linearGradient xlink:href="#b" id="aj" gradientUnits="userSpaceOnUse" gradientTransform="rotate(60 -11.325 66.024) scale(.09265)" x1="576.397" y1="309.597" x2="690.02" y2="306.258"/><linearGradient xlink:href="#c" id="ak" gradientUnits="userSpaceOnUse" gradientTransform="rotate(60 15.059 81.256) scale(.35017)" x1="152.52" y1="142.106" x2="150.474" y2="191.086"/><linearGradient xlink:href="#a" id="al" gradientUnits="userSpaceOnUse" gradientTransform="rotate(60 -11.325 66.024) scale(.09265)" x1="496.269" y1="443.527" x2="678.891" y2="279.939"/><linearGradient xlink:href="#b" id="am" gradientUnits="userSpaceOnUse" gradientTransform="rotate(60 -11.325 66.024) scale(.09265)" x1="576.397" y1="309.597" x2="690.02" y2="306.258"/><linearGradient xlink:href="#c" id="an" gradientUnits="userSpaceOnUse" gradientTransform="rotate(60 15.059 81.256) scale(.35017)" x1="152.52" y1="142.106" x2="150.474" y2="191.086"/><linearGradient xlink:href="#a" id="ao" gradientUnits="userSpaceOnUse" gradientTransform="rotate(60 -11.325 66.024) scale(.09265)" x1="496.269" y1="443.527" x2="678.891" y2="279.939"/><linearGradient xlink:href="#b" id="ap" gradientUnits="userSpaceOnUse" gradientTransform="rotate(60 -11.325 66.024) scale(.09265)" x1="576.397" y1="309.597" x2="690.02" y2="306.258"/><linearGradient xlink:href="#c" id="aq" gradientUnits="userSpaceOnUse" gradientTransform="rotate(60 15.059 81.256) scale(.35017)" x1="152.52" y1="142.106" x2="150.474" y2="191.086"/><linearGradient xlink:href="#a" id="ar" gradientUnits="userSpaceOnUse" gradientTransform="rotate(60 -11.325 66.024) scale(.09265)" x1="496.269" y1="443.527" x2="678.891" y2="279.939"/><linearGradient xlink:href="#b" id="as" gradientUnits="userSpaceOnUse" gradientTransform="rotate(60 -11.325 66.024) scale(.09265)" x1="576.397" y1="309.597" x2="690.02" y2="306.258"/><linearGradient xlink:href="#c" id="at" gradientUnits="userSpaceOnUse" gradientTransform="rotate(60 15.059 81.256) scale(.35017)" x1="152.52" y1="142.106" x2="150.474" y2="191.086"/><linearGradient xlink:href="#a" id="au" gradientUnits="userSpaceOnUse" gradientTransform="rotate(60 -11.325 66.024) scale(.09265)" x1="496.269" y1="443.527" x2="678.891" y2="279.939"/><linearGradient xlink:href="#b" id="av" gradientUnits="userSpaceOnUse" gradientTransform="rotate(60 -11.325 66.024) scale(.09265)" x1="576.397" y1="309.597" x2="690.02" y2="306.258"/><linearGradient xlink:href="#c" id="aw" gradientUnits="userSpaceOnUse" gradientTransform="rotate(60 15.059 81.256) scale(.35017)" x1="152.52" y1="142.106" x2="150.474" y2="191.086"/><linearGradient xlink:href="#a" id="ax" gradientUnits="userSpaceOnUse" gradientTransform="rotate(60 -11.325 66.024) scale(.09265)" x1="496.269" y1="443.527" x2="678.891" y2="279.939"/><linearGradient xlink:href="#b" id="ay" gradientUnits="userSpaceOnUse" gradientTransform="rotate(60 -11.325 66.024) scale(.09265)" x1="576.397" y1="309.597" x2="690.02" y2="306.258"/><linearGradient xlink:href="#c" id="az" gradientUnits="userSpaceOnUse" gradientTransform="rotate(60 15.059 81.256) scale(.35017)" x1="152.52" y1="142.106" x2="150.474" y2="191.086"/><linearGradient xlink:href="#a" id="aA" gradientUnits="userSpaceOnUse" gradientTransform="rotate(60 -11.325 66.024) scale(.09265)" x1="496.269" y1="443.527" x2="678.891" y2="279.939"/><linearGradient xlink:href="#b" id="aB" gradientUnits="userSpaceOnUse" gradientTransform="rotate(60 -11.325 66.024) scale(.09265)" x1="576.397" y1="309.597" x2="690.02" y2="306.258"/><linearGradient xlink:href="#c" id="aC" gradientUnits="userSpaceOnUse" gradientTransform="rotate(60 15.059 81.256) scale(.35017)" x1="152.52" y1="142.106" x2="150.474" y2="191.086"/><linearGradient xlink:href="#a" id="aD" gradientUnits="userSpaceOnUse" gradientTransform="rotate(60 -11.325 66.024) scale(.09265)" x1="496.269" y1="443.527" x2="678.891" y2="279.939"/><linearGradient xlink:href="#b" id="aE" gradientUnits="userSpaceOnUse" gradientTransform="rotate(60 -11.325 66.024) scale(.09265)" x1="576.397" y1="309.597" x2="690.02" y2="306.258"/><linearGradient xlink:href="#c" id="aF" gradientUnits="userSpaceOnUse" gradientTransform="rotate(60 15.059 81.256) scale(.35017)" x1="152.52" y1="142.106" x2="150.474" y2="191.086"/><linearGradient xlink:href="#a" id="aG" gradientUnits="userSpaceOnUse" gradientTransform="rotate(60 -11.325 66.024) scale(.09265)" x1="496.269" y1="443.527" x2="678.891" y2="279.939"/><linearGradient xlink:href="#b" id="aH" gradientUnits="userSpaceOnUse" gradientTransform="rotate(60 -11.325 66.024) scale(.09265)" x1="576.397" y1="309.597" x2="690.02" y2="306.258"/><linearGradient xlink:href="#c" id="aI" gradientUnits="userSpaceOnUse" gradientTransform="rotate(60 15.059 81.256) scale(.35017)" x1="152.52" y1="142.106" x2="150.474" y2="191.086"/><linearGradient xlink:href="#a" id="aJ" gradientUnits="userSpaceOnUse" gradientTransform="rotate(60 -11.325 66.024) scale(.09265)" x1="496.269" y1="443.527" x2="678.891" y2="279.939"/><linearGradient xlink:href="#b" id="aK" gradientUnits="userSpaceOnUse" gradientTransform="rotate(60 -11.325 66.024) scale(.09265)" x1="576.397" y1="309.597" x2="690.02" y2="306.258"/><linearGradient xlink:href="#c" id="aL" gradientUnits="userSpaceOnUse" gradientTransform="rotate(60 15.059 81.256) scale(.35017)" x1="152.52" y1="142.106" x2="150.474" y2="191.086"/><linearGradient xlink:href="#a" id="aM" gradientUnits="userSpaceOnUse" gradientTransform="rotate(60 -11.325 66.024) scale(.09265)" x1="496.269" y1="443.527" x2="678.891" y2="279.939"/><linearGradient xlink:href="#b" id="aN" gradientUnits="userSpaceOnUse" gradientTransform="rotate(60 -11.325 66.024) scale(.09265)" x1="576.397" y1="309.597" x2="690.02" y2="306.258"/><linearGradient xlink:href="#c" id="aO" gradientUnits="userSpaceOnUse" gradientTransform="rotate(60 15.059 81.256) scale(.35017)" x1="152.52" y1="142.106" x2="150.474" y2="191.086"/><linearGradient xlink:href="#a" id="aP" gradientUnits="userSpaceOnUse" gradientTransform="rotate(60 -11.325 66.024) scale(.09265)" x1="496.269" y1="443.527" x2="678.891" y2="279.939"/><linearGradient xlink:href="#b" id="aQ" gradientUnits="userSpaceOnUse" gradientTransform="rotate(60 -11.325 66.024) scale(.09265)" x1="576.397" y1="309.597" x2="690.02" y2="306.258"/><linearGradient xlink:href="#c" id="aR" gradientUnits="userSpaceOnUse" gradientTransform="rotate(60 15.059 81.256) scale(.35017)" x1="152.52" y1="142.106" x2="150.474" y2="191.086"/><linearGradient xlink:href="#a" id="aS" gradientUnits="userSpaceOnUse" gradientTransform="rotate(60 -11.325 66.024) scale(.09265)" x1="496.269" y1="443.527" x2="678.891" y2="279.939"/><linearGradient xlink:href="#b" id="aT" gradientUnits="userSpaceOnUse" gradientTransform="rotate(60 -11.325 66.024) scale(.09265)" x1="576.397" y1="309.597" x2="690.02" y2="306.258"/><linearGradient xlink:href="#c" id="aU" gradientUnits="userSpaceOnUse" gradientTransform="rotate(60 15.059 81.256) scale(.35017)" x1="152.52" y1="142.106" x2="150.474" y2="191.086"/><linearGradient xlink:href="#a" id="aV" gradientUnits="userSpaceOnUse" gradientTransform="rotate(60 -11.325 66.024) scale(.09265)" x1="496.269" y1="443.527" x2="678.891" y2="279.939"/><linearGradient xlink:href="#b" id="aW" gradientUnits="userSpaceOnUse" gradientTransform="rotate(60 -11.325 66.024) scale(.09265)" x1="576.397" y1="309.597" x2="690.02" y2="306.258"/><linearGradient xlink:href="#c" id="aX" gradientUnits="userSpaceOnUse" gradientTransform="rotate(60 15.059 81.256) scale(.35017)" x1="152.52" y1="142.106" x2="150.474" y2="191.086"/><linearGradient xlink:href="#a" id="aY" gradientUnits="userSpaceOnUse" gradientTransform="rotate(60 -11.325 66.024) scale(.09265)" x1="496.269" y1="443.527" x2="678.891" y2="279.939"/><linearGradient xlink:href="#b" id="aZ" gradientUnits="userSpaceOnUse" gradientTransform="rotate(60 -11.325 66.024) scale(.09265)" x1="576.397" y1="309.597" x2="690.02" y2="306.258"/><linearGradient xlink:href="#c" id="ba" gradientUnits="userSpaceOnUse" gradientTransform="rotate(60 15.059 81.256) scale(.35017)" x1="152.52" y1="142.106" x2="150.474" y2="191.086"/><linearGradient xlink:href="#a" id="bb" gradientUnits="userSpaceOnUse" gradientTransform="rotate(60 -11.325 66.024) scale(.09265)" x1="496.269" y1="443.527" x2="678.891" y2="279.939"/><linearGradient xlink:href="#b" id="bc" gradientUnits="userSpaceOnUse" gradientTransform="rotate(60 -11.325 66.024) scale(.09265)" x1="576.397" y1="309.597" x2="690.02" y2="306.258"/><linearGradient xlink:href="#c" id="bd" gradientUnits="userSpaceOnUse" gradientTransform="rotate(60 15.059 81.256) scale(.35017)" x1="152.52" y1="142.106" x2="150.474" y2="191.086"/><linearGradient xlink:href="#a" id="be" gradientUnits="userSpaceOnUse" gradientTransform="rotate(60 -11.325 66.024) scale(.09265)" x1="496.269" y1="443.527" x2="678.891" y2="279.939"/><linearGradient xlink:href="#b" id="bf" gradientUnits="userSpaceOnUse" gradientTransform="rotate(60 -11.325 66.024) scale(.09265)" x1="576.397" y1="309.597" x2="690.02" y2="306.258"/><linearGradient xlink:href="#c" id="bg" gradientUnits="userSpaceOnUse" gradientTransform="rotate(60 15.059 81.256) scale(.35017)" x1="152.52" y1="142.106" x2="150.474" y2="191.086"/><linearGradient xlink:href="#a" id="bh" gradientUnits="userSpaceOnUse" gradientTransform="rotate(60 -11.325 66.024) scale(.09265)" x1="496.269" y1="443.527" x2="678.891" y2="279.939"/><linearGradient xlink:href="#b" id="bi" gradientUnits="userSpaceOnUse" gradientTransform="rotate(60 -11.325 66.024) scale(.09265)" x1="576.397" y1="309.597" x2="690.02" y2="306.258"/><linearGradient xlink:href="#c" id="bj" gradientUnits="userSpaceOnUse" gradientTransform="rotate(60 15.059 81.256) scale(.35017)" x1="152.52" y1="142.106" x2="150.474" y2="191.086"/><linearGradient xlink:href="#a" id="bk" gradientUnits="userSpaceOnUse" gradientTransform="rotate(60 -11.325 66.024) scale(.09265)" x1="496.269" y1="443.527" x2="678.891" y2="279.939"/><linearGradient xlink:href="#b" id="bl" gradientUnits="userSpaceOnUse" gradientTransform="rotate(60 -11.325 66.024) scale(.09265)" x1="576.397" y1="309.597" x2="690.02" y2="306.258"/><linearGradient xlink:href="#c" id="bm" gradientUnits="userSpaceOnUse" gradientTransform="rotate(60 15.059 81.256) scale(.35017)" x1="152.52" y1="142.106" x2="150.474" y2="191.086"/><linearGradient xlink:href="#a" id="bn" gradientUnits="userSpaceOnUse" gradientTransform="rotate(60 -11.325 66.024) scale(.09265)" x1="496.269" y1="443.527" x2="678.891" y2="279.939"/><linearGradient xlink:href="#b" id="bo" gradientUnits="userSpaceOnUse" gradientTransform="rotate(60 -11.325 66.024) scale(.09265)" x1="576.397" y1="309.597" x2="690.02" y2="306.258"/><linearGradient xlink:href="#c" id="bp" gradientUnits="userSpaceOnUse" gradientTransform="rotate(60 15.059 81.256) scale(.35017)" x1="152.52" y1="142.106" x2="150.474" y2="191.086"/><linearGradient xlink:href="#a" id="bq" gradientUnits="userSpaceOnUse" gradientTransform="rotate(60 -11.325 66.024) scale(.09265)" x1="496.269" y1="443.527" x2="678.891" y2="279.939"/><linearGradient xlink:href="#b" id="br" gradientUnits="userSpaceOnUse" gradientTransform="rotate(60 -11.325 66.024) scale(.09265)" x1="576.397" y1="309.597" x2="690.02" y2="306.258"/><linearGradient xlink:href="#c" id="bs" gradientUnits="userSpaceOnUse" gradientTransform="rotate(60 15.059 81.256) scale(.35017)" x1="152.52" y1="142.106" x2="150.474" y2="191.086"/><linearGradient xlink:href="#a" id="bt" gradientUnits="userSpaceOnUse" gradientTransform="rotate(60 -11.325 66.024) scale(.09265)" x1="496.269" y1="443.527" x2="678.891" y2="279.939"/><linearGradient xlink:href="#b" id="bu" gradientUnits="userSpaceOnUse" gradientTransform="rotate(60 -11.325 66.024) scale(.09265)" x1="576.397" y1="309.597" x2="690.02" y2="306.258"/><linearGradient xlink:href="#c" id="bv" gradientUnits="userSpaceOnUse" gradientTransform="rotate(60 15.059 81.256) scale(.35017)" x1="152.52" y1="142.106" x2="150.474" y2="191.086"/><linearGradient xlink:href="#a" id="bw" gradientUnits="userSpaceOnUse" gradientTransform="rotate(60 -11.325 66.024) scale(.09265)" x1="496.269" y1="443.527" x2="678.891" y2="279.939"/><linearGradient xlink:href="#b" id="bx" gradientUnits="userSpaceOnUse" gradientTransform="rotate(60 -11.325 66.024) scale(.09265)" x1="576.397" y1="309.597" x2="690.02" y2="306.258"/><linearGradient xlink:href="#c" id="by" gradientUnits="userSpaceOnUse" gradientTransform="rotate(60 15.059 81.256) scale(.35017)" x1="152.52" y1="142.106" x2="150.474" y2="191.086"/><linearGradient xlink:href="#a" id="bz" gradientUnits="userSpaceOnUse" gradientTransform="rotate(60 -11.325 66.024) scale(.09265)" x1="496.269" y1="443.527" x2="678.891" y2="279.939"/><linearGradient xlink:href="#b" id="bA" gradientUnits="userSpaceOnUse" gradientTransform="rotate(60 -11.325 66.024) scale(.09265)" x1="576.397" y1="309.597" x2="690.02" y2="306.258"/><linearGradient xlink:href="#c" id="bB" gradientUnits="userSpaceOnUse" gradientTransform="rotate(60 15.059 81.256) scale(.35017)" x1="152.52" y1="142.106" x2="150.474" y2="191.086"/><linearGradient xlink:href="#a" id="bC" gradientUnits="userSpaceOnUse" gradientTransform="rotate(60 -11.325 66.024) scale(.09265)" x1="496.269" y1="443.527" x2="678.891" y2="279.939"/><linearGradient xlink:href="#b" id="bD" gradientUnits="userSpaceOnUse" gradientTransform="rotate(60 -11.325 66.024) scale(.09265)" x1="576.397" y1="309.597" x2="690.02" y2="306.258"/><linearGradient xlink:href="#c" id="bE" gradientUnits="userSpaceOnUse" gradientTransform="rotate(60 15.059 81.256) scale(.35017)" x1="152.52" y1="142.106" x2="150.474" y2="191.086"/><linearGradient xlink:href="#a" id="bF" gradientUnits="userSpaceOnUse" gradientTransform="rotate(60 -11.325 66.024) scale(.09265)" x1="496.269" y1="443.527" x2="678.891" y2="279.939"/><linearGradient xlink:href="#b" id="bG" gradientUnits="userSpaceOnUse" gradientTransform="rotate(60 -11.325 66.024) scale(.09265)" x1="576.397" y1="309.597" x2="690.02" y2="306.258"/><linearGradient xlink:href="#c" id="bH" gradientUnits="userSpaceOnUse" gradientTransform="rotate(60 15.059 81.256) scale(.35017)" x1="152.52" y1="142.106" x2="150.474" y2="191.086"/><linearGradient xlink:href="#a" id="bI" gradientUnits="userSpaceOnUse" gradientTransform="rotate(60 -11.325 66.024) scale(.09265)" x1="496.269" y1="443.527" x2="678.891" y2="279.939"/><linearGradient xlink:href="#b" id="bJ" gradientUnits="userSpaceOnUse" gradientTransform="rotate(60 -11.325 66.024) scale(.09265)" x1="576.397" y1="309.597" x2="690.02" y2="306.258"/><linearGradient xlink:href="#c" id="bK" gradientUnits="userSpaceOnUse" gradientTransform="rotate(60 15.059 81.256) scale(.35017)" x1="152.52" y1="142.106" x2="150.474" y2="191.086"/><linearGradient xlink:href="#a" id="bL" gradientUnits="userSpaceOnUse" gradientTransform="rotate(60 -11.325 66.024) scale(.09265)" x1="496.269" y1="443.527" x2="678.891" y2="279.939"/><linearGradient xlink:href="#b" id="bM" gradientUnits="userSpaceOnUse" gradientTransform="rotate(60 -11.325 66.024) scale(.09265)" x1="576.397" y1="309.597" x2="690.02" y2="306.258"/><linearGradient xlink:href="#c" id="bN" gradientUnits="userSpaceOnUse" gradientTransform="rotate(60 15.059 81.256) scale(.35017)" x1="152.52" y1="142.106" x2="150.474" y2="191.086"/><linearGradient xlink:href="#a" id="bO" gradientUnits="userSpaceOnUse" gradientTransform="rotate(60 -11.325 66.024) scale(.09265)" x1="496.269" y1="443.527" x2="678.891" y2="279.939"/><linearGradient xlink:href="#b" id="bP" gradientUnits="userSpaceOnUse" gradientTransform="rotate(60 -11.325 66.024) scale(.09265)" x1="576.397" y1="309.597" x2="690.02" y2="306.258"/><linearGradient xlink:href="#c" id="bQ" gradientUnits="userSpaceOnUse" gradientTransform="rotate(60 15.059 81.256) scale(.35017)" x1="152.52" y1="142.106" x2="150.474" y2="191.086"/><linearGradient xlink:href="#a" id="bR" gradientUnits="userSpaceOnUse" gradientTransform="rotate(60 -11.325 66.024) scale(.09265)" x1="496.269" y1="443.527" x2="678.891" y2="279.939"/><linearGradient xlink:href="#b" id="bS" gradientUnits="userSpaceOnUse" gradientTransform="rotate(60 -11.325 66.024) scale(.09265)" x1="576.397" y1="309.597" x2="690.02" y2="306.258"/><linearGradient xlink:href="#c" id="bT" gradientUnits="userSpaceOnUse" gradientTransform="rotate(60 15.059 81.256) scale(.35017)" x1="152.52" y1="142.106" x2="150.474" y2="191.086"/><linearGradient xlink:href="#d" id="bX" gradientUnits="userSpaceOnUse" gradientTransform="rotate(60 98.295 196.457) scale(.26458)" x1="496.269" y1="443.527" x2="678.891" y2="279.939"/><linearGradient xlink:href="#e" id="bY" gradientUnits="userSpaceOnUse" gradientTransform="rotate(60 98.295 196.457) scale(.26458)" x1="576.397" y1="309.597" x2="690.02" y2="306.258"/><linearGradient xlink:href="#f" id="bZ" gradientUnits="userSpaceOnUse" gradientTransform="rotate(60 173.64 239.96)" x1="152.52" y1="142.106" x2="150.474" y2="191.086"/></defs><rect width="264.583" height="264.583" ry="0" fill="#ececec" stroke-width="1.165" stroke-linecap="round"/><path d="M112.095 22.132h-15.85l7.925 13.725zm-4.684 2.704l-3.24 5.613-3.242-5.613z" opacity=".349" fill="#ff0"/><g opacity=".349"><path d="M69.242 94.257l-15.162 26.26-2.577-4.464-7.429-12.867h-5.155l10.006 17.332 2.578 4.464 2.578 4.465L71.82 98.72zm-30.323 0h-5.155 5.155z" fill="url(#g)" transform="rotate(-30.445 -45.399 54.22) scale(.69098)"/><path d="M69.242 94.257H33.764l-2.578 4.464H61.51l-10.007 17.332 2.577 4.465L66.665 98.72z" fill="url(#h)" transform="rotate(-30.445 -45.399 54.22) scale(.69098)"/><path d="M31.186 98.721l15.162 26.261 2.577 4.465h5.156l-2.578-4.465-2.578-4.464-10.006-17.332h20.013l2.578-4.465H36.34z" fill="url(#i)" transform="rotate(-30.445 -45.399 54.22) scale(.69098)"/></g><g opacity=".349"><path d="M69.242 94.257l-15.162 26.26-2.577-4.464-7.429-12.867h-5.155l10.006 17.332 2.578 4.464 2.578 4.465L71.82 98.72zm-30.323 0h-5.155 5.155z" fill="url(#j)" transform="rotate(-30.445 -45.399 54.22) scale(.69098)"/><path d="M69.242 94.257H33.764l-2.578 4.464H61.51l-10.007 17.332 2.577 4.465L66.665 98.72z" fill="url(#k)" transform="rotate(-30.445 -45.399 54.22) scale(.69098)"/><path d="M31.186 98.721l15.162 26.261 2.577 4.465h5.156l-2.578-4.465-2.578-4.464-10.006-17.332h20.013l2.578-4.465H36.34z" fill="url(#l)" transform="rotate(-30.445 -45.399 54.22) scale(.69098)"/></g><g opacity=".349"><path d="M69.242 94.257l-15.162 26.26-2.577-4.464-7.429-12.867h-5.155l10.006 17.332 2.578 4.464 2.578 4.465L71.82 98.72zm-30.323 0h-5.155 5.155z" fill="url(#m)" transform="rotate(-30.445 -45.399 54.22) scale(.69098)"/><path d="M69.242 94.257H33.764l-2.578 4.464H61.51l-10.007 17.332 2.577 4.465L66.665 98.72z" fill="url(#n)" transform="rotate(-30.445 -45.399 54.22) scale(.69098)"/><path d="M31.186 98.721l15.162 26.261 2.577 4.465h5.156l-2.578-4.465-2.578-4.464-10.006-17.332h20.013l2.578-4.465H36.34z" fill="url(#o)" transform="rotate(-30.445 -45.399 54.22) scale(.69098)"/></g><g opacity=".349"><path d="M69.242 94.257l-15.162 26.26-2.577-4.464-7.429-12.867h-5.155l10.006 17.332 2.578 4.464 2.578 4.465L71.82 98.72zm-30.323 0h-5.155 5.155z" fill="url(#p)" transform="rotate(-30.445 -45.399 54.22) scale(.69098)"/><path d="M69.242 94.257H33.764l-2.578 4.464H61.51l-10.007 17.332 2.577 4.465L66.665 98.72z" fill="url(#q)" transform="rotate(-30.445 -45.399 54.22) scale(.69098)"/><path d="M31.186 98.721l15.162 26.261 2.577 4.465h5.156l-2.578-4.465-2.578-4.464-10.006-17.332h20.013l2.578-4.465H36.34z" fill="url(#r)" transform="rotate(-30.445 -45.399 54.22) scale(.69098)"/></g><g opacity=".349"><path d="M69.242 94.257l-15.162 26.26-2.577-4.464-7.429-12.867h-5.155l10.006 17.332 2.578 4.464 2.578 4.465L71.82 98.72zm-30.323 0h-5.155 5.155z" fill="url(#s)" transform="rotate(-30.445 -45.399 54.22) scale(.69098)"/><path d="M69.242 94.257H33.764l-2.578 4.464H61.51l-10.007 17.332 2.577 4.465L66.665 98.72z" fill="url(#t)" transform="rotate(-30.445 -45.399 54.22) scale(.69098)"/><path d="M31.186 98.721l15.162 26.261 2.577 4.465h5.156l-2.578-4.465-2.578-4.464-10.006-17.332h20.013l2.578-4.465H36.34z" fill="url(#u)" transform="rotate(-30.445 -45.399 54.22) scale(.69098)"/></g><g opacity=".349"><path d="M69.242 94.257l-15.162 26.26-2.577-4.464-7.429-12.867h-5.155l10.006 17.332 2.578 4.464 2.578 4.465L71.82 98.72zm-30.323 0h-5.155 5.155z" fill="url(#v)" transform="rotate(-30.445 -45.399 54.22) scale(.69098)"/><path d="M69.242 94.257H33.764l-2.578 4.464H61.51l-10.007 17.332 2.577 4.465L66.665 98.72z" fill="url(#w)" transform="rotate(-30.445 -45.399 54.22) scale(.69098)"/><path d="M31.186 98.721l15.162 26.261 2.577 4.465h5.156l-2.578-4.465-2.578-4.464-10.006-17.332h20.013l2.578-4.465H36.34z" fill="url(#x)" transform="rotate(-30.445 -45.399 54.22) scale(.69098)"/></g><g opacity=".349"><path d="M69.242 94.257l-15.162 26.26-2.577-4.464-7.429-12.867h-5.155l10.006 17.332 2.578 4.464 2.578 4.465L71.82 98.72zm-30.323 0h-5.155 5.155z" fill="url(#y)" transform="rotate(-30.445 -45.399 54.22) scale(.69098)"/><path d="M69.242 94.257H33.764l-2.578 4.464H61.51l-10.007 17.332 2.577 4.465L66.665 98.72z" fill="url(#z)" transform="rotate(-30.445 -45.399 54.22) scale(.69098)"/><path d="M31.186 98.721l15.162 26.261 2.577 4.465h5.156l-2.578-4.465-2.578-4.464-10.006-17.332h20.013l2.578-4.465H36.34z" fill="url(#A)" transform="rotate(-30.445 -45.399 54.22) scale(.69098)"/></g><g opacity=".349"><path d="M69.242 94.257l-15.162 26.26-2.577-4.464-7.429-12.867h-5.155l10.006 17.332 2.578 4.464 2.578 4.465L71.82 98.72zm-30.323 0h-5.155 5.155z" fill="url(#B)" transform="matrix(.50064 -.29494 .29426 .50181 182.21 200.177)"/><path d="M69.242 94.257H33.764l-2.578 4.464H61.51l-10.007 17.332 2.577 4.465L66.665 98.72z" fill="url(#C)" transform="matrix(.50064 -.29494 .29426 .50181 182.21 200.177)"/><path d="M31.186 98.721l15.162 26.261 2.577 4.465h5.156l-2.578-4.465-2.578-4.464-10.006-17.332h20.013l2.578-4.465H36.34z" fill="url(#D)" transform="matrix(.50064 -.29494 .29426 .50181 182.21 200.177)"/></g><g opacity=".349"><path d="M69.242 94.257l-15.162 26.26-2.577-4.464-7.429-12.867h-5.155l10.006 17.332 2.578 4.464 2.578 4.465L71.82 98.72zm-30.323 0h-5.155 5.155z" fill="url(#E)" transform="matrix(.50064 -.29494 .29426 .50181 182.21 200.177)"/><path d="M69.242 94.257H33.764l-2.578 4.464H61.51l-10.007 17.332 2.577 4.465L66.665 98.72z" fill="url(#F)" transform="matrix(.50064 -.29494 .29426 .50181 182.21 200.177)"/><path d="M31.186 98.721l15.162 26.261 2.577 4.465h5.156l-2.578-4.465-2.578-4.464-10.006-17.332h20.013l2.578-4.465H36.34z" fill="url(#G)" transform="matrix(.50064 -.29494 .29426 .50181 182.21 200.177)"/></g><g opacity=".349"><path d="M69.242 94.257l-15.162 26.26-2.577-4.464-7.429-12.867h-5.155l10.006 17.332 2.578 4.464 2.578 4.465L71.82 98.72zm-30.323 0h-5.155 5.155z" fill="url(#H)" transform="matrix(.50064 -.29494 .29426 .50181 182.21 200.177)"/><path d="M69.242 94.257H33.764l-2.578 4.464H61.51l-10.007 17.332 2.577 4.465L66.665 98.72z" fill="url(#I)" transform="matrix(.50064 -.29494 .29426 .50181 182.21 200.177)"/><path d="M31.186 98.721l15.162 26.261 2.577 4.465h5.156l-2.578-4.465-2.578-4.464-10.006-17.332h20.013l2.578-4.465H36.34z" fill="url(#J)" transform="matrix(.50064 -.29494 .29426 .50181 182.21 200.177)"/></g><g opacity=".349"><path d="M69.242 94.257l-15.162 26.26-2.577-4.464-7.429-12.867h-5.155l10.006 17.332 2.578 4.464 2.578 4.465L71.82 98.72zm-30.323 0h-5.155 5.155z" fill="url(#K)" transform="matrix(.50064 -.29494 .29426 .50181 182.21 200.177)"/><path d="M69.242 94.257H33.764l-2.578 4.464H61.51l-10.007 17.332 2.577 4.465L66.665 98.72z" fill="url(#L)" transform="matrix(.50064 -.29494 .29426 .50181 182.21 200.177)"/><path d="M31.186 98.721l15.162 26.261 2.577 4.465h5.156l-2.578-4.465-2.578-4.464-10.006-17.332h20.013l2.578-4.465H36.34z" fill="url(#M)" transform="matrix(.50064 -.29494 .29426 .50181 182.21 200.177)"/></g><g opacity=".349"><path d="M69.242 94.257l-15.162 26.26-2.577-4.464-7.429-12.867h-5.155l10.006 17.332 2.578 4.464 2.578 4.465L71.82 98.72zm-30.323 0h-5.155 5.155z" fill="url(#N)" transform="matrix(.50064 -.29494 .29426 .50181 182.21 200.177)"/><path d="M69.242 94.257H33.764l-2.578 4.464H61.51l-10.007 17.332 2.577 4.465L66.665 98.72z" fill="url(#O)" transform="matrix(.50064 -.29494 .29426 .50181 182.21 200.177)"/><path d="M31.186 98.721l15.162 26.261 2.577 4.465h5.156l-2.578-4.465-2.578-4.464-10.006-17.332h20.013l2.578-4.465H36.34z" fill="url(#P)" transform="matrix(.50064 -.29494 .29426 .50181 182.21 200.177)"/></g><g opacity=".349"><path d="M69.242 94.257l-15.162 26.26-2.577-4.464-7.429-12.867h-5.155l10.006 17.332 2.578 4.464 2.578 4.465L71.82 98.72zm-30.323 0h-5.155 5.155z" fill="url(#Q)" transform="matrix(.50064 -.29494 .29426 .50181 182.21 200.177)"/><path d="M69.242 94.257H33.764l-2.578 4.464H61.51l-10.007 17.332 2.577 4.465L66.665 98.72z" fill="url(#R)" transform="matrix(.50064 -.29494 .29426 .50181 182.21 200.177)"/><path d="M31.186 98.721l15.162 26.261 2.577 4.465h5.156l-2.578-4.465-2.578-4.464-10.006-17.332h20.013l2.578-4.465H36.34z" fill="url(#S)" transform="matrix(.50064 -.29494 .29426 .50181 182.21 200.177)"/></g><g opacity=".349"><path d="M69.242 94.257l-15.162 26.26-2.577-4.464-7.429-12.867h-5.155l10.006 17.332 2.578 4.464 2.578 4.465L71.82 98.72zm-30.323 0h-5.155 5.155z" fill="url(#T)" transform="matrix(.50064 -.29494 .29426 .50181 182.21 200.177)"/><path d="M69.242 94.257H33.764l-2.578 4.464H61.51l-10.007 17.332 2.577 4.465L66.665 98.72z" fill="url(#U)" transform="matrix(.50064 -.29494 .29426 .50181 182.21 200.177)"/><path d="M31.186 98.721l15.162 26.261 2.577 4.465h5.156l-2.578-4.465-2.578-4.464-10.006-17.332h20.013l2.578-4.465H36.34z" fill="url(#V)" transform="matrix(.50064 -.29494 .29426 .50181 182.21 200.177)"/></g><g opacity=".349"><path d="M69.242 94.257l-15.162 26.26-2.577-4.464-7.429-12.867h-5.155l10.006 17.332 2.578 4.464 2.578 4.465L71.82 98.72zm-30.323 0h-5.155 5.155z" fill="url(#W)" transform="matrix(.50064 -.29494 .29426 .50181 179.854 -4.164)"/><path d="M69.242 94.257H33.764l-2.578 4.464H61.51l-10.007 17.332 2.577 4.465L66.665 98.72z" fill="url(#X)" transform="matrix(.50064 -.29494 .29426 .50181 179.854 -4.164)"/><path d="M31.186 98.721l15.162 26.261 2.577 4.465h5.156l-2.578-4.465-2.578-4.464-10.006-17.332h20.013l2.578-4.465H36.34z" fill="url(#Y)" transform="matrix(.50064 -.29494 .29426 .50181 179.854 -4.164)"/></g><g opacity=".349"><path d="M69.242 94.257l-15.162 26.26-2.577-4.464-7.429-12.867h-5.155l10.006 17.332 2.578 4.464 2.578 4.465L71.82 98.72zm-30.323 0h-5.155 5.155z" fill="url(#Z)" transform="matrix(.50064 -.29494 .29426 .50181 179.854 -4.164)"/><path d="M69.242 94.257H33.764l-2.578 4.464H61.51l-10.007 17.332 2.577 4.465L66.665 98.72z" fill="url(#aa)" transform="matrix(.50064 -.29494 .29426 .50181 179.854 -4.164)"/><path d="M31.186 98.721l15.162 26.261 2.577 4.465h5.156l-2.578-4.465-2.578-4.464-10.006-17.332h20.013l2.578-4.465H36.34z" fill="url(#ab)" transform="matrix(.50064 -.29494 .29426 .50181 179.854 -4.164)"/></g><g opacity=".349"><path d="M69.242 94.257l-15.162 26.26-2.577-4.464-7.429-12.867h-5.155l10.006 17.332 2.578 4.464 2.578 4.465L71.82 98.72zm-30.323 0h-5.155 5.155z" fill="url(#ac)" transform="matrix(.50064 -.29494 .29426 .50181 179.854 -4.164)"/><path d="M69.242 94.257H33.764l-2.578 4.464H61.51l-10.007 17.332 2.577 4.465L66.665 98.72z" fill="url(#ad)" transform="matrix(.50064 -.29494 .29426 .50181 179.854 -4.164)"/><path d="M31.186 98.721l15.162 26.261 2.577 4.465h5.156l-2.578-4.465-2.578-4.464-10.006-17.332h20.013l2.578-4.465H36.34z" fill="url(#ae)" transform="matrix(.50064 -.29494 .29426 .50181 179.854 -4.164)"/></g><g opacity=".349"><path d="M69.242 94.257l-15.162 26.26-2.577-4.464-7.429-12.867h-5.155l10.006 17.332 2.578 4.464 2.578 4.465L71.82 98.72zm-30.323 0h-5.155 5.155z" fill="url(#af)" transform="matrix(.50064 -.29494 .29426 .50181 179.854 -4.164)"/><path d="M69.242 94.257H33.764l-2.578 4.464H61.51l-10.007 17.332 2.577 4.465L66.665 98.72z" fill="url(#ag)" transform="matrix(.50064 -.29494 .29426 .50181 179.854 -4.164)"/><path d="M31.186 98.721l15.162 26.261 2.577 4.465h5.156l-2.578-4.465-2.578-4.464-10.006-17.332h20.013l2.578-4.465H36.34z" fill="url(#ah)" transform="matrix(.50064 -.29494 .29426 .50181 179.854 -4.164)"/></g><g opacity=".349"><path d="M69.242 94.257l-15.162 26.26-2.577-4.464-7.429-12.867h-5.155l10.006 17.332 2.578 4.464 2.578 4.465L71.82 98.72zm-30.323 0h-5.155 5.155z" fill="url(#ai)" transform="matrix(.50064 -.29494 .29426 .50181 179.854 -4.164)"/><path d="M69.242 94.257H33.764l-2.578 4.464H61.51l-10.007 17.332 2.577 4.465L66.665 98.72z" fill="url(#aj)" transform="matrix(.50064 -.29494 .29426 .50181 179.854 -4.164)"/><path d="M31.186 98.721l15.162 26.261 2.577 4.465h5.156l-2.578-4.465-2.578-4.464-10.006-17.332h20.013l2.578-4.465H36.34z" fill="url(#ak)" transform="matrix(.50064 -.29494 .29426 .50181 179.854 -4.164)"/></g><g opacity=".349"><path d="M69.242 94.257l-15.162 26.26-2.577-4.464-7.429-12.867h-5.155l10.006 17.332 2.578 4.464 2.578 4.465L71.82 98.72zm-30.323 0h-5.155 5.155z" fill="url(#al)" transform="matrix(.50064 -.29494 .29426 .50181 179.854 -4.164)"/><path d="M69.242 94.257H33.764l-2.578 4.464H61.51l-10.007 17.332 2.577 4.465L66.665 98.72z" fill="url(#am)" transform="matrix(.50064 -.29494 .29426 .50181 179.854 -4.164)"/><path d="M31.186 98.721l15.162 26.261 2.577 4.465h5.156l-2.578-4.465-2.578-4.464-10.006-17.332h20.013l2.578-4.465H36.34z" fill="url(#an)" transform="matrix(.50064 -.29494 .29426 .50181 179.854 -4.164)"/></g><g opacity=".349"><path d="M69.242 94.257l-15.162 26.26-2.577-4.464-7.429-12.867h-5.155l10.006 17.332 2.578 4.464 2.578 4.465L71.82 98.72zm-30.323 0h-5.155 5.155z" fill="url(#ao)" transform="matrix(.50064 -.29494 .29426 .50181 179.854 -4.164)"/><path d="M69.242 94.257H33.764l-2.578 4.464H61.51l-10.007 17.332 2.577 4.465L66.665 98.72z" fill="url(#ap)" transform="matrix(.50064 -.29494 .29426 .50181 179.854 -4.164)"/><path d="M31.186 98.721l15.162 26.261 2.577 4.465h5.156l-2.578-4.465-2.578-4.464-10.006-17.332h20.013l2.578-4.465H36.34z" fill="url(#aq)" transform="matrix(.50064 -.29494 .29426 .50181 179.854 -4.164)"/></g><g opacity=".349"><path d="M69.242 94.257l-15.162 26.26-2.577-4.464-7.429-12.867h-5.155l10.006 17.332 2.578 4.464 2.578 4.465L71.82 98.72zm-30.323 0h-5.155 5.155z" fill="url(#ar)" transform="matrix(.50065 -.29494 .29426 .50181 -26.843 197.23)"/><path d="M69.242 94.257H33.764l-2.578 4.464H61.51l-10.007 17.332 2.577 4.465L66.665 98.72z" fill="url(#as)" transform="matrix(.50065 -.29494 .29426 .50181 -26.843 197.23)"/><path d="M31.186 98.721l15.162 26.261 2.577 4.465h5.156l-2.578-4.465-2.578-4.464-10.006-17.332h20.013l2.578-4.465H36.34z" fill="url(#at)" transform="matrix(.50065 -.29494 .29426 .50181 -26.843 197.23)"/></g><g opacity=".349"><path d="M69.242 94.257l-15.162 26.26-2.577-4.464-7.429-12.867h-5.155l10.006 17.332 2.578 4.464 2.578 4.465L71.82 98.72zm-30.323 0h-5.155 5.155z" fill="url(#au)" transform="matrix(.50065 -.29494 .29426 .50181 -26.843 197.23)"/><path d="M69.242 94.257H33.764l-2.578 4.464H61.51l-10.007 17.332 2.577 4.465L66.665 98.72z" fill="url(#av)" transform="matrix(.50065 -.29494 .29426 .50181 -26.843 197.23)"/><path d="M31.186 98.721l15.162 26.261 2.577 4.465h5.156l-2.578-4.465-2.578-4.464-10.006-17.332h20.013l2.578-4.465H36.34z" fill="url(#aw)" transform="matrix(.50065 -.29494 .29426 .50181 -26.843 197.23)"/></g><g opacity=".349"><path d="M69.242 94.257l-15.162 26.26-2.577-4.464-7.429-12.867h-5.155l10.006 17.332 2.578 4.464 2.578 4.465L71.82 98.72zm-30.323 0h-5.155 5.155z" fill="url(#ax)" transform="matrix(.50065 -.29494 .29426 .50181 -26.843 197.23)"/><path d="M69.242 94.257H33.764l-2.578 4.464H61.51l-10.007 17.332 2.577 4.465L66.665 98.72z" fill="url(#ay)" transform="matrix(.50065 -.29494 .29426 .50181 -26.843 197.23)"/><path d="M31.186 98.721l15.162 26.261 2.577 4.465h5.156l-2.578-4.465-2.578-4.464-10.006-17.332h20.013l2.578-4.465H36.34z" fill="url(#az)" transform="matrix(.50065 -.29494 .29426 .50181 -26.843 197.23)"/></g><g opacity=".349"><path d="M69.242 94.257l-15.162 26.26-2.577-4.464-7.429-12.867h-5.155l10.006 17.332 2.578 4.464 2.578 4.465L71.82 98.72zm-30.323 0h-5.155 5.155z" fill="url(#aA)" transform="matrix(.50065 -.29494 .29426 .50181 -26.843 197.23)"/><path d="M69.242 94.257H33.764l-2.578 4.464H61.51l-10.007 17.332 2.577 4.465L66.665 98.72z" fill="url(#aB)" transform="matrix(.50065 -.29494 .29426 .50181 -26.843 197.23)"/><path d="M31.186 98.721l15.162 26.261 2.577 4.465h5.156l-2.578-4.465-2.578-4.464-10.006-17.332h20.013l2.578-4.465H36.34z" fill="url(#aC)" transform="matrix(.50065 -.29494 .29426 .50181 -26.843 197.23)"/></g><g opacity=".349"><path d="M69.242 94.257l-15.162 26.26-2.577-4.464-7.429-12.867h-5.155l10.006 17.332 2.578 4.464 2.578 4.465L71.82 98.72zm-30.323 0h-5.155 5.155z" fill="url(#aD)" transform="matrix(.50065 -.29494 .29426 .50181 -26.843 197.23)"/><path d="M69.242 94.257H33.764l-2.578 4.464H61.51l-10.007 17.332 2.577 4.465L66.665 98.72z" fill="url(#aE)" transform="matrix(.50065 -.29494 .29426 .50181 -26.843 197.23)"/><path d="M31.186 98.721l15.162 26.261 2.577 4.465h5.156l-2.578-4.465-2.578-4.464-10.006-17.332h20.013l2.578-4.465H36.34z" fill="url(#aF)" transform="matrix(.50065 -.29494 .29426 .50181 -26.843 197.23)"/></g><g opacity=".349"><path d="M69.242 94.257l-15.162 26.26-2.577-4.464-7.429-12.867h-5.155l10.006 17.332 2.578 4.464 2.578 4.465L71.82 98.72zm-30.323 0h-5.155 5.155z" fill="url(#aG)" transform="matrix(.50065 -.29494 .29426 .50181 -26.843 197.23)"/><path d="M69.242 94.257H33.764l-2.578 4.464H61.51l-10.007 17.332 2.577 4.465L66.665 98.72z" fill="url(#aH)" transform="matrix(.50065 -.29494 .29426 .50181 -26.843 197.23)"/><path d="M31.186 98.721l15.162 26.261 2.577 4.465h5.156l-2.578-4.465-2.578-4.464-10.006-17.332h20.013l2.578-4.465H36.34z" fill="url(#aI)" transform="matrix(.50065 -.29494 .29426 .50181 -26.843 197.23)"/></g><g opacity=".349"><path d="M69.242 94.257l-15.162 26.26-2.577-4.464-7.429-12.867h-5.155l10.006 17.332 2.578 4.464 2.578 4.465L71.82 98.72zm-30.323 0h-5.155 5.155z" fill="url(#aJ)" transform="matrix(.50065 -.29494 .29426 .50181 -26.843 197.23)"/><path d="M69.242 94.257H33.764l-2.578 4.464H61.51l-10.007 17.332 2.577 4.465L66.665 98.72z" fill="url(#aK)" transform="matrix(.50065 -.29494 .29426 .50181 -26.843 197.23)"/><path d="M31.186 98.721l15.162 26.261 2.577 4.465h5.156l-2.578-4.465-2.578-4.464-10.006-17.332h20.013l2.578-4.465H36.34z" fill="url(#aL)" transform="matrix(.50065 -.29494 .29426 .50181 -26.843 197.23)"/></g><path d="M246.527 114.472l-10.638-11.748-4.855 15.086zm-5.148-1.657l-6.336 1.366 1.986-6.17z" opacity=".349" fill="#f55"/><path d="M32.693 99.28L22.055 87.53l-4.856 15.087zm-5.148-1.657l-6.337 1.365 1.986-6.17z" opacity=".349" fill="#4ba6bd"/><g opacity=".349"><path d="M69.242 94.257l-15.162 26.26-2.577-4.464-7.429-12.867h-5.155l10.006 17.332 2.578 4.464 2.578 4.465L71.82 98.72zm-30.323 0h-5.155 5.155z" fill="url(#aM)" transform="matrix(.34265 -.20187 .2014 .34345 147.146 148.509)"/><path d="M69.242 94.257H33.764l-2.578 4.464H61.51l-10.007 17.332 2.577 4.465L66.665 98.72z" fill="url(#aN)" transform="matrix(.34265 -.20187 .2014 .34345 147.146 148.509)"/><path d="M31.186 98.721l15.162 26.261 2.577 4.465h5.156l-2.578-4.465-2.578-4.464-10.006-17.332h20.013l2.578-4.465H36.34z" fill="url(#aO)" transform="matrix(.34265 -.20187 .2014 .34345 147.146 148.509)"/></g><g opacity=".349"><path d="M69.242 94.257l-15.162 26.26-2.577-4.464-7.429-12.867h-5.155l10.006 17.332 2.578 4.464 2.578 4.465L71.82 98.72zm-30.323 0h-5.155 5.155z" fill="url(#aP)" transform="matrix(.34265 -.20187 .2014 .34345 147.146 148.509)"/><path d="M69.242 94.257H33.764l-2.578 4.464H61.51l-10.007 17.332 2.577 4.465L66.665 98.72z" fill="url(#aQ)" transform="matrix(.34265 -.20187 .2014 .34345 147.146 148.509)"/><path d="M31.186 98.721l15.162 26.261 2.577 4.465h5.156l-2.578-4.465-2.578-4.464-10.006-17.332h20.013l2.578-4.465H36.34z" fill="url(#aR)" transform="matrix(.34265 -.20187 .2014 .34345 147.146 148.509)"/></g><g opacity=".349"><path d="M69.242 94.257l-15.162 26.26-2.577-4.464-7.429-12.867h-5.155l10.006 17.332 2.578 4.464 2.578 4.465L71.82 98.72zm-30.323 0h-5.155 5.155z" fill="url(#aS)" transform="matrix(.34265 -.20187 .2014 .34345 147.146 148.509)"/><path d="M69.242 94.257H33.764l-2.578 4.464H61.51l-10.007 17.332 2.577 4.465L66.665 98.72z" fill="url(#aT)" transform="matrix(.34265 -.20187 .2014 .34345 147.146 148.509)"/><path d="M31.186 98.721l15.162 26.261 2.577 4.465h5.156l-2.578-4.465-2.578-4.464-10.006-17.332h20.013l2.578-4.465H36.34z" fill="url(#aU)" transform="matrix(.34265 -.20187 .2014 .34345 147.146 148.509)"/></g><g opacity=".349"><path d="M69.242 94.257l-15.162 26.26-2.577-4.464-7.429-12.867h-5.155l10.006 17.332 2.578 4.464 2.578 4.465L71.82 98.72zm-30.323 0h-5.155 5.155z" fill="url(#aV)" transform="matrix(.34265 -.20187 .2014 .34345 147.146 148.509)"/><path d="M69.242 94.257H33.764l-2.578 4.464H61.51l-10.007 17.332 2.577 4.465L66.665 98.72z" fill="url(#aW)" transform="matrix(.34265 -.20187 .2014 .34345 147.146 148.509)"/><path d="M31.186 98.721l15.162 26.261 2.577 4.465h5.156l-2.578-4.465-2.578-4.464-10.006-17.332h20.013l2.578-4.465H36.34z" fill="url(#aX)" transform="matrix(.34265 -.20187 .2014 .34345 147.146 148.509)"/></g><g opacity=".349"><path d="M69.242 94.257l-15.162 26.26-2.577-4.464-7.429-12.867h-5.155l10.006 17.332 2.578 4.464 2.578 4.465L71.82 98.72zm-30.323 0h-5.155 5.155z" fill="url(#aY)" transform="matrix(.34265 -.20187 .2014 .34345 147.146 148.509)"/><path d="M69.242 94.257H33.764l-2.578 4.464H61.51l-10.007 17.332 2.577 4.465L66.665 98.72z" fill="url(#aZ)" transform="matrix(.34265 -.20187 .2014 .34345 147.146 148.509)"/><path d="M31.186 98.721l15.162 26.261 2.577 4.465h5.156l-2.578-4.465-2.578-4.464-10.006-17.332h20.013l2.578-4.465H36.34z" fill="url(#ba)" transform="matrix(.34265 -.20187 .2014 .34345 147.146 148.509)"/></g><g opacity=".349"><path d="M69.242 94.257l-15.162 26.26-2.577-4.464-7.429-12.867h-5.155l10.006 17.332 2.578 4.464 2.578 4.465L71.82 98.72zm-30.323 0h-5.155 5.155z" fill="url(#bb)" transform="matrix(.34265 -.20187 .2014 .34345 147.146 148.509)"/><path d="M69.242 94.257H33.764l-2.578 4.464H61.51l-10.007 17.332 2.577 4.465L66.665 98.72z" fill="url(#bc)" transform="matrix(.34265 -.20187 .2014 .34345 147.146 148.509)"/><path d="M31.186 98.721l15.162 26.261 2.577 4.465h5.156l-2.578-4.465-2.578-4.464-10.006-17.332h20.013l2.578-4.465H36.34z" fill="url(#bd)" transform="matrix(.34265 -.20187 .2014 .34345 147.146 148.509)"/></g><g opacity=".349"><path d="M69.242 94.257l-15.162 26.26-2.577-4.464-7.429-12.867h-5.155l10.006 17.332 2.578 4.464 2.578 4.465L71.82 98.72zm-30.323 0h-5.155 5.155z" fill="url(#be)" transform="matrix(.34265 -.20187 .2014 .34345 147.146 148.509)"/><path d="M69.242 94.257H33.764l-2.578 4.464H61.51l-10.007 17.332 2.577 4.465L66.665 98.72z" fill="url(#bf)" transform="matrix(.34265 -.20187 .2014 .34345 147.146 148.509)"/><path d="M31.186 98.721l15.162 26.261 2.577 4.465h5.156l-2.578-4.465-2.578-4.464-10.006-17.332h20.013l2.578-4.465H36.34z" fill="url(#bg)" transform="matrix(.34265 -.20187 .2014 .34345 147.146 148.509)"/></g><g opacity=".349"><path d="M69.242 94.257l-15.162 26.26-2.577-4.464-7.429-12.867h-5.155l10.006 17.332 2.578 4.464 2.578 4.465L71.82 98.72zm-30.323 0h-5.155 5.155z" fill="url(#bh)" transform="matrix(.3386 -.19948 .19901 .33939 -3.811 120.27)"/><path d="M69.242 94.257H33.764l-2.578 4.464H61.51l-10.007 17.332 2.577 4.465L66.665 98.72z" fill="url(#bi)" transform="matrix(.3386 -.19948 .19901 .33939 -3.811 120.27)"/><path d="M31.186 98.721l15.162 26.261 2.577 4.465h5.156l-2.578-4.465-2.578-4.464-10.006-17.332h20.013l2.578-4.465H36.34z" fill="url(#bj)" transform="matrix(.3386 -.19948 .19901 .33939 -3.811 120.27)"/></g><g opacity=".349"><path d="M69.242 94.257l-15.162 26.26-2.577-4.464-7.429-12.867h-5.155l10.006 17.332 2.578 4.464 2.578 4.465L71.82 98.72zm-30.323 0h-5.155 5.155z" fill="url(#bk)" transform="matrix(.3386 -.19948 .19901 .33939 -3.811 120.27)"/><path d="M69.242 94.257H33.764l-2.578 4.464H61.51l-10.007 17.332 2.577 4.465L66.665 98.72z" fill="url(#bl)" transform="matrix(.3386 -.19948 .19901 .33939 -3.811 120.27)"/><path d="M31.186 98.721l15.162 26.261 2.577 4.465h5.156l-2.578-4.465-2.578-4.464-10.006-17.332h20.013l2.578-4.465H36.34z" fill="url(#bm)" transform="matrix(.3386 -.19948 .19901 .33939 -3.811 120.27)"/></g><g opacity=".349"><path d="M69.242 94.257l-15.162 26.26-2.577-4.464-7.429-12.867h-5.155l10.006 17.332 2.578 4.464 2.578 4.465L71.82 98.72zm-30.323 0h-5.155 5.155z" fill="url(#bn)" transform="matrix(.3386 -.19948 .19901 .33939 -3.811 120.27)"/><path d="M69.242 94.257H33.764l-2.578 4.464H61.51l-10.007 17.332 2.577 4.465L66.665 98.72z" fill="url(#bo)" transform="matrix(.3386 -.19948 .19901 .33939 -3.811 120.27)"/><path d="M31.186 98.721l15.162 26.261 2.577 4.465h5.156l-2.578-4.465-2.578-4.464-10.006-17.332h20.013l2.578-4.465H36.34z" fill="url(#bp)" transform="matrix(.3386 -.19948 .19901 .33939 -3.811 120.27)"/></g><g opacity=".349"><path d="M69.242 94.257l-15.162 26.26-2.577-4.464-7.429-12.867h-5.155l10.006 17.332 2.578 4.464 2.578 4.465L71.82 98.72zm-30.323 0h-5.155 5.155z" fill="url(#bq)" transform="matrix(.3386 -.19948 .19901 .33939 -3.811 120.27)"/><path d="M69.242 94.257H33.764l-2.578 4.464H61.51l-10.007 17.332 2.577 4.465L66.665 98.72z" fill="url(#br)" transform="matrix(.3386 -.19948 .19901 .33939 -3.811 120.27)"/><path d="M31.186 98.721l15.162 26.261 2.577 4.465h5.156l-2.578-4.465-2.578-4.464-10.006-17.332h20.013l2.578-4.465H36.34z" fill="url(#bs)" transform="matrix(.3386 -.19948 .19901 .33939 -3.811 120.27)"/></g><g opacity=".349"><path d="M69.242 94.257l-15.162 26.26-2.577-4.464-7.429-12.867h-5.155l10.006 17.332 2.578 4.464 2.578 4.465L71.82 98.72zm-30.323 0h-5.155 5.155z" fill="url(#bt)" transform="matrix(.3386 -.19948 .19901 .33939 -3.811 120.27)"/><path d="M69.242 94.257H33.764l-2.578 4.464H61.51l-10.007 17.332 2.577 4.465L66.665 98.72z" fill="url(#bu)" transform="matrix(.3386 -.19948 .19901 .33939 -3.811 120.27)"/><path d="M31.186 98.721l15.162 26.261 2.577 4.465h5.156l-2.578-4.465-2.578-4.464-10.006-17.332h20.013l2.578-4.465H36.34z" fill="url(#bv)" transform="matrix(.3386 -.19948 .19901 .33939 -3.811 120.27)"/></g><g opacity=".349"><path d="M69.242 94.257l-15.162 26.26-2.577-4.464-7.429-12.867h-5.155l10.006 17.332 2.578 4.464 2.578 4.465L71.82 98.72zm-30.323 0h-5.155 5.155z" fill="url(#bw)" transform="matrix(.3386 -.19948 .19901 .33939 -3.811 120.27)"/><path d="M69.242 94.257H33.764l-2.578 4.464H61.51l-10.007 17.332 2.577 4.465L66.665 98.72z" fill="url(#bx)" transform="matrix(.3386 -.19948 .19901 .33939 -3.811 120.27)"/><path d="M31.186 98.721l15.162 26.261 2.577 4.465h5.156l-2.578-4.465-2.578-4.464-10.006-17.332h20.013l2.578-4.465H36.34z" fill="url(#by)" transform="matrix(.3386 -.19948 .19901 .33939 -3.811 120.27)"/></g><g opacity=".349"><path d="M69.242 94.257l-15.162 26.26-2.577-4.464-7.429-12.867h-5.155l10.006 17.332 2.578 4.464 2.578 4.465L71.82 98.72zm-30.323 0h-5.155 5.155z" fill="url(#bz)" transform="matrix(.3386 -.19948 .19901 .33939 -3.811 120.27)"/><path d="M69.242 94.257H33.764l-2.578 4.464H61.51l-10.007 17.332 2.577 4.465L66.665 98.72z" fill="url(#bA)" transform="matrix(.3386 -.19948 .19901 .33939 -3.811 120.27)"/><path d="M31.186 98.721l15.162 26.261 2.577 4.465h5.156l-2.578-4.465-2.578-4.464-10.006-17.332h20.013l2.578-4.465H36.34z" fill="url(#bB)" transform="matrix(.3386 -.19948 .19901 .33939 -3.811 120.27)"/></g><path d="M81.986 238.405l-10.638-11.748-4.856 15.086zm-5.148-1.657l-6.337 1.366 1.986-6.17z" opacity=".349" fill="#f55"/><g opacity=".349"><path d="M69.242 94.257l-15.162 26.26-2.577-4.464-7.429-12.867h-5.155l10.006 17.332 2.578 4.464 2.578 4.465L71.82 98.72zm-30.323 0h-5.155 5.155z" fill="url(#bC)" transform="matrix(.3386 -.19948 .19901 .33939 125.446 6.866)"/><path d="M69.242 94.257H33.764l-2.578 4.464H61.51l-10.007 17.332 2.577 4.465L66.665 98.72z" fill="url(#bD)" transform="matrix(.3386 -.19948 .19901 .33939 125.446 6.866)"/><path d="M31.186 98.721l15.162 26.261 2.577 4.465h5.156l-2.578-4.465-2.578-4.464-10.006-17.332h20.013l2.578-4.465H36.34z" fill="url(#bE)" transform="matrix(.3386 -.19948 .19901 .33939 125.446 6.866)"/></g><g opacity=".349"><path d="M69.242 94.257l-15.162 26.26-2.577-4.464-7.429-12.867h-5.155l10.006 17.332 2.578 4.464 2.578 4.465L71.82 98.72zm-30.323 0h-5.155 5.155z" fill="url(#bF)" transform="matrix(.3386 -.19948 .19901 .33939 125.446 6.866)"/><path d="M69.242 94.257H33.764l-2.578 4.464H61.51l-10.007 17.332 2.577 4.465L66.665 98.72z" fill="url(#bG)" transform="matrix(.3386 -.19948 .19901 .33939 125.446 6.866)"/><path d="M31.186 98.721l15.162 26.261 2.577 4.465h5.156l-2.578-4.465-2.578-4.464-10.006-17.332h20.013l2.578-4.465H36.34z" fill="url(#bH)" transform="matrix(.3386 -.19948 .19901 .33939 125.446 6.866)"/></g><g opacity=".349"><path d="M69.242 94.257l-15.162 26.26-2.577-4.464-7.429-12.867h-5.155l10.006 17.332 2.578 4.464 2.578 4.465L71.82 98.72zm-30.323 0h-5.155 5.155z" fill="url(#bI)" transform="matrix(.3386 -.19948 .19901 .33939 125.446 6.866)"/><path d="M69.242 94.257H33.764l-2.578 4.464H61.51l-10.007 17.332 2.577 4.465L66.665 98.72z" fill="url(#bJ)" transform="matrix(.3386 -.19948 .19901 .33939 125.446 6.866)"/><path d="M31.186 98.721l15.162 26.261 2.577 4.465h5.156l-2.578-4.465-2.578-4.464-10.006-17.332h20.013l2.578-4.465H36.34z" fill="url(#bK)" transform="matrix(.3386 -.19948 .19901 .33939 125.446 6.866)"/></g><g opacity=".349"><path d="M69.242 94.257l-15.162 26.26-2.577-4.464-7.429-12.867h-5.155l10.006 17.332 2.578 4.464 2.578 4.465L71.82 98.72zm-30.323 0h-5.155 5.155z" fill="url(#bL)" transform="matrix(.3386 -.19948 .19901 .33939 125.446 6.866)"/><path d="M69.242 94.257H33.764l-2.578 4.464H61.51l-10.007 17.332 2.577 4.465L66.665 98.72z" fill="url(#bM)" transform="matrix(.3386 -.19948 .19901 .33939 125.446 6.866)"/><path d="M31.186 98.721l15.162 26.261 2.577 4.465h5.156l-2.578-4.465-2.578-4.464-10.006-17.332h20.013l2.578-4.465H36.34z" fill="url(#bN)" transform="matrix(.3386 -.19948 .19901 .33939 125.446 6.866)"/></g><g opacity=".349"><path d="M69.242 94.257l-15.162 26.26-2.577-4.464-7.429-12.867h-5.155l10.006 17.332 2.578 4.464 2.578 4.465L71.82 98.72zm-30.323 0h-5.155 5.155z" fill="url(#bO)" transform="matrix(.3386 -.19948 .19901 .33939 125.446 6.866)"/><path d="M69.242 94.257H33.764l-2.578 4.464H61.51l-10.007 17.332 2.577 4.465L66.665 98.72z" fill="url(#bP)" transform="matrix(.3386 -.19948 .19901 .33939 125.446 6.866)"/><path d="M31.186 98.721l15.162 26.261 2.577 4.465h5.156l-2.578-4.465-2.578-4.464-10.006-17.332h20.013l2.578-4.465H36.34z" fill="url(#bQ)" transform="matrix(.3386 -.19948 .19901 .33939 125.446 6.866)"/></g><g opacity=".349"><path d="M69.242 94.257l-15.162 26.26-2.577-4.464-7.429-12.867h-5.155l10.006 17.332 2.578 4.464 2.578 4.465L71.82 98.72zm-30.323 0h-5.155 5.155z" fill="url(#bR)" transform="matrix(.3386 -.19948 .19901 .33939 125.446 6.866)"/><path d="M69.242 94.257H33.764l-2.578 4.464H61.51l-10.007 17.332 2.577 4.465L66.665 98.72z" fill="url(#bS)" transform="matrix(.3386 -.19948 .19901 .33939 125.446 6.866)"/><path d="M31.186 98.721l15.162 26.261 2.577 4.465h5.156l-2.578-4.465-2.578-4.464-10.006-17.332h20.013l2.578-4.465H36.34z" fill="url(#bT)" transform="matrix(.3386 -.19948 .19901 .33939 125.446 6.866)"/></g><g opacity=".349"><path d="M69.242 94.257l-15.162 26.26-2.577-4.464-7.429-12.867h-5.155l10.006 17.332 2.578 4.464 2.578 4.465L71.82 98.72zm-30.323 0h-5.155 5.155z" fill="url(#bU)" transform="matrix(.3386 -.19948 .19901 .33939 125.446 6.866)"/><path d="M69.242 94.257H33.764l-2.578 4.464H61.51l-10.007 17.332 2.577 4.465L66.665 98.72z" fill="url(#bV)" transform="matrix(.3386 -.19948 .19901 .33939 125.446 6.866)"/><path d="M31.186 98.721l15.162 26.261 2.577 4.465h5.156l-2.578-4.465-2.578-4.464-10.006-17.332h20.013l2.578-4.465H36.34z" fill="url(#bW)" transform="matrix(.3386 -.19948 .19901 .33939 125.446 6.866)"/></g><path d="M244.272 191.847h-15.849l7.925 13.726zm-4.683 2.704l-3.241 5.614-3.241-5.614z" opacity=".349" fill="#ff0"/><path d="M157.018 246.97l-10.638-11.749-4.856 15.087zm-5.148-1.657l-6.337 1.365 1.986-6.17z" opacity=".349" fill="#4ba6bd"/><path d="M269.907 159.992l-43.299 74.994-7.36-12.749-21.215-36.746H183.31l28.576 49.495 7.36 12.75 7.362 12.75 50.658-87.745zm-86.596 0h-14.722 14.722z" fill="url(#bX)" transform="translate(-202.59 -188.83) scale(1.52741)"/><path d="M269.907 159.992H168.589l-7.36 12.75h86.595l-28.577 49.495 7.361 12.75 35.938-62.245z" fill="url(#bY)" transform="translate(-202.59 -188.83) scale(1.52741)"/><path d="M161.228 172.742l43.298 74.994 7.361 12.75h14.722l-7.361-12.75-7.361-12.75-28.576-49.495h57.152l7.361-12.749H175.95z" fill="url(#bZ)" transform="translate(-202.59 -188.83) scale(1.52741)"/></svg>