<svg xmlns="http://www.w3.org/2000/svg" xmlns:xlink="http://www.w3.org/1999/xlink" width="1000" height="1000" viewBox="0 0 264.583 264.583"><defs><linearGradient id="d"><stop offset="0" stop-color="#fff"/><stop offset="1" stop-color="#f2f2f2"/></linearGradient><linearGradient id="a"><stop offset="0" stop-color="#2a8298"/><stop offset="1" stop-color="#4fb5cf" stop-opacity=".882"/></linearGradient><linearGradient id="b"><stop offset="0" stop-color="#87cdde"/><stop offset="1" stop-color="#008fb2"/></linearGradient><linearGradient id="c"><stop offset="0" stop-color="#003c4a"/><stop offset="1" stop-color="#0089aa"/></linearGradient><linearGradient xlink:href="#a" id="cc" gradientUnits="userSpaceOnUse" gradientTransform="rotate(60 98.295 196.457) scale(.26458)" x1="496.269" y1="443.527" x2="678.891" y2="279.939"/><linearGradient xlink:href="#b" id="cd" gradientUnits="userSpaceOnUse" gradientTransform="rotate(60 98.295 196.457) scale(.26458)" x1="576.397" y1="309.597" x2="690.02" y2="306.258"/><linearGradient xlink:href="#c" id="ce" gradientUnits="userSpaceOnUse" gradientTransform="rotate(60 173.64 239.96)" x1="152.52" y1="142.106" x2="150.474" y2="191.086"/><radialGradient xlink:href="#d" id="h" cx="123.119" cy="171.938" fx="123.119" fy="171.938" r="132.292" gradientUnits="userSpaceOnUse" gradientTransform="matrix(1.53862 0 0 1.44959 -66.314 -77.301)"/><linearGradient id="e"><stop offset="0" stop-color="#ccc"/><stop offset="1" stop-color="#ccc"/></linearGradient><linearGradient id="f"><stop offset="0" stop-color="#ececec"/><stop offset="1" stop-color="#b3b3b3"/></linearGradient><linearGradient id="g"><stop offset="0" stop-color="#b3b3b3"/><stop offset="1" stop-color="#e6e6e6"/></linearGradient><linearGradient xlink:href="#e" id="bW" gradientUnits="userSpaceOnUse" gradientTransform="rotate(60 -11.325 66.024) scale(.09265)" x1="496.269" y1="443.527" x2="678.891" y2="279.939"/><linearGradient xlink:href="#f" id="bX" gradientUnits="userSpaceOnUse" gradientTransform="rotate(60 -11.325 66.024) scale(.09265)" x1="576.397" y1="309.597" x2="690.02" y2="306.258"/><linearGradient xlink:href="#g" id="bY" gradientUnits="userSpaceOnUse" gradientTransform="rotate(60 15.059 81.256) scale(.35017)" x1="152.52" y1="142.106" x2="150.474" y2="191.086"/><linearGradient xlink:href="#e" id="i" gradientUnits="userSpaceOnUse" gradientTransform="rotate(60 -11.325 66.024) scale(.09265)" x1="496.269" y1="443.527" x2="678.891" y2="279.939"/><linearGradient xlink:href="#f" id="j" gradientUnits="userSpaceOnUse" gradientTransform="rotate(60 -11.325 66.024) scale(.09265)" x1="576.397" y1="309.597" x2="690.02" y2="306.258"/><linearGradient xlink:href="#g" id="k" gradientUnits="userSpaceOnUse" gradientTransform="rotate(60 15.059 81.256) scale(.35017)" x1="152.52" y1="142.106" x2="150.474" y2="191.086"/><linearGradient xlink:href="#e" id="l" gradientUnits="userSpaceOnUse" gradientTransform="rotate(60 -11.325 66.024) scale(.09265)" x1="496.269" y1="443.527" x2="678.891" y2="279.939"/><linearGradient xlink:href="#f" id="m" gradientUnits="userSpaceOnUse" gradientTransform="rotate(60 -11.325 66.024) scale(.09265)" x1="576.397" y1="309.597" x2="690.02" y2="306.258"/><linearGradient xlink:href="#g" id="n" gradientUnits="userSpaceOnUse" gradientTransform="rotate(60 15.059 81.256) scale(.35017)" x1="152.52" y1="142.106" x2="150.474" y2="191.086"/><linearGradient xlink:href="#e" id="o" gradientUnits="userSpaceOnUse" gradientTransform="rotate(60 -11.325 66.024) scale(.09265)" x1="496.269" y1="443.527" x2="678.891" y2="279.939"/><linearGradient xlink:href="#f" id="p" gradientUnits="userSpaceOnUse" gradientTransform="rotate(60 -11.325 66.024) scale(.09265)" x1="576.397" y1="309.597" x2="690.02" y2="306.258"/><linearGradient xlink:href="#g" id="q" gradientUnits="userSpaceOnUse" gradientTransform="rotate(60 15.059 81.256) scale(.35017)" x1="152.52" y1="142.106" x2="150.474" y2="191.086"/><linearGradient xlink:href="#e" id="r" gradientUnits="userSpaceOnUse" gradientTransform="rotate(60 -11.325 66.024) scale(.09265)" x1="496.269" y1="443.527" x2="678.891" y2="279.939"/><linearGradient xlink:href="#f" id="s" gradientUnits="userSpaceOnUse" gradientTransform="rotate(60 -11.325 66.024) scale(.09265)" x1="576.397" y1="309.597" x2="690.02" y2="306.258"/><linearGradient xlink:href="#g" id="t" gradientUnits="userSpaceOnUse" gradientTransform="rotate(60 15.059 81.256) scale(.35017)" x1="152.52" y1="142.106" x2="150.474" y2="191.086"/><linearGradient xlink:href="#e" id="u" gradientUnits="userSpaceOnUse" gradientTransform="rotate(60 -11.325 66.024) scale(.09265)" x1="496.269" y1="443.527" x2="678.891" y2="279.939"/><linearGradient xlink:href="#f" id="v" gradientUnits="userSpaceOnUse" gradientTransform="rotate(60 -11.325 66.024) scale(.09265)" x1="576.397" y1="309.597" x2="690.02" y2="306.258"/><linearGradient xlink:href="#g" id="w" gradientUnits="userSpaceOnUse" gradientTransform="rotate(60 15.059 81.256) scale(.35017)" x1="152.52" y1="142.106" x2="150.474" y2="191.086"/><linearGradient xlink:href="#e" id="x" gradientUnits="userSpaceOnUse" gradientTransform="rotate(60 -11.325 66.024) scale(.09265)" x1="496.269" y1="443.527" x2="678.891" y2="279.939"/><linearGradient xlink:href="#f" id="y" gradientUnits="userSpaceOnUse" gradientTransform="rotate(60 -11.325 66.024) scale(.09265)" x1="576.397" y1="309.597" x2="690.02" y2="306.258"/><linearGradient xlink:href="#g" id="z" gradientUnits="userSpaceOnUse" gradientTransform="rotate(60 15.059 81.256) scale(.35017)" x1="152.52" y1="142.106" x2="150.474" y2="191.086"/><linearGradient xlink:href="#e" id="A" gradientUnits="userSpaceOnUse" gradientTransform="rotate(60 -11.325 66.024) scale(.09265)" x1="496.269" y1="443.527" x2="678.891" y2="279.939"/><linearGradient xlink:href="#f" id="B" gradientUnits="userSpaceOnUse" gradientTransform="rotate(60 -11.325 66.024) scale(.09265)" x1="576.397" y1="309.597" x2="690.02" y2="306.258"/><linearGradient xlink:href="#g" id="C" gradientUnits="userSpaceOnUse" gradientTransform="rotate(60 15.059 81.256) scale(.35017)" x1="152.52" y1="142.106" x2="150.474" y2="191.086"/><linearGradient xlink:href="#e" id="D" gradientUnits="userSpaceOnUse" gradientTransform="rotate(60 -11.325 66.024) scale(.09265)" x1="496.269" y1="443.527" x2="678.891" y2="279.939"/><linearGradient xlink:href="#f" id="E" gradientUnits="userSpaceOnUse" gradientTransform="rotate(60 -11.325 66.024) scale(.09265)" x1="576.397" y1="309.597" x2="690.02" y2="306.258"/><linearGradient xlink:href="#g" id="F" gradientUnits="userSpaceOnUse" gradientTransform="rotate(60 15.059 81.256) scale(.35017)" x1="152.52" y1="142.106" x2="150.474" y2="191.086"/><linearGradient xlink:href="#e" id="G" gradientUnits="userSpaceOnUse" gradientTransform="rotate(60 -11.325 66.024) scale(.09265)" x1="496.269" y1="443.527" x2="678.891" y2="279.939"/><linearGradient xlink:href="#f" id="H" gradientUnits="userSpaceOnUse" gradientTransform="rotate(60 -11.325 66.024) scale(.09265)" x1="576.397" y1="309.597" x2="690.02" y2="306.258"/><linearGradient xlink:href="#g" id="I" gradientUnits="userSpaceOnUse" gradientTransform="rotate(60 15.059 81.256) scale(.35017)" x1="152.52" y1="142.106" x2="150.474" y2="191.086"/><linearGradient xlink:href="#e" id="J" gradientUnits="userSpaceOnUse" gradientTransform="rotate(60 -11.325 66.024) scale(.09265)" x1="496.269" y1="443.527" x2="678.891" y2="279.939"/><linearGradient xlink:href="#f" id="K" gradientUnits="userSpaceOnUse" gradientTransform="rotate(60 -11.325 66.024) scale(.09265)" x1="576.397" y1="309.597" x2="690.02" y2="306.258"/><linearGradient xlink:href="#g" id="L" gradientUnits="userSpaceOnUse" gradientTransform="rotate(60 15.059 81.256) scale(.35017)" x1="152.52" y1="142.106" x2="150.474" y2="191.086"/><linearGradient xlink:href="#e" id="M" gradientUnits="userSpaceOnUse" gradientTransform="rotate(60 -11.325 66.024) scale(.09265)" x1="496.269" y1="443.527" x2="678.891" y2="279.939"/><linearGradient xlink:href="#f" id="N" gradientUnits="userSpaceOnUse" gradientTransform="rotate(60 -11.325 66.024) scale(.09265)" x1="576.397" y1="309.597" x2="690.02" y2="306.258"/><linearGradient xlink:href="#g" id="O" gradientUnits="userSpaceOnUse" gradientTransform="rotate(60 15.059 81.256) scale(.35017)" x1="152.52" y1="142.106" x2="150.474" y2="191.086"/><linearGradient xlink:href="#e" id="P" gradientUnits="userSpaceOnUse" gradientTransform="rotate(60 -11.325 66.024) scale(.09265)" x1="496.269" y1="443.527" x2="678.891" y2="279.939"/><linearGradient xlink:href="#f" id="Q" gradientUnits="userSpaceOnUse" gradientTransform="rotate(60 -11.325 66.024) scale(.09265)" x1="576.397" y1="309.597" x2="690.02" y2="306.258"/><linearGradient xlink:href="#g" id="R" gradientUnits="userSpaceOnUse" gradientTransform="rotate(60 15.059 81.256) scale(.35017)" x1="152.52" y1="142.106" x2="150.474" y2="191.086"/><linearGradient xlink:href="#e" id="S" gradientUnits="userSpaceOnUse" gradientTransform="rotate(60 -11.325 66.024) scale(.09265)" x1="496.269" y1="443.527" x2="678.891" y2="279.939"/><linearGradient xlink:href="#f" id="T" gradientUnits="userSpaceOnUse" gradientTransform="rotate(60 -11.325 66.024) scale(.09265)" x1="576.397" y1="309.597" x2="690.02" y2="306.258"/><linearGradient xlink:href="#g" id="U" gradientUnits="userSpaceOnUse" gradientTransform="rotate(60 15.059 81.256) scale(.35017)" x1="152.52" y1="142.106" x2="150.474" y2="191.086"/><linearGradient xlink:href="#e" id="V" gradientUnits="userSpaceOnUse" gradientTransform="rotate(60 -11.325 66.024) scale(.09265)" x1="496.269" y1="443.527" x2="678.891" y2="279.939"/><linearGradient xlink:href="#f" id="W" gradientUnits="userSpaceOnUse" gradientTransform="rotate(60 -11.325 66.024) scale(.09265)" x1="576.397" y1="309.597" x2="690.02" y2="306.258"/><linearGradient xlink:href="#g" id="X" gradientUnits="userSpaceOnUse" gradientTransform="rotate(60 15.059 81.256) scale(.35017)" x1="152.52" y1="142.106" x2="150.474" y2="191.086"/><linearGradient xlink:href="#e" id="Y" gradientUnits="userSpaceOnUse" gradientTransform="rotate(60 -11.325 66.024) scale(.09265)" x1="496.269" y1="443.527" x2="678.891" y2="279.939"/><linearGradient xlink:href="#f" id="Z" gradientUnits="userSpaceOnUse" gradientTransform="rotate(60 -11.325 66.024) scale(.09265)" x1="576.397" y1="309.597" x2="690.02" y2="306.258"/><linearGradient xlink:href="#g" id="aa" gradientUnits="userSpaceOnUse" gradientTransform="rotate(60 15.059 81.256) scale(.35017)" x1="152.52" y1="142.106" x2="150.474" y2="191.086"/><linearGradient xlink:href="#e" id="ab" gradientUnits="userSpaceOnUse" gradientTransform="rotate(60 -11.325 66.024) scale(.09265)" x1="496.269" y1="443.527" x2="678.891" y2="279.939"/><linearGradient xlink:href="#f" id="ac" gradientUnits="userSpaceOnUse" gradientTransform="rotate(60 -11.325 66.024) scale(.09265)" x1="576.397" y1="309.597" x2="690.02" y2="306.258"/><linearGradient xlink:href="#g" id="ad" gradientUnits="userSpaceOnUse" gradientTransform="rotate(60 15.059 81.256) scale(.35017)" x1="152.52" y1="142.106" x2="150.474" y2="191.086"/><linearGradient xlink:href="#e" id="ae" gradientUnits="userSpaceOnUse" gradientTransform="rotate(60 -11.325 66.024) scale(.09265)" x1="496.269" y1="443.527" x2="678.891" y2="279.939"/><linearGradient xlink:href="#f" id="af" gradientUnits="userSpaceOnUse" gradientTransform="rotate(60 -11.325 66.024) scale(.09265)" x1="576.397" y1="309.597" x2="690.02" y2="306.258"/><linearGradient xlink:href="#g" id="ag" gradientUnits="userSpaceOnUse" gradientTransform="rotate(60 15.059 81.256) scale(.35017)" x1="152.52" y1="142.106" x2="150.474" y2="191.086"/><linearGradient xlink:href="#e" id="ah" gradientUnits="userSpaceOnUse" gradientTransform="rotate(60 -11.325 66.024) scale(.09265)" x1="496.269" y1="443.527" x2="678.891" y2="279.939"/><linearGradient xlink:href="#f" id="ai" gradientUnits="userSpaceOnUse" gradientTransform="rotate(60 -11.325 66.024) scale(.09265)" x1="576.397" y1="309.597" x2="690.02" y2="306.258"/><linearGradient xlink:href="#g" id="aj" gradientUnits="userSpaceOnUse" gradientTransform="rotate(60 15.059 81.256) scale(.35017)" x1="152.52" y1="142.106" x2="150.474" y2="191.086"/><linearGradient xlink:href="#e" id="ak" gradientUnits="userSpaceOnUse" gradientTransform="rotate(60 -11.325 66.024) scale(.09265)" x1="496.269" y1="443.527" x2="678.891" y2="279.939"/><linearGradient xlink:href="#f" id="al" gradientUnits="userSpaceOnUse" gradientTransform="rotate(60 -11.325 66.024) scale(.09265)" x1="576.397" y1="309.597" x2="690.02" y2="306.258"/><linearGradient xlink:href="#g" id="am" gradientUnits="userSpaceOnUse" gradientTransform="rotate(60 15.059 81.256) scale(.35017)" x1="152.52" y1="142.106" x2="150.474" y2="191.086"/><linearGradient xlink:href="#e" id="an" gradientUnits="userSpaceOnUse" gradientTransform="rotate(60 -11.325 66.024) scale(.09265)" x1="496.269" y1="443.527" x2="678.891" y2="279.939"/><linearGradient xlink:href="#f" id="ao" gradientUnits="userSpaceOnUse" gradientTransform="rotate(60 -11.325 66.024) scale(.09265)" x1="576.397" y1="309.597" x2="690.02" y2="306.258"/><linearGradient xlink:href="#g" id="ap" gradientUnits="userSpaceOnUse" gradientTransform="rotate(60 15.059 81.256) scale(.35017)" x1="152.52" y1="142.106" x2="150.474" y2="191.086"/><linearGradient xlink:href="#e" id="aq" gradientUnits="userSpaceOnUse" gradientTransform="rotate(60 -11.325 66.024) scale(.09265)" x1="496.269" y1="443.527" x2="678.891" y2="279.939"/><linearGradient xlink:href="#f" id="ar" gradientUnits="userSpaceOnUse" gradientTransform="rotate(60 -11.325 66.024) scale(.09265)" x1="576.397" y1="309.597" x2="690.02" y2="306.258"/><linearGradient xlink:href="#g" id="as" gradientUnits="userSpaceOnUse" gradientTransform="rotate(60 15.059 81.256) scale(.35017)" x1="152.52" y1="142.106" x2="150.474" y2="191.086"/><linearGradient xlink:href="#e" id="at" gradientUnits="userSpaceOnUse" gradientTransform="rotate(60 -11.325 66.024) scale(.09265)" x1="496.269" y1="443.527" x2="678.891" y2="279.939"/><linearGradient xlink:href="#f" id="au" gradientUnits="userSpaceOnUse" gradientTransform="rotate(60 -11.325 66.024) scale(.09265)" x1="576.397" y1="309.597" x2="690.02" y2="306.258"/><linearGradient xlink:href="#g" id="av" gradientUnits="userSpaceOnUse" gradientTransform="rotate(60 15.059 81.256) scale(.35017)" x1="152.52" y1="142.106" x2="150.474" y2="191.086"/><linearGradient xlink:href="#e" id="aw" gradientUnits="userSpaceOnUse" gradientTransform="rotate(60 -11.325 66.024) scale(.09265)" x1="496.269" y1="443.527" x2="678.891" y2="279.939"/><linearGradient xlink:href="#f" id="ax" gradientUnits="userSpaceOnUse" gradientTransform="rotate(60 -11.325 66.024) scale(.09265)" x1="576.397" y1="309.597" x2="690.02" y2="306.258"/><linearGradient xlink:href="#g" id="ay" gradientUnits="userSpaceOnUse" gradientTransform="rotate(60 15.059 81.256) scale(.35017)" x1="152.52" y1="142.106" x2="150.474" y2="191.086"/><linearGradient xlink:href="#e" id="az" gradientUnits="userSpaceOnUse" gradientTransform="rotate(60 -11.325 66.024) scale(.09265)" x1="496.269" y1="443.527" x2="678.891" y2="279.939"/><linearGradient xlink:href="#f" id="aA" gradientUnits="userSpaceOnUse" gradientTransform="rotate(60 -11.325 66.024) scale(.09265)" x1="576.397" y1="309.597" x2="690.02" y2="306.258"/><linearGradient xlink:href="#g" id="aB" gradientUnits="userSpaceOnUse" gradientTransform="rotate(60 15.059 81.256) scale(.35017)" x1="152.52" y1="142.106" x2="150.474" y2="191.086"/><linearGradient xlink:href="#e" id="aC" gradientUnits="userSpaceOnUse" gradientTransform="rotate(60 -11.325 66.024) scale(.09265)" x1="496.269" y1="443.527" x2="678.891" y2="279.939"/><linearGradient xlink:href="#f" id="aD" gradientUnits="userSpaceOnUse" gradientTransform="rotate(60 -11.325 66.024) scale(.09265)" x1="576.397" y1="309.597" x2="690.02" y2="306.258"/><linearGradient xlink:href="#g" id="aE" gradientUnits="userSpaceOnUse" gradientTransform="rotate(60 15.059 81.256) scale(.35017)" x1="152.52" y1="142.106" x2="150.474" y2="191.086"/><linearGradient xlink:href="#e" id="aF" gradientUnits="userSpaceOnUse" gradientTransform="rotate(60 -11.325 66.024) scale(.09265)" x1="496.269" y1="443.527" x2="678.891" y2="279.939"/><linearGradient xlink:href="#f" id="aG" gradientUnits="userSpaceOnUse" gradientTransform="rotate(60 -11.325 66.024) scale(.09265)" x1="576.397" y1="309.597" x2="690.02" y2="306.258"/><linearGradient xlink:href="#g" id="aH" gradientUnits="userSpaceOnUse" gradientTransform="rotate(60 15.059 81.256) scale(.35017)" x1="152.52" y1="142.106" x2="150.474" y2="191.086"/><linearGradient xlink:href="#e" id="aI" gradientUnits="userSpaceOnUse" gradientTransform="rotate(60 -11.325 66.024) scale(.09265)" x1="496.269" y1="443.527" x2="678.891" y2="279.939"/><linearGradient xlink:href="#f" id="aJ" gradientUnits="userSpaceOnUse" gradientTransform="rotate(60 -11.325 66.024) scale(.09265)" x1="576.397" y1="309.597" x2="690.02" y2="306.258"/><linearGradient xlink:href="#g" id="aK" gradientUnits="userSpaceOnUse" gradientTransform="rotate(60 15.059 81.256) scale(.35017)" x1="152.52" y1="142.106" x2="150.474" y2="191.086"/><linearGradient xlink:href="#e" id="aL" gradientUnits="userSpaceOnUse" gradientTransform="rotate(60 -11.325 66.024) scale(.09265)" x1="496.269" y1="443.527" x2="678.891" y2="279.939"/><linearGradient xlink:href="#f" id="aM" gradientUnits="userSpaceOnUse" gradientTransform="rotate(60 -11.325 66.024) scale(.09265)" x1="576.397" y1="309.597" x2="690.02" y2="306.258"/><linearGradient xlink:href="#g" id="aN" gradientUnits="userSpaceOnUse" gradientTransform="rotate(60 15.059 81.256) scale(.35017)" x1="152.52" y1="142.106" x2="150.474" y2="191.086"/><linearGradient xlink:href="#e" id="aO" gradientUnits="userSpaceOnUse" gradientTransform="rotate(60 -11.325 66.024) scale(.09265)" x1="496.269" y1="443.527" x2="678.891" y2="279.939"/><linearGradient xlink:href="#f" id="aP" gradientUnits="userSpaceOnUse" gradientTransform="rotate(60 -11.325 66.024) scale(.09265)" x1="576.397" y1="309.597" x2="690.02" y2="306.258"/><linearGradient xlink:href="#g" id="aQ" gradientUnits="userSpaceOnUse" gradientTransform="rotate(60 15.059 81.256) scale(.35017)" x1="152.52" y1="142.106" x2="150.474" y2="191.086"/><linearGradient xlink:href="#e" id="aR" gradientUnits="userSpaceOnUse" gradientTransform="rotate(60 -11.325 66.024) scale(.09265)" x1="496.269" y1="443.527" x2="678.891" y2="279.939"/><linearGradient xlink:href="#f" id="aS" gradientUnits="userSpaceOnUse" gradientTransform="rotate(60 -11.325 66.024) scale(.09265)" x1="576.397" y1="309.597" x2="690.02" y2="306.258"/><linearGradient xlink:href="#g" id="aT" gradientUnits="userSpaceOnUse" gradientTransform="rotate(60 15.059 81.256) scale(.35017)" x1="152.52" y1="142.106" x2="150.474" y2="191.086"/><linearGradient xlink:href="#e" id="aU" gradientUnits="userSpaceOnUse" gradientTransform="rotate(60 -11.325 66.024) scale(.09265)" x1="496.269" y1="443.527" x2="678.891" y2="279.939"/><linearGradient xlink:href="#f" id="aV" gradientUnits="userSpaceOnUse" gradientTransform="rotate(60 -11.325 66.024) scale(.09265)" x1="576.397" y1="309.597" x2="690.02" y2="306.258"/><linearGradient xlink:href="#g" id="aW" gradientUnits="userSpaceOnUse" gradientTransform="rotate(60 15.059 81.256) scale(.35017)" x1="152.52" y1="142.106" x2="150.474" y2="191.086"/><linearGradient xlink:href="#e" id="aX" gradientUnits="userSpaceOnUse" gradientTransform="rotate(60 -11.325 66.024) scale(.09265)" x1="496.269" y1="443.527" x2="678.891" y2="279.939"/><linearGradient xlink:href="#f" id="aY" gradientUnits="userSpaceOnUse" gradientTransform="rotate(60 -11.325 66.024) scale(.09265)" x1="576.397" y1="309.597" x2="690.02" y2="306.258"/><linearGradient xlink:href="#g" id="aZ" gradientUnits="userSpaceOnUse" gradientTransform="rotate(60 15.059 81.256) scale(.35017)" x1="152.52" y1="142.106" x2="150.474" y2="191.086"/><linearGradient xlink:href="#e" id="ba" gradientUnits="userSpaceOnUse" gradientTransform="rotate(60 -11.325 66.024) scale(.09265)" x1="496.269" y1="443.527" x2="678.891" y2="279.939"/><linearGradient xlink:href="#f" id="bb" gradientUnits="userSpaceOnUse" gradientTransform="rotate(60 -11.325 66.024) scale(.09265)" x1="576.397" y1="309.597" x2="690.02" y2="306.258"/><linearGradient xlink:href="#g" id="bc" gradientUnits="userSpaceOnUse" gradientTransform="rotate(60 15.059 81.256) scale(.35017)" x1="152.52" y1="142.106" x2="150.474" y2="191.086"/><linearGradient xlink:href="#e" id="bd" gradientUnits="userSpaceOnUse" gradientTransform="rotate(60 -11.325 66.024) scale(.09265)" x1="496.269" y1="443.527" x2="678.891" y2="279.939"/><linearGradient xlink:href="#f" id="be" gradientUnits="userSpaceOnUse" gradientTransform="rotate(60 -11.325 66.024) scale(.09265)" x1="576.397" y1="309.597" x2="690.02" y2="306.258"/><linearGradient xlink:href="#g" id="bf" gradientUnits="userSpaceOnUse" gradientTransform="rotate(60 15.059 81.256) scale(.35017)" x1="152.52" y1="142.106" x2="150.474" y2="191.086"/><linearGradient xlink:href="#e" id="bg" gradientUnits="userSpaceOnUse" gradientTransform="rotate(60 -11.325 66.024) scale(.09265)" x1="496.269" y1="443.527" x2="678.891" y2="279.939"/><linearGradient xlink:href="#f" id="bh" gradientUnits="userSpaceOnUse" gradientTransform="rotate(60 -11.325 66.024) scale(.09265)" x1="576.397" y1="309.597" x2="690.02" y2="306.258"/><linearGradient xlink:href="#g" id="bi" gradientUnits="userSpaceOnUse" gradientTransform="rotate(60 15.059 81.256) scale(.35017)" x1="152.52" y1="142.106" x2="150.474" y2="191.086"/><linearGradient xlink:href="#e" id="bj" gradientUnits="userSpaceOnUse" gradientTransform="rotate(60 -11.325 66.024) scale(.09265)" x1="496.269" y1="443.527" x2="678.891" y2="279.939"/><linearGradient xlink:href="#f" id="bk" gradientUnits="userSpaceOnUse" gradientTransform="rotate(60 -11.325 66.024) scale(.09265)" x1="576.397" y1="309.597" x2="690.02" y2="306.258"/><linearGradient xlink:href="#g" id="bl" gradientUnits="userSpaceOnUse" gradientTransform="rotate(60 15.059 81.256) scale(.35017)" x1="152.52" y1="142.106" x2="150.474" y2="191.086"/><linearGradient xlink:href="#e" id="bm" gradientUnits="userSpaceOnUse" gradientTransform="rotate(60 -11.325 66.024) scale(.09265)" x1="496.269" y1="443.527" x2="678.891" y2="279.939"/><linearGradient xlink:href="#f" id="bn" gradientUnits="userSpaceOnUse" gradientTransform="rotate(60 -11.325 66.024) scale(.09265)" x1="576.397" y1="309.597" x2="690.02" y2="306.258"/><linearGradient xlink:href="#g" id="bo" gradientUnits="userSpaceOnUse" gradientTransform="rotate(60 15.059 81.256) scale(.35017)" x1="152.52" y1="142.106" x2="150.474" y2="191.086"/><linearGradient xlink:href="#e" id="bp" gradientUnits="userSpaceOnUse" gradientTransform="rotate(60 -11.325 66.024) scale(.09265)" x1="496.269" y1="443.527" x2="678.891" y2="279.939"/><linearGradient xlink:href="#f" id="bq" gradientUnits="userSpaceOnUse" gradientTransform="rotate(60 -11.325 66.024) scale(.09265)" x1="576.397" y1="309.597" x2="690.02" y2="306.258"/><linearGradient xlink:href="#g" id="br" gradientUnits="userSpaceOnUse" gradientTransform="rotate(60 15.059 81.256) scale(.35017)" x1="152.52" y1="142.106" x2="150.474" y2="191.086"/><linearGradient xlink:href="#e" id="bs" gradientUnits="userSpaceOnUse" gradientTransform="rotate(60 -11.325 66.024) scale(.09265)" x1="496.269" y1="443.527" x2="678.891" y2="279.939"/><linearGradient xlink:href="#f" id="bt" gradientUnits="userSpaceOnUse" gradientTransform="rotate(60 -11.325 66.024) scale(.09265)" x1="576.397" y1="309.597" x2="690.02" y2="306.258"/><linearGradient xlink:href="#g" id="bu" gradientUnits="userSpaceOnUse" gradientTransform="rotate(60 15.059 81.256) scale(.35017)" x1="152.52" y1="142.106" x2="150.474" y2="191.086"/><linearGradient xlink:href="#e" id="bv" gradientUnits="userSpaceOnUse" gradientTransform="rotate(60 -11.325 66.024) scale(.09265)" x1="496.269" y1="443.527" x2="678.891" y2="279.939"/><linearGradient xlink:href="#f" id="bw" gradientUnits="userSpaceOnUse" gradientTransform="rotate(60 -11.325 66.024) scale(.09265)" x1="576.397" y1="309.597" x2="690.02" y2="306.258"/><linearGradient xlink:href="#g" id="bx" gradientUnits="userSpaceOnUse" gradientTransform="rotate(60 15.059 81.256) scale(.35017)" x1="152.52" y1="142.106" x2="150.474" y2="191.086"/><linearGradient xlink:href="#e" id="by" gradientUnits="userSpaceOnUse" gradientTransform="rotate(60 -11.325 66.024) scale(.09265)" x1="496.269" y1="443.527" x2="678.891" y2="279.939"/><linearGradient xlink:href="#f" id="bz" gradientUnits="userSpaceOnUse" gradientTransform="rotate(60 -11.325 66.024) scale(.09265)" x1="576.397" y1="309.597" x2="690.02" y2="306.258"/><linearGradient xlink:href="#g" id="bA" gradientUnits="userSpaceOnUse" gradientTransform="rotate(60 15.059 81.256) scale(.35017)" x1="152.52" y1="142.106" x2="150.474" y2="191.086"/><linearGradient xlink:href="#e" id="bB" gradientUnits="userSpaceOnUse" gradientTransform="rotate(60 -11.325 66.024) scale(.09265)" x1="496.269" y1="443.527" x2="678.891" y2="279.939"/><linearGradient xlink:href="#f" id="bC" gradientUnits="userSpaceOnUse" gradientTransform="rotate(60 -11.325 66.024) scale(.09265)" x1="576.397" y1="309.597" x2="690.02" y2="306.258"/><linearGradient xlink:href="#g" id="bD" gradientUnits="userSpaceOnUse" gradientTransform="rotate(60 15.059 81.256) scale(.35017)" x1="152.52" y1="142.106" x2="150.474" y2="191.086"/><linearGradient xlink:href="#e" id="bE" gradientUnits="userSpaceOnUse" gradientTransform="rotate(60 -11.325 66.024) scale(.09265)" x1="496.269" y1="443.527" x2="678.891" y2="279.939"/><linearGradient xlink:href="#f" id="bF" gradientUnits="userSpaceOnUse" gradientTransform="rotate(60 -11.325 66.024) scale(.09265)" x1="576.397" y1="309.597" x2="690.02" y2="306.258"/><linearGradient xlink:href="#g" id="bG" gradientUnits="userSpaceOnUse" gradientTransform="rotate(60 15.059 81.256) scale(.35017)" x1="152.52" y1="142.106" x2="150.474" y2="191.086"/><linearGradient xlink:href="#e" id="bH" gradientUnits="userSpaceOnUse" gradientTransform="rotate(60 -11.325 66.024) scale(.09265)" x1="496.269" y1="443.527" x2="678.891" y2="279.939"/><linearGradient xlink:href="#f" id="bI" gradientUnits="userSpaceOnUse" gradientTransform="rotate(60 -11.325 66.024) scale(.09265)" x1="576.397" y1="309.597" x2="690.02" y2="306.258"/><linearGradient xlink:href="#g" id="bJ" gradientUnits="userSpaceOnUse" gradientTransform="rotate(60 15.059 81.256) scale(.35017)" x1="152.52" y1="142.106" x2="150.474" y2="191.086"/><linearGradient xlink:href="#e" id="bK" gradientUnits="userSpaceOnUse" gradientTransform="rotate(60 -11.325 66.024) scale(.09265)" x1="496.269" y1="443.527" x2="678.891" y2="279.939"/><linearGradient xlink:href="#f" id="bL" gradientUnits="userSpaceOnUse" gradientTransform="rotate(60 -11.325 66.024) scale(.09265)" x1="576.397" y1="309.597" x2="690.02" y2="306.258"/><linearGradient xlink:href="#g" id="bM" gradientUnits="userSpaceOnUse" gradientTransform="rotate(60 15.059 81.256) scale(.35017)" x1="152.52" y1="142.106" x2="150.474" y2="191.086"/><linearGradient xlink:href="#e" id="bN" gradientUnits="userSpaceOnUse" gradientTransform="rotate(60 -11.325 66.024) scale(.09265)" x1="496.269" y1="443.527" x2="678.891" y2="279.939"/><linearGradient xlink:href="#f" id="bO" gradientUnits="userSpaceOnUse" gradientTransform="rotate(60 -11.325 66.024) scale(.09265)" x1="576.397" y1="309.597" x2="690.02" y2="306.258"/><linearGradient xlink:href="#g" id="bP" gradientUnits="userSpaceOnUse" gradientTransform="rotate(60 15.059 81.256) scale(.35017)" x1="152.52" y1="142.106" x2="150.474" y2="191.086"/><linearGradient xlink:href="#e" id="bQ" gradientUnits="userSpaceOnUse" gradientTransform="rotate(60 -11.325 66.024) scale(.09265)" x1="496.269" y1="443.527" x2="678.891" y2="279.939"/><linearGradient xlink:href="#f" id="bR" gradientUnits="userSpaceOnUse" gradientTransform="rotate(60 -11.325 66.024) scale(.09265)" x1="576.397" y1="309.597" x2="690.02" y2="306.258"/><linearGradient xlink:href="#g" id="bS" gradientUnits="userSpaceOnUse" gradientTransform="rotate(60 15.059 81.256) scale(.35017)" x1="152.52" y1="142.106" x2="150.474" y2="191.086"/><linearGradient xlink:href="#e" id="bT" gradientUnits="userSpaceOnUse" gradientTransform="rotate(60 -11.325 66.024) scale(.09265)" x1="496.269" y1="443.527" x2="678.891" y2="279.939"/><linearGradient xlink:href="#f" id="bU" gradientUnits="userSpaceOnUse" gradientTransform="rotate(60 -11.325 66.024) scale(.09265)" x1="576.397" y1="309.597" x2="690.02" y2="306.258"/><linearGradient xlink:href="#g" id="bV" gradientUnits="userSpaceOnUse" gradientTransform="rotate(60 15.059 81.256) scale(.35017)" x1="152.52" y1="142.106" x2="150.474" y2="191.086"/><linearGradient xlink:href="#a" id="bZ" x1="200.489" y1="230.763" x2="221.123" y2="230.763" gradientUnits="userSpaceOnUse"/><linearGradient xlink:href="#a" id="ca" gradientUnits="userSpaceOnUse" gradientTransform="translate(0 .204)" x1="177.915" y1="220.864" x2="197.283" y2="220.864"/><linearGradient xlink:href="#b" id="cb" gradientUnits="userSpaceOnUse" gradientTransform="translate(0 -.209)" x1="225.221" y1="220.244" x2="245.375" y2="220.244"/></defs><path fill="url(#h)" stroke-width="1.1" stroke-linecap="round" stroke-linejoin="round" stroke-dasharray="4.39999987,4.39999987" d="M0 0h264.583v264.583H0z"/><path d="M112.095 22.132h-15.85l7.925 13.725zm-4.684 2.704l-3.24 5.613-3.242-5.613z" opacity=".349" fill="#ff0"/><g opacity=".349"><path d="M69.242 94.257l-15.162 26.26-2.577-4.464-7.429-12.867h-5.155l10.006 17.332 2.578 4.464 2.578 4.465L71.82 98.72zm-30.323 0h-5.155 5.155z" fill="url(#i)" transform="rotate(-30.445 -45.399 54.22) scale(.69098)"/><path d="M69.242 94.257H33.764l-2.578 4.464H61.51l-10.007 17.332 2.577 4.465L66.665 98.72z" fill="url(#j)" transform="rotate(-30.445 -45.399 54.22) scale(.69098)"/><path d="M31.186 98.721l15.162 26.261 2.577 4.465h5.156l-2.578-4.465-2.578-4.464-10.006-17.332h20.013l2.578-4.465H36.34z" fill="url(#k)" transform="rotate(-30.445 -45.399 54.22) scale(.69098)"/></g><g opacity=".349"><path d="M69.242 94.257l-15.162 26.26-2.577-4.464-7.429-12.867h-5.155l10.006 17.332 2.578 4.464 2.578 4.465L71.82 98.72zm-30.323 0h-5.155 5.155z" fill="url(#l)" transform="rotate(-30.445 -45.399 54.22) scale(.69098)"/><path d="M69.242 94.257H33.764l-2.578 4.464H61.51l-10.007 17.332 2.577 4.465L66.665 98.72z" fill="url(#m)" transform="rotate(-30.445 -45.399 54.22) scale(.69098)"/><path d="M31.186 98.721l15.162 26.261 2.577 4.465h5.156l-2.578-4.465-2.578-4.464-10.006-17.332h20.013l2.578-4.465H36.34z" fill="url(#n)" transform="rotate(-30.445 -45.399 54.22) scale(.69098)"/></g><g opacity=".349"><path d="M69.242 94.257l-15.162 26.26-2.577-4.464-7.429-12.867h-5.155l10.006 17.332 2.578 4.464 2.578 4.465L71.82 98.72zm-30.323 0h-5.155 5.155z" fill="url(#o)" transform="rotate(-30.445 -45.399 54.22) scale(.69098)"/><path d="M69.242 94.257H33.764l-2.578 4.464H61.51l-10.007 17.332 2.577 4.465L66.665 98.72z" fill="url(#p)" transform="rotate(-30.445 -45.399 54.22) scale(.69098)"/><path d="M31.186 98.721l15.162 26.261 2.577 4.465h5.156l-2.578-4.465-2.578-4.464-10.006-17.332h20.013l2.578-4.465H36.34z" fill="url(#q)" transform="rotate(-30.445 -45.399 54.22) scale(.69098)"/></g><g opacity=".349"><path d="M69.242 94.257l-15.162 26.26-2.577-4.464-7.429-12.867h-5.155l10.006 17.332 2.578 4.464 2.578 4.465L71.82 98.72zm-30.323 0h-5.155 5.155z" fill="url(#r)" transform="rotate(-30.445 -45.399 54.22) scale(.69098)"/><path d="M69.242 94.257H33.764l-2.578 4.464H61.51l-10.007 17.332 2.577 4.465L66.665 98.72z" fill="url(#s)" transform="rotate(-30.445 -45.399 54.22) scale(.69098)"/><path d="M31.186 98.721l15.162 26.261 2.577 4.465h5.156l-2.578-4.465-2.578-4.464-10.006-17.332h20.013l2.578-4.465H36.34z" fill="url(#t)" transform="rotate(-30.445 -45.399 54.22) scale(.69098)"/></g><g opacity=".349"><path d="M69.242 94.257l-15.162 26.26-2.577-4.464-7.429-12.867h-5.155l10.006 17.332 2.578 4.464 2.578 4.465L71.82 98.72zm-30.323 0h-5.155 5.155z" fill="url(#u)" transform="rotate(-30.445 -45.399 54.22) scale(.69098)"/><path d="M69.242 94.257H33.764l-2.578 4.464H61.51l-10.007 17.332 2.577 4.465L66.665 98.72z" fill="url(#v)" transform="rotate(-30.445 -45.399 54.22) scale(.69098)"/><path d="M31.186 98.721l15.162 26.261 2.577 4.465h5.156l-2.578-4.465-2.578-4.464-10.006-17.332h20.013l2.578-4.465H36.34z" fill="url(#w)" transform="rotate(-30.445 -45.399 54.22) scale(.69098)"/></g><g opacity=".349"><path d="M69.242 94.257l-15.162 26.26-2.577-4.464-7.429-12.867h-5.155l10.006 17.332 2.578 4.464 2.578 4.465L71.82 98.72zm-30.323 0h-5.155 5.155z" fill="url(#x)" transform="rotate(-30.445 -45.399 54.22) scale(.69098)"/><path d="M69.242 94.257H33.764l-2.578 4.464H61.51l-10.007 17.332 2.577 4.465L66.665 98.72z" fill="url(#y)" transform="rotate(-30.445 -45.399 54.22) scale(.69098)"/><path d="M31.186 98.721l15.162 26.261 2.577 4.465h5.156l-2.578-4.465-2.578-4.464-10.006-17.332h20.013l2.578-4.465H36.34z" fill="url(#z)" transform="rotate(-30.445 -45.399 54.22) scale(.69098)"/></g><g opacity=".349"><path d="M69.242 94.257l-15.162 26.26-2.577-4.464-7.429-12.867h-5.155l10.006 17.332 2.578 4.464 2.578 4.465L71.82 98.72zm-30.323 0h-5.155 5.155z" fill="url(#A)" transform="rotate(-30.445 -45.399 54.22) scale(.69098)"/><path d="M69.242 94.257H33.764l-2.578 4.464H61.51l-10.007 17.332 2.577 4.465L66.665 98.72z" fill="url(#B)" transform="rotate(-30.445 -45.399 54.22) scale(.69098)"/><path d="M31.186 98.721l15.162 26.261 2.577 4.465h5.156l-2.578-4.465-2.578-4.464-10.006-17.332h20.013l2.578-4.465H36.34z" fill="url(#C)" transform="rotate(-30.445 -45.399 54.22) scale(.69098)"/></g><g opacity=".349"><path d="M69.242 94.257l-15.162 26.26-2.577-4.464-7.429-12.867h-5.155l10.006 17.332 2.578 4.464 2.578 4.465L71.82 98.72zm-30.323 0h-5.155 5.155z" fill="url(#D)" transform="matrix(.50064 -.29494 .29426 .50181 182.21 200.177)"/><path d="M69.242 94.257H33.764l-2.578 4.464H61.51l-10.007 17.332 2.577 4.465L66.665 98.72z" fill="url(#E)" transform="matrix(.50064 -.29494 .29426 .50181 182.21 200.177)"/><path d="M31.186 98.721l15.162 26.261 2.577 4.465h5.156l-2.578-4.465-2.578-4.464-10.006-17.332h20.013l2.578-4.465H36.34z" fill="url(#F)" transform="matrix(.50064 -.29494 .29426 .50181 182.21 200.177)"/></g><g opacity=".349"><path d="M69.242 94.257l-15.162 26.26-2.577-4.464-7.429-12.867h-5.155l10.006 17.332 2.578 4.464 2.578 4.465L71.82 98.72zm-30.323 0h-5.155 5.155z" fill="url(#G)" transform="matrix(.50064 -.29494 .29426 .50181 182.21 200.177)"/><path d="M69.242 94.257H33.764l-2.578 4.464H61.51l-10.007 17.332 2.577 4.465L66.665 98.72z" fill="url(#H)" transform="matrix(.50064 -.29494 .29426 .50181 182.21 200.177)"/><path d="M31.186 98.721l15.162 26.261 2.577 4.465h5.156l-2.578-4.465-2.578-4.464-10.006-17.332h20.013l2.578-4.465H36.34z" fill="url(#I)" transform="matrix(.50064 -.29494 .29426 .50181 182.21 200.177)"/></g><g opacity=".349"><path d="M69.242 94.257l-15.162 26.26-2.577-4.464-7.429-12.867h-5.155l10.006 17.332 2.578 4.464 2.578 4.465L71.82 98.72zm-30.323 0h-5.155 5.155z" fill="url(#J)" transform="matrix(.50064 -.29494 .29426 .50181 182.21 200.177)"/><path d="M69.242 94.257H33.764l-2.578 4.464H61.51l-10.007 17.332 2.577 4.465L66.665 98.72z" fill="url(#K)" transform="matrix(.50064 -.29494 .29426 .50181 182.21 200.177)"/><path d="M31.186 98.721l15.162 26.261 2.577 4.465h5.156l-2.578-4.465-2.578-4.464-10.006-17.332h20.013l2.578-4.465H36.34z" fill="url(#L)" transform="matrix(.50064 -.29494 .29426 .50181 182.21 200.177)"/></g><g opacity=".349"><path d="M69.242 94.257l-15.162 26.26-2.577-4.464-7.429-12.867h-5.155l10.006 17.332 2.578 4.464 2.578 4.465L71.82 98.72zm-30.323 0h-5.155 5.155z" fill="url(#M)" transform="matrix(.50064 -.29494 .29426 .50181 182.21 200.177)"/><path d="M69.242 94.257H33.764l-2.578 4.464H61.51l-10.007 17.332 2.577 4.465L66.665 98.72z" fill="url(#N)" transform="matrix(.50064 -.29494 .29426 .50181 182.21 200.177)"/><path d="M31.186 98.721l15.162 26.261 2.577 4.465h5.156l-2.578-4.465-2.578-4.464-10.006-17.332h20.013l2.578-4.465H36.34z" fill="url(#O)" transform="matrix(.50064 -.29494 .29426 .50181 182.21 200.177)"/></g><g opacity=".349"><path d="M69.242 94.257l-15.162 26.26-2.577-4.464-7.429-12.867h-5.155l10.006 17.332 2.578 4.464 2.578 4.465L71.82 98.72zm-30.323 0h-5.155 5.155z" fill="url(#P)" transform="matrix(.50064 -.29494 .29426 .50181 182.21 200.177)"/><path d="M69.242 94.257H33.764l-2.578 4.464H61.51l-10.007 17.332 2.577 4.465L66.665 98.72z" fill="url(#Q)" transform="matrix(.50064 -.29494 .29426 .50181 182.21 200.177)"/><path d="M31.186 98.721l15.162 26.261 2.577 4.465h5.156l-2.578-4.465-2.578-4.464-10.006-17.332h20.013l2.578-4.465H36.34z" fill="url(#R)" transform="matrix(.50064 -.29494 .29426 .50181 182.21 200.177)"/></g><g opacity=".349"><path d="M69.242 94.257l-15.162 26.26-2.577-4.464-7.429-12.867h-5.155l10.006 17.332 2.578 4.464 2.578 4.465L71.82 98.72zm-30.323 0h-5.155 5.155z" fill="url(#S)" transform="matrix(.50064 -.29494 .29426 .50181 182.21 200.177)"/><path d="M69.242 94.257H33.764l-2.578 4.464H61.51l-10.007 17.332 2.577 4.465L66.665 98.72z" fill="url(#T)" transform="matrix(.50064 -.29494 .29426 .50181 182.21 200.177)"/><path d="M31.186 98.721l15.162 26.261 2.577 4.465h5.156l-2.578-4.465-2.578-4.464-10.006-17.332h20.013l2.578-4.465H36.34z" fill="url(#U)" transform="matrix(.50064 -.29494 .29426 .50181 182.21 200.177)"/></g><g opacity=".349"><path d="M69.242 94.257l-15.162 26.26-2.577-4.464-7.429-12.867h-5.155l10.006 17.332 2.578 4.464 2.578 4.465L71.82 98.72zm-30.323 0h-5.155 5.155z" fill="url(#V)" transform="matrix(.50064 -.29494 .29426 .50181 182.21 200.177)"/><path d="M69.242 94.257H33.764l-2.578 4.464H61.51l-10.007 17.332 2.577 4.465L66.665 98.72z" fill="url(#W)" transform="matrix(.50064 -.29494 .29426 .50181 182.21 200.177)"/><path d="M31.186 98.721l15.162 26.261 2.577 4.465h5.156l-2.578-4.465-2.578-4.464-10.006-17.332h20.013l2.578-4.465H36.34z" fill="url(#X)" transform="matrix(.50064 -.29494 .29426 .50181 182.21 200.177)"/></g><g opacity=".349"><path d="M69.242 94.257l-15.162 26.26-2.577-4.464-7.429-12.867h-5.155l10.006 17.332 2.578 4.464 2.578 4.465L71.82 98.72zm-30.323 0h-5.155 5.155z" fill="url(#Y)" transform="matrix(.50064 -.29494 .29426 .50181 179.854 -4.164)"/><path d="M69.242 94.257H33.764l-2.578 4.464H61.51l-10.007 17.332 2.577 4.465L66.665 98.72z" fill="url(#Z)" transform="matrix(.50064 -.29494 .29426 .50181 179.854 -4.164)"/><path d="M31.186 98.721l15.162 26.261 2.577 4.465h5.156l-2.578-4.465-2.578-4.464-10.006-17.332h20.013l2.578-4.465H36.34z" fill="url(#aa)" transform="matrix(.50064 -.29494 .29426 .50181 179.854 -4.164)"/></g><g opacity=".349"><path d="M69.242 94.257l-15.162 26.26-2.577-4.464-7.429-12.867h-5.155l10.006 17.332 2.578 4.464 2.578 4.465L71.82 98.72zm-30.323 0h-5.155 5.155z" fill="url(#ab)" transform="matrix(.50064 -.29494 .29426 .50181 179.854 -4.164)"/><path d="M69.242 94.257H33.764l-2.578 4.464H61.51l-10.007 17.332 2.577 4.465L66.665 98.72z" fill="url(#ac)" transform="matrix(.50064 -.29494 .29426 .50181 179.854 -4.164)"/><path d="M31.186 98.721l15.162 26.261 2.577 4.465h5.156l-2.578-4.465-2.578-4.464-10.006-17.332h20.013l2.578-4.465H36.34z" fill="url(#ad)" transform="matrix(.50064 -.29494 .29426 .50181 179.854 -4.164)"/></g><g opacity=".349"><path d="M69.242 94.257l-15.162 26.26-2.577-4.464-7.429-12.867h-5.155l10.006 17.332 2.578 4.464 2.578 4.465L71.82 98.72zm-30.323 0h-5.155 5.155z" fill="url(#ae)" transform="matrix(.50064 -.29494 .29426 .50181 179.854 -4.164)"/><path d="M69.242 94.257H33.764l-2.578 4.464H61.51l-10.007 17.332 2.577 4.465L66.665 98.72z" fill="url(#af)" transform="matrix(.50064 -.29494 .29426 .50181 179.854 -4.164)"/><path d="M31.186 98.721l15.162 26.261 2.577 4.465h5.156l-2.578-4.465-2.578-4.464-10.006-17.332h20.013l2.578-4.465H36.34z" fill="url(#ag)" transform="matrix(.50064 -.29494 .29426 .50181 179.854 -4.164)"/></g><g opacity=".349"><path d="M69.242 94.257l-15.162 26.26-2.577-4.464-7.429-12.867h-5.155l10.006 17.332 2.578 4.464 2.578 4.465L71.82 98.72zm-30.323 0h-5.155 5.155z" fill="url(#ah)" transform="matrix(.50064 -.29494 .29426 .50181 179.854 -4.164)"/><path d="M69.242 94.257H33.764l-2.578 4.464H61.51l-10.007 17.332 2.577 4.465L66.665 98.72z" fill="url(#ai)" transform="matrix(.50064 -.29494 .29426 .50181 179.854 -4.164)"/><path d="M31.186 98.721l15.162 26.261 2.577 4.465h5.156l-2.578-4.465-2.578-4.464-10.006-17.332h20.013l2.578-4.465H36.34z" fill="url(#aj)" transform="matrix(.50064 -.29494 .29426 .50181 179.854 -4.164)"/></g><g opacity=".349"><path d="M69.242 94.257l-15.162 26.26-2.577-4.464-7.429-12.867h-5.155l10.006 17.332 2.578 4.464 2.578 4.465L71.82 98.72zm-30.323 0h-5.155 5.155z" fill="url(#ak)" transform="matrix(.50064 -.29494 .29426 .50181 179.854 -4.164)"/><path d="M69.242 94.257H33.764l-2.578 4.464H61.51l-10.007 17.332 2.577 4.465L66.665 98.72z" fill="url(#al)" transform="matrix(.50064 -.29494 .29426 .50181 179.854 -4.164)"/><path d="M31.186 98.721l15.162 26.261 2.577 4.465h5.156l-2.578-4.465-2.578-4.464-10.006-17.332h20.013l2.578-4.465H36.34z" fill="url(#am)" transform="matrix(.50064 -.29494 .29426 .50181 179.854 -4.164)"/></g><g opacity=".349"><path d="M69.242 94.257l-15.162 26.26-2.577-4.464-7.429-12.867h-5.155l10.006 17.332 2.578 4.464 2.578 4.465L71.82 98.72zm-30.323 0h-5.155 5.155z" fill="url(#an)" transform="matrix(.50064 -.29494 .29426 .50181 179.854 -4.164)"/><path d="M69.242 94.257H33.764l-2.578 4.464H61.51l-10.007 17.332 2.577 4.465L66.665 98.72z" fill="url(#ao)" transform="matrix(.50064 -.29494 .29426 .50181 179.854 -4.164)"/><path d="M31.186 98.721l15.162 26.261 2.577 4.465h5.156l-2.578-4.465-2.578-4.464-10.006-17.332h20.013l2.578-4.465H36.34z" fill="url(#ap)" transform="matrix(.50064 -.29494 .29426 .50181 179.854 -4.164)"/></g><g opacity=".349"><path d="M69.242 94.257l-15.162 26.26-2.577-4.464-7.429-12.867h-5.155l10.006 17.332 2.578 4.464 2.578 4.465L71.82 98.72zm-30.323 0h-5.155 5.155z" fill="url(#aq)" transform="matrix(.50064 -.29494 .29426 .50181 179.854 -4.164)"/><path d="M69.242 94.257H33.764l-2.578 4.464H61.51l-10.007 17.332 2.577 4.465L66.665 98.72z" fill="url(#ar)" transform="matrix(.50064 -.29494 .29426 .50181 179.854 -4.164)"/><path d="M31.186 98.721l15.162 26.261 2.577 4.465h5.156l-2.578-4.465-2.578-4.464-10.006-17.332h20.013l2.578-4.465H36.34z" fill="url(#as)" transform="matrix(.50064 -.29494 .29426 .50181 179.854 -4.164)"/></g><g opacity=".349"><path d="M69.242 94.257l-15.162 26.26-2.577-4.464-7.429-12.867h-5.155l10.006 17.332 2.578 4.464 2.578 4.465L71.82 98.72zm-30.323 0h-5.155 5.155z" fill="url(#at)" transform="matrix(.50065 -.29494 .29426 .50181 -26.843 197.23)"/><path d="M69.242 94.257H33.764l-2.578 4.464H61.51l-10.007 17.332 2.577 4.465L66.665 98.72z" fill="url(#au)" transform="matrix(.50065 -.29494 .29426 .50181 -26.843 197.23)"/><path d="M31.186 98.721l15.162 26.261 2.577 4.465h5.156l-2.578-4.465-2.578-4.464-10.006-17.332h20.013l2.578-4.465H36.34z" fill="url(#av)" transform="matrix(.50065 -.29494 .29426 .50181 -26.843 197.23)"/></g><g opacity=".349"><path d="M69.242 94.257l-15.162 26.26-2.577-4.464-7.429-12.867h-5.155l10.006 17.332 2.578 4.464 2.578 4.465L71.82 98.72zm-30.323 0h-5.155 5.155z" fill="url(#aw)" transform="matrix(.50065 -.29494 .29426 .50181 -26.843 197.23)"/><path d="M69.242 94.257H33.764l-2.578 4.464H61.51l-10.007 17.332 2.577 4.465L66.665 98.72z" fill="url(#ax)" transform="matrix(.50065 -.29494 .29426 .50181 -26.843 197.23)"/><path d="M31.186 98.721l15.162 26.261 2.577 4.465h5.156l-2.578-4.465-2.578-4.464-10.006-17.332h20.013l2.578-4.465H36.34z" fill="url(#ay)" transform="matrix(.50065 -.29494 .29426 .50181 -26.843 197.23)"/></g><g opacity=".349"><path d="M69.242 94.257l-15.162 26.26-2.577-4.464-7.429-12.867h-5.155l10.006 17.332 2.578 4.464 2.578 4.465L71.82 98.72zm-30.323 0h-5.155 5.155z" fill="url(#az)" transform="matrix(.50065 -.29494 .29426 .50181 -26.843 197.23)"/><path d="M69.242 94.257H33.764l-2.578 4.464H61.51l-10.007 17.332 2.577 4.465L66.665 98.72z" fill="url(#aA)" transform="matrix(.50065 -.29494 .29426 .50181 -26.843 197.23)"/><path d="M31.186 98.721l15.162 26.261 2.577 4.465h5.156l-2.578-4.465-2.578-4.464-10.006-17.332h20.013l2.578-4.465H36.34z" fill="url(#aB)" transform="matrix(.50065 -.29494 .29426 .50181 -26.843 197.23)"/></g><g opacity=".349"><path d="M69.242 94.257l-15.162 26.26-2.577-4.464-7.429-12.867h-5.155l10.006 17.332 2.578 4.464 2.578 4.465L71.82 98.72zm-30.323 0h-5.155 5.155z" fill="url(#aC)" transform="matrix(.50065 -.29494 .29426 .50181 -26.843 197.23)"/><path d="M69.242 94.257H33.764l-2.578 4.464H61.51l-10.007 17.332 2.577 4.465L66.665 98.72z" fill="url(#aD)" transform="matrix(.50065 -.29494 .29426 .50181 -26.843 197.23)"/><path d="M31.186 98.721l15.162 26.261 2.577 4.465h5.156l-2.578-4.465-2.578-4.464-10.006-17.332h20.013l2.578-4.465H36.34z" fill="url(#aE)" transform="matrix(.50065 -.29494 .29426 .50181 -26.843 197.23)"/></g><g opacity=".349"><path d="M69.242 94.257l-15.162 26.26-2.577-4.464-7.429-12.867h-5.155l10.006 17.332 2.578 4.464 2.578 4.465L71.82 98.72zm-30.323 0h-5.155 5.155z" fill="url(#aF)" transform="matrix(.50065 -.29494 .29426 .50181 -26.843 197.23)"/><path d="M69.242 94.257H33.764l-2.578 4.464H61.51l-10.007 17.332 2.577 4.465L66.665 98.72z" fill="url(#aG)" transform="matrix(.50065 -.29494 .29426 .50181 -26.843 197.23)"/><path d="M31.186 98.721l15.162 26.261 2.577 4.465h5.156l-2.578-4.465-2.578-4.464-10.006-17.332h20.013l2.578-4.465H36.34z" fill="url(#aH)" transform="matrix(.50065 -.29494 .29426 .50181 -26.843 197.23)"/></g><g opacity=".349"><path d="M69.242 94.257l-15.162 26.26-2.577-4.464-7.429-12.867h-5.155l10.006 17.332 2.578 4.464 2.578 4.465L71.82 98.72zm-30.323 0h-5.155 5.155z" fill="url(#aI)" transform="matrix(.50065 -.29494 .29426 .50181 -26.843 197.23)"/><path d="M69.242 94.257H33.764l-2.578 4.464H61.51l-10.007 17.332 2.577 4.465L66.665 98.72z" fill="url(#aJ)" transform="matrix(.50065 -.29494 .29426 .50181 -26.843 197.23)"/><path d="M31.186 98.721l15.162 26.261 2.577 4.465h5.156l-2.578-4.465-2.578-4.464-10.006-17.332h20.013l2.578-4.465H36.34z" fill="url(#aK)" transform="matrix(.50065 -.29494 .29426 .50181 -26.843 197.23)"/></g><g opacity=".349"><path d="M69.242 94.257l-15.162 26.26-2.577-4.464-7.429-12.867h-5.155l10.006 17.332 2.578 4.464 2.578 4.465L71.82 98.72zm-30.323 0h-5.155 5.155z" fill="url(#aL)" transform="matrix(.50065 -.29494 .29426 .50181 -26.843 197.23)"/><path d="M69.242 94.257H33.764l-2.578 4.464H61.51l-10.007 17.332 2.577 4.465L66.665 98.72z" fill="url(#aM)" transform="matrix(.50065 -.29494 .29426 .50181 -26.843 197.23)"/><path d="M31.186 98.721l15.162 26.261 2.577 4.465h5.156l-2.578-4.465-2.578-4.464-10.006-17.332h20.013l2.578-4.465H36.34z" fill="url(#aN)" transform="matrix(.50065 -.29494 .29426 .50181 -26.843 197.23)"/></g><path d="M246.527 114.472l-10.638-11.748-4.855 15.086zm-5.148-1.657l-6.336 1.366 1.986-6.17z" opacity=".349" fill="#f55"/><path d="M32.693 99.28L22.055 87.53l-4.856 15.087zm-5.148-1.657l-6.337 1.365 1.986-6.17z" opacity=".349" fill="#4ba6bd"/><g opacity=".349"><path d="M69.242 94.257l-15.162 26.26-2.577-4.464-7.429-12.867h-5.155l10.006 17.332 2.578 4.464 2.578 4.465L71.82 98.72zm-30.323 0h-5.155 5.155z" fill="url(#aO)" transform="matrix(.34265 -.20187 .2014 .34345 147.146 148.509)"/><path d="M69.242 94.257H33.764l-2.578 4.464H61.51l-10.007 17.332 2.577 4.465L66.665 98.72z" fill="url(#aP)" transform="matrix(.34265 -.20187 .2014 .34345 147.146 148.509)"/><path d="M31.186 98.721l15.162 26.261 2.577 4.465h5.156l-2.578-4.465-2.578-4.464-10.006-17.332h20.013l2.578-4.465H36.34z" fill="url(#aQ)" transform="matrix(.34265 -.20187 .2014 .34345 147.146 148.509)"/></g><g opacity=".349"><path d="M69.242 94.257l-15.162 26.26-2.577-4.464-7.429-12.867h-5.155l10.006 17.332 2.578 4.464 2.578 4.465L71.82 98.72zm-30.323 0h-5.155 5.155z" fill="url(#aR)" transform="matrix(.34265 -.20187 .2014 .34345 147.146 148.509)"/><path d="M69.242 94.257H33.764l-2.578 4.464H61.51l-10.007 17.332 2.577 4.465L66.665 98.72z" fill="url(#aS)" transform="matrix(.34265 -.20187 .2014 .34345 147.146 148.509)"/><path d="M31.186 98.721l15.162 26.261 2.577 4.465h5.156l-2.578-4.465-2.578-4.464-10.006-17.332h20.013l2.578-4.465H36.34z" fill="url(#aT)" transform="matrix(.34265 -.20187 .2014 .34345 147.146 148.509)"/></g><g opacity=".349"><path d="M69.242 94.257l-15.162 26.26-2.577-4.464-7.429-12.867h-5.155l10.006 17.332 2.578 4.464 2.578 4.465L71.82 98.72zm-30.323 0h-5.155 5.155z" fill="url(#aU)" transform="matrix(.34265 -.20187 .2014 .34345 147.146 148.509)"/><path d="M69.242 94.257H33.764l-2.578 4.464H61.51l-10.007 17.332 2.577 4.465L66.665 98.72z" fill="url(#aV)" transform="matrix(.34265 -.20187 .2014 .34345 147.146 148.509)"/><path d="M31.186 98.721l15.162 26.261 2.577 4.465h5.156l-2.578-4.465-2.578-4.464-10.006-17.332h20.013l2.578-4.465H36.34z" fill="url(#aW)" transform="matrix(.34265 -.20187 .2014 .34345 147.146 148.509)"/></g><g opacity=".349"><path d="M69.242 94.257l-15.162 26.26-2.577-4.464-7.429-12.867h-5.155l10.006 17.332 2.578 4.464 2.578 4.465L71.82 98.72zm-30.323 0h-5.155 5.155z" fill="url(#aX)" transform="matrix(.34265 -.20187 .2014 .34345 147.146 148.509)"/><path d="M69.242 94.257H33.764l-2.578 4.464H61.51l-10.007 17.332 2.577 4.465L66.665 98.72z" fill="url(#aY)" transform="matrix(.34265 -.20187 .2014 .34345 147.146 148.509)"/><path d="M31.186 98.721l15.162 26.261 2.577 4.465h5.156l-2.578-4.465-2.578-4.464-10.006-17.332h20.013l2.578-4.465H36.34z" fill="url(#aZ)" transform="matrix(.34265 -.20187 .2014 .34345 147.146 148.509)"/></g><g opacity=".349"><path d="M69.242 94.257l-15.162 26.26-2.577-4.464-7.429-12.867h-5.155l10.006 17.332 2.578 4.464 2.578 4.465L71.82 98.72zm-30.323 0h-5.155 5.155z" fill="url(#ba)" transform="matrix(.34265 -.20187 .2014 .34345 147.146 148.509)"/><path d="M69.242 94.257H33.764l-2.578 4.464H61.51l-10.007 17.332 2.577 4.465L66.665 98.72z" fill="url(#bb)" transform="matrix(.34265 -.20187 .2014 .34345 147.146 148.509)"/><path d="M31.186 98.721l15.162 26.261 2.577 4.465h5.156l-2.578-4.465-2.578-4.464-10.006-17.332h20.013l2.578-4.465H36.34z" fill="url(#bc)" transform="matrix(.34265 -.20187 .2014 .34345 147.146 148.509)"/></g><g opacity=".349"><path d="M69.242 94.257l-15.162 26.26-2.577-4.464-7.429-12.867h-5.155l10.006 17.332 2.578 4.464 2.578 4.465L71.82 98.72zm-30.323 0h-5.155 5.155z" fill="url(#bd)" transform="matrix(.34265 -.20187 .2014 .34345 147.146 148.509)"/><path d="M69.242 94.257H33.764l-2.578 4.464H61.51l-10.007 17.332 2.577 4.465L66.665 98.72z" fill="url(#be)" transform="matrix(.34265 -.20187 .2014 .34345 147.146 148.509)"/><path d="M31.186 98.721l15.162 26.261 2.577 4.465h5.156l-2.578-4.465-2.578-4.464-10.006-17.332h20.013l2.578-4.465H36.34z" fill="url(#bf)" transform="matrix(.34265 -.20187 .2014 .34345 147.146 148.509)"/></g><g opacity=".349"><path d="M69.242 94.257l-15.162 26.26-2.577-4.464-7.429-12.867h-5.155l10.006 17.332 2.578 4.464 2.578 4.465L71.82 98.72zm-30.323 0h-5.155 5.155z" fill="url(#bg)" transform="matrix(.34265 -.20187 .2014 .34345 147.146 148.509)"/><path d="M69.242 94.257H33.764l-2.578 4.464H61.51l-10.007 17.332 2.577 4.465L66.665 98.72z" fill="url(#bh)" transform="matrix(.34265 -.20187 .2014 .34345 147.146 148.509)"/><path d="M31.186 98.721l15.162 26.261 2.577 4.465h5.156l-2.578-4.465-2.578-4.464-10.006-17.332h20.013l2.578-4.465H36.34z" fill="url(#bi)" transform="matrix(.34265 -.20187 .2014 .34345 147.146 148.509)"/></g><g opacity=".349"><path d="M69.242 94.257l-15.162 26.26-2.577-4.464-7.429-12.867h-5.155l10.006 17.332 2.578 4.464 2.578 4.465L71.82 98.72zm-30.323 0h-5.155 5.155z" fill="url(#bj)" transform="matrix(.3386 -.19948 .19901 .33939 -3.811 120.27)"/><path d="M69.242 94.257H33.764l-2.578 4.464H61.51l-10.007 17.332 2.577 4.465L66.665 98.72z" fill="url(#bk)" transform="matrix(.3386 -.19948 .19901 .33939 -3.811 120.27)"/><path d="M31.186 98.721l15.162 26.261 2.577 4.465h5.156l-2.578-4.465-2.578-4.464-10.006-17.332h20.013l2.578-4.465H36.34z" fill="url(#bl)" transform="matrix(.3386 -.19948 .19901 .33939 -3.811 120.27)"/></g><g opacity=".349"><path d="M69.242 94.257l-15.162 26.26-2.577-4.464-7.429-12.867h-5.155l10.006 17.332 2.578 4.464 2.578 4.465L71.82 98.72zm-30.323 0h-5.155 5.155z" fill="url(#bm)" transform="matrix(.3386 -.19948 .19901 .33939 -3.811 120.27)"/><path d="M69.242 94.257H33.764l-2.578 4.464H61.51l-10.007 17.332 2.577 4.465L66.665 98.72z" fill="url(#bn)" transform="matrix(.3386 -.19948 .19901 .33939 -3.811 120.27)"/><path d="M31.186 98.721l15.162 26.261 2.577 4.465h5.156l-2.578-4.465-2.578-4.464-10.006-17.332h20.013l2.578-4.465H36.34z" fill="url(#bo)" transform="matrix(.3386 -.19948 .19901 .33939 -3.811 120.27)"/></g><g opacity=".349"><path d="M69.242 94.257l-15.162 26.26-2.577-4.464-7.429-12.867h-5.155l10.006 17.332 2.578 4.464 2.578 4.465L71.82 98.72zm-30.323 0h-5.155 5.155z" fill="url(#bp)" transform="matrix(.3386 -.19948 .19901 .33939 -3.811 120.27)"/><path d="M69.242 94.257H33.764l-2.578 4.464H61.51l-10.007 17.332 2.577 4.465L66.665 98.72z" fill="url(#bq)" transform="matrix(.3386 -.19948 .19901 .33939 -3.811 120.27)"/><path d="M31.186 98.721l15.162 26.261 2.577 4.465h5.156l-2.578-4.465-2.578-4.464-10.006-17.332h20.013l2.578-4.465H36.34z" fill="url(#br)" transform="matrix(.3386 -.19948 .19901 .33939 -3.811 120.27)"/></g><g opacity=".349"><path d="M69.242 94.257l-15.162 26.26-2.577-4.464-7.429-12.867h-5.155l10.006 17.332 2.578 4.464 2.578 4.465L71.82 98.72zm-30.323 0h-5.155 5.155z" fill="url(#bs)" transform="matrix(.3386 -.19948 .19901 .33939 -3.811 120.27)"/><path d="M69.242 94.257H33.764l-2.578 4.464H61.51l-10.007 17.332 2.577 4.465L66.665 98.72z" fill="url(#bt)" transform="matrix(.3386 -.19948 .19901 .33939 -3.811 120.27)"/><path d="M31.186 98.721l15.162 26.261 2.577 4.465h5.156l-2.578-4.465-2.578-4.464-10.006-17.332h20.013l2.578-4.465H36.34z" fill="url(#bu)" transform="matrix(.3386 -.19948 .19901 .33939 -3.811 120.27)"/></g><g opacity=".349"><path d="M69.242 94.257l-15.162 26.26-2.577-4.464-7.429-12.867h-5.155l10.006 17.332 2.578 4.464 2.578 4.465L71.82 98.72zm-30.323 0h-5.155 5.155z" fill="url(#bv)" transform="matrix(.3386 -.19948 .19901 .33939 -3.811 120.27)"/><path d="M69.242 94.257H33.764l-2.578 4.464H61.51l-10.007 17.332 2.577 4.465L66.665 98.72z" fill="url(#bw)" transform="matrix(.3386 -.19948 .19901 .33939 -3.811 120.27)"/><path d="M31.186 98.721l15.162 26.261 2.577 4.465h5.156l-2.578-4.465-2.578-4.464-10.006-17.332h20.013l2.578-4.465H36.34z" fill="url(#bx)" transform="matrix(.3386 -.19948 .19901 .33939 -3.811 120.27)"/></g><g opacity=".349"><path d="M69.242 94.257l-15.162 26.26-2.577-4.464-7.429-12.867h-5.155l10.006 17.332 2.578 4.464 2.578 4.465L71.82 98.72zm-30.323 0h-5.155 5.155z" fill="url(#by)" transform="matrix(.3386 -.19948 .19901 .33939 -3.811 120.27)"/><path d="M69.242 94.257H33.764l-2.578 4.464H61.51l-10.007 17.332 2.577 4.465L66.665 98.72z" fill="url(#bz)" transform="matrix(.3386 -.19948 .19901 .33939 -3.811 120.27)"/><path d="M31.186 98.721l15.162 26.261 2.577 4.465h5.156l-2.578-4.465-2.578-4.464-10.006-17.332h20.013l2.578-4.465H36.34z" fill="url(#bA)" transform="matrix(.3386 -.19948 .19901 .33939 -3.811 120.27)"/></g><g opacity=".349"><path d="M69.242 94.257l-15.162 26.26-2.577-4.464-7.429-12.867h-5.155l10.006 17.332 2.578 4.464 2.578 4.465L71.82 98.72zm-30.323 0h-5.155 5.155z" fill="url(#bB)" transform="matrix(.3386 -.19948 .19901 .33939 -3.811 120.27)"/><path d="M69.242 94.257H33.764l-2.578 4.464H61.51l-10.007 17.332 2.577 4.465L66.665 98.72z" fill="url(#bC)" transform="matrix(.3386 -.19948 .19901 .33939 -3.811 120.27)"/><path d="M31.186 98.721l15.162 26.261 2.577 4.465h5.156l-2.578-4.465-2.578-4.464-10.006-17.332h20.013l2.578-4.465H36.34z" fill="url(#bD)" transform="matrix(.3386 -.19948 .19901 .33939 -3.811 120.27)"/></g><path d="M81.986 238.405l-10.638-11.748-4.856 15.086zm-5.148-1.657l-6.337 1.366 1.986-6.17z" opacity=".349" fill="#f55"/><g opacity=".349"><path d="M69.242 94.257l-15.162 26.26-2.577-4.464-7.429-12.867h-5.155l10.006 17.332 2.578 4.464 2.578 4.465L71.82 98.72zm-30.323 0h-5.155 5.155z" fill="url(#bE)" transform="matrix(.3386 -.19948 .19901 .33939 125.446 6.866)"/><path d="M69.242 94.257H33.764l-2.578 4.464H61.51l-10.007 17.332 2.577 4.465L66.665 98.72z" fill="url(#bF)" transform="matrix(.3386 -.19948 .19901 .33939 125.446 6.866)"/><path d="M31.186 98.721l15.162 26.261 2.577 4.465h5.156l-2.578-4.465-2.578-4.464-10.006-17.332h20.013l2.578-4.465H36.34z" fill="url(#bG)" transform="matrix(.3386 -.19948 .19901 .33939 125.446 6.866)"/></g><g opacity=".349"><path d="M69.242 94.257l-15.162 26.26-2.577-4.464-7.429-12.867h-5.155l10.006 17.332 2.578 4.464 2.578 4.465L71.82 98.72zm-30.323 0h-5.155 5.155z" fill="url(#bH)" transform="matrix(.3386 -.19948 .19901 .33939 125.446 6.866)"/><path d="M69.242 94.257H33.764l-2.578 4.464H61.51l-10.007 17.332 2.577 4.465L66.665 98.72z" fill="url(#bI)" transform="matrix(.3386 -.19948 .19901 .33939 125.446 6.866)"/><path d="M31.186 98.721l15.162 26.261 2.577 4.465h5.156l-2.578-4.465-2.578-4.464-10.006-17.332h20.013l2.578-4.465H36.34z" fill="url(#bJ)" transform="matrix(.3386 -.19948 .19901 .33939 125.446 6.866)"/></g><g opacity=".349"><path d="M69.242 94.257l-15.162 26.26-2.577-4.464-7.429-12.867h-5.155l10.006 17.332 2.578 4.464 2.578 4.465L71.82 98.72zm-30.323 0h-5.155 5.155z" fill="url(#bK)" transform="matrix(.3386 -.19948 .19901 .33939 125.446 6.866)"/><path d="M69.242 94.257H33.764l-2.578 4.464H61.51l-10.007 17.332 2.577 4.465L66.665 98.72z" fill="url(#bL)" transform="matrix(.3386 -.19948 .19901 .33939 125.446 6.866)"/><path d="M31.186 98.721l15.162 26.261 2.577 4.465h5.156l-2.578-4.465-2.578-4.464-10.006-17.332h20.013l2.578-4.465H36.34z" fill="url(#bM)" transform="matrix(.3386 -.19948 .19901 .33939 125.446 6.866)"/></g><g opacity=".349"><path d="M69.242 94.257l-15.162 26.26-2.577-4.464-7.429-12.867h-5.155l10.006 17.332 2.578 4.464 2.578 4.465L71.82 98.72zm-30.323 0h-5.155 5.155z" fill="url(#bN)" transform="matrix(.3386 -.19948 .19901 .33939 125.446 6.866)"/><path d="M69.242 94.257H33.764l-2.578 4.464H61.51l-10.007 17.332 2.577 4.465L66.665 98.72z" fill="url(#bO)" transform="matrix(.3386 -.19948 .19901 .33939 125.446 6.866)"/><path d="M31.186 98.721l15.162 26.261 2.577 4.465h5.156l-2.578-4.465-2.578-4.464-10.006-17.332h20.013l2.578-4.465H36.34z" fill="url(#bP)" transform="matrix(.3386 -.19948 .19901 .33939 125.446 6.866)"/></g><g opacity=".349"><path d="M69.242 94.257l-15.162 26.26-2.577-4.464-7.429-12.867h-5.155l10.006 17.332 2.578 4.464 2.578 4.465L71.82 98.72zm-30.323 0h-5.155 5.155z" fill="url(#bQ)" transform="matrix(.3386 -.19948 .19901 .33939 125.446 6.866)"/><path d="M69.242 94.257H33.764l-2.578 4.464H61.51l-10.007 17.332 2.577 4.465L66.665 98.72z" fill="url(#bR)" transform="matrix(.3386 -.19948 .19901 .33939 125.446 6.866)"/><path d="M31.186 98.721l15.162 26.261 2.577 4.465h5.156l-2.578-4.465-2.578-4.464-10.006-17.332h20.013l2.578-4.465H36.34z" fill="url(#bS)" transform="matrix(.3386 -.19948 .19901 .33939 125.446 6.866)"/></g><g opacity=".349"><path d="M69.242 94.257l-15.162 26.26-2.577-4.464-7.429-12.867h-5.155l10.006 17.332 2.578 4.464 2.578 4.465L71.82 98.72zm-30.323 0h-5.155 5.155z" fill="url(#bT)" transform="matrix(.3386 -.19948 .19901 .33939 125.446 6.866)"/><path d="M69.242 94.257H33.764l-2.578 4.464H61.51l-10.007 17.332 2.577 4.465L66.665 98.72z" fill="url(#bU)" transform="matrix(.3386 -.19948 .19901 .33939 125.446 6.866)"/><path d="M31.186 98.721l15.162 26.261 2.577 4.465h5.156l-2.578-4.465-2.578-4.464-10.006-17.332h20.013l2.578-4.465H36.34z" fill="url(#bV)" transform="matrix(.3386 -.19948 .19901 .33939 125.446 6.866)"/></g><g opacity=".349"><path d="M69.242 94.257l-15.162 26.26-2.577-4.464-7.429-12.867h-5.155l10.006 17.332 2.578 4.464 2.578 4.465L71.82 98.72zm-30.323 0h-5.155 5.155z" fill="url(#bW)" transform="matrix(.3386 -.19948 .19901 .33939 125.446 6.866)"/><path d="M69.242 94.257H33.764l-2.578 4.464H61.51l-10.007 17.332 2.577 4.465L66.665 98.72z" fill="url(#bX)" transform="matrix(.3386 -.19948 .19901 .33939 125.446 6.866)"/><path d="M31.186 98.721l15.162 26.261 2.577 4.465h5.156l-2.578-4.465-2.578-4.464-10.006-17.332h20.013l2.578-4.465H36.34z" fill="url(#bY)" transform="matrix(.3386 -.19948 .19901 .33939 125.446 6.866)"/></g><path d="M244.272 191.847h-15.849l7.925 13.726zm-4.683 2.704l-3.241 5.614-3.241-5.614z" opacity=".349" fill="#ff0"/><path d="M157.018 246.97l-10.638-11.749-4.856 15.087zm-5.148-1.657l-6.337 1.365 1.986-6.17z" opacity=".349" fill="#4ba6bd"/><text y="235.984" x="19.377" style="line-height:0%;-inkscape-font-specification:'Sansita One'" font-weight="400" font-family="Sansita One" letter-spacing="0" word-spacing="0" fill="#4d4d4d" stroke-width=".265" transform="matrix(.775 0 0 .775 29.452 31.644)"><tspan style="line-height:1.25;-inkscape-font-specification:'Roboto Mono Bold'" y="235.984" x="19.377" font-weight="700" font-size="42.333" font-family="Roboto Mono">Vintec</tspan></text><g stroke-width=".105"><path d="M188.619 193.586v2.778h.98v6.912l-5.419 7.492c-1.236 1.71-.015 4.1 2.094 4.1h13.105c2.11 0 3.33-2.391 2.094-4.1l-5.42-7.492v-6.912h.981v-2.778z" fill="#e6e6e6"/><path d="M220.728 231.427l-3.324-4.596c-3.145 1.813-6.412 2.63-10.077 2.172-1.424-.186-2.836-.4-4.241-.62l-2.202 3.044c-.986 1.362-.012 3.268 1.67 3.268h16.505c1.682 0 2.655-1.906 1.67-3.268zm0 0" fill="url(#bZ)" transform="matrix(.775 0 0 .775 29.452 31.878)"/></g><text y="236.117" x="175.228" style="line-height:0%;-inkscape-font-specification:'Sansita One'" font-weight="400" font-family="Sansita One" letter-spacing="0" word-spacing="0" fill="url(#ca)" stroke-width=".265" transform="matrix(.775 0 0 .775 29.452 31.878)"><tspan style="line-height:1.25;-inkscape-font-specification:'Roboto Bold'" y="236.117" x="175.228" font-weight="700" font-size="42.333" font-family="Roboto">L</tspan></text><text style="line-height:0%;-inkscape-font-specification:'Sansita One'" x="222.927" y="235.704" font-weight="400" font-family="Sansita One" letter-spacing="0" word-spacing="0" fill="url(#cb)" stroke-width=".265" transform="matrix(.775 0 0 .775 29.452 31.878)"><tspan x="222.927" y="235.704" style="line-height:1.25;-inkscape-font-specification:'Roboto Bold'" font-weight="700" font-size="42.333" font-family="Roboto">b</tspan></text><path d="M269.907 159.992l-43.299 74.994-7.36-12.749-21.215-36.746H183.31l28.576 49.495 7.36 12.75 7.362 12.75 50.658-87.745zm-86.596 0h-14.722 14.722z" fill="url(#cc)" transform="translate(-145.412 -152.933) scale(1.26662)"/><path d="M269.907 159.992H168.589l-7.36 12.75h86.595l-28.577 49.495 7.361 12.75 35.938-62.245z" fill="url(#cd)" transform="translate(-145.412 -152.933) scale(1.26662)"/><path d="M161.228 172.742l43.298 74.994 7.361 12.75h14.722l-7.361-12.75-7.361-12.75-28.576-49.495h57.152l7.361-12.749H175.95z" fill="url(#ce)" transform="translate(-145.412 -152.933) scale(1.26662)"/></svg>