<svg xmlns="http://www.w3.org/2000/svg" xmlns:xlink="http://www.w3.org/1999/xlink" width="1000" height="300" viewBox="0 0 264.583 79.375"><defs><linearGradient id="a"><stop offset="0" stop-color="#2a8298"/><stop offset="1" stop-color="#4fb5cf" stop-opacity=".882"/></linearGradient><linearGradient id="b"><stop offset="0" stop-color="#87cdde"/><stop offset="1" stop-color="#008fb2"/></linearGradient><linearGradient id="c"><stop offset="0" stop-color="#003c4a"/><stop offset="1" stop-color="#0089aa"/></linearGradient><linearGradient y2="279.939" x2="678.891" y1="443.527" x1="496.269" gradientTransform="rotate(60 98.295 196.457) scale(.26458)" gradientUnits="userSpaceOnUse" id="d" xlink:href="#a"/><linearGradient y2="306.258" x2="690.02" y1="309.597" x1="576.397" gradientTransform="rotate(60 98.295 196.457) scale(.26458)" gradientUnits="userSpaceOnUse" id="e" xlink:href="#b"/><linearGradient y2="191.086" x2="150.474" y1="142.106" x1="152.52" gradientTransform="rotate(60 173.64 239.96)" gradientUnits="userSpaceOnUse" id="f" xlink:href="#c"/></defs><text y="251.86" x="68.06" style="line-height:0%;-inkscape-font-specification:'Sansita One'" transform="translate(11.459 -197.584) scale(1.05504)" font-weight="400" font-size="12.168" font-family="Sansita One" letter-spacing="0" word-spacing="0" fill="#4d4d4d" stroke-width=".268"><tspan style="line-height:1.25;-inkscape-font-specification:'Roboto Heavy'" y="251.86" x="68.06" font-weight="900" font-size="42.925" font-family="Roboto" letter-spacing="8.412">INTEC</tspan></text><path d="M269.907 159.992l-43.299 74.994-7.36-12.749-21.215-36.746H183.31l28.576 49.495 7.36 12.75 7.362 12.75 50.658-87.745zm-86.596 0h-14.722 14.722z" fill="url(#d)" transform="translate(-86.697 -96.525) scale(.6479)"/><path d="M269.907 159.992H168.589l-7.36 12.75h86.595l-28.577 49.495 7.361 12.75 35.938-62.245z" fill="url(#e)" transform="translate(-86.697 -96.525) scale(.6479)"/><path d="M161.228 172.742l43.298 74.994 7.361 12.75h14.722l-7.361-12.75-7.361-12.75-28.576-49.495h57.152l7.361-12.749H175.95z" fill="url(#f)" transform="translate(-86.697 -96.525) scale(.6479)"/></svg>