<svg xmlns="http://www.w3.org/2000/svg" width="176" height="44"><path d="M19 23v10h4.6V23h3.3l.8-4h-4v-3c0-.4.2-1 .9-1H27v-4h-4.5c-2 0-3.5 1.6-3.5 3.8V19h-3v4h3z" fill-rule="evenodd" clip-rule="evenodd" fill="#fff"/><path d="M72.7 22a6.7 6.7 0 0 1-13.4 0c0-.4 0-.6.1-1H55v8.6c0 1.9 1.5 3.4 3.4 3.4h15.1c1.9 0 3.4-1.5 3.4-3.4V21h-4.5c.2.4.3.6.3 1zm.9-11H58.4c-1.9 0-3.4 1.5-3.4 3.4V18h5.6c1.2-1.7 3.2-2.7 5.4-2.7s4.2 1 5.4 2.7H77v-3.6c0-1.9-1.5-3.4-3.4-3.4zm1.6 4.2c0 .3-.3.6-.6.6h-1.8c-.3 0-.6-.3-.6-.6v-1.8c0-.3.3-.6.6-.6h1.8c.3 0 .6.3.6.6v1.8zM70.1 22c0-2.3-1.8-4.1-4.1-4.1s-4.1 1.8-4.1 4.1 1.8 4.1 4.1 4.1 4.1-1.8 4.1-4.1zM110 33c-6.1 0-11-4.9-11-11s4.9-11 11-11 11 4.9 11 11-4.9 11-11 11zm9.3-9.5c-.3-.1-2.9-.9-5.9-.4 1.2 3.4 1.7 6.1 1.8 6.7 2.2-1.4 3.7-3.7 4.1-6.3zm-5.6 7.2c-.1-.8-.7-3.7-2-7.1h-.1c-5.3 1.8-7.2 5.5-7.4 5.9 1.6 1.2 3.6 2 5.8 2 1.3-.1 2.5-.4 3.7-.8zM103 28.3c.2-.4 2.8-4.6 7.6-6.2.1 0 .2-.1.4-.1-.2-.5-.5-1.1-.8-1.6-4.7 1.4-9.2 1.3-9.7 1.3v.3c.1 2.4 1 4.6 2.5 6.3zm-2.2-8.2c.4 0 4.3 0 8.7-1.1-1.6-2.8-3.2-5.1-3.5-5.4-2.6 1.2-4.6 3.6-5.2 6.5zm7-7.2c.3.3 2 2.7 3.5 5.5 3.3-1.3 4.8-3.2 4.9-3.4-1.7-1.5-3.8-2.4-6.2-2.4-.8 0-1.5.1-2.2.3zm9.5 3.2c-.2.3-1.8 2.3-5.2 3.7.2.4.4.9.6 1.4.1.2.1.3.2.5 3.1-.4 6.2.2 6.5.3 0-2.3-.8-4.3-2.1-5.9zm47.7-.9c-.8.4-1.7.6-2.6.7.9-.6 1.6-1.4 2-2.5-.9.5-1.8.9-2.9 1.1-.8-.9-2-1.4-3.3-1.4-2.5 0-4.5 2-4.5 4.5 0 .4 0 .7.1 1-3.8-.2-7.1-2-9.3-4.7-.4.7-.6 1.4-.6 2.3 0 1.6.8 2.9 2 3.8-.7 0-1.4-.2-2-.6v.1c0 2.2 1.6 4 3.6 4.4-.4.1-.8.2-1.2.2-.3 0-.6 0-.8-.1.6 1.8 2.2 3.1 4.2 3.1-1.5 1.2-3.5 1.9-5.6 1.9-.4 0-.7 0-1.1-.1 2 1.3 4.4 2 6.9 2 8.3 0 12.8-6.9 12.8-12.8v-.6c.9-.6 1.7-1.4 2.3-2.3z" fill="#fff"/></svg>